<svg viewBox="0 0 16 16" fill="none" xmlns="http://www.w3.org/2000/svg">
<g>
<path d="M10.2219 7.47051C10.6687 7.02555 10.9741 6.45856 11.1 5.84065C11.2258 5.22275 11.1664 4.58145 10.9292 3.99718C10.692 3.41292 10.2875 2.9117 9.76654 2.55641C9.24558 2.20111 8.63131 2.00755 8.00077 2H3.63824C3.46897 2 3.30663 2.06724 3.18694 2.18694C3.06724 2.30663 3 2.46897 3 2.63824C3 2.80752 3.06724 2.96986 3.18694 3.08955C3.30663 3.20924 3.46897 3.27649 3.63824 3.27649H4.15548C4.18933 3.27649 4.2218 3.28994 4.24574 3.31387C4.26968 3.33781 4.28313 3.37028 4.28313 3.40414V12.5959C4.28313 12.6297 4.26968 12.6622 4.24574 12.6861C4.2218 12.7101 4.18933 12.7235 4.15548 12.7235H3.63824C3.46897 12.7235 3.30663 12.7908 3.18694 12.9104C3.06724 13.0301 3 13.1925 3 13.3618C3 13.531 3.06724 13.6934 3.18694 13.8131C3.30663 13.9328 3.46897 14 3.63824 14H8.7253C9.49963 13.9935 10.2491 13.726 10.8527 13.2409C11.4563 12.7558 11.8787 12.0814 12.0517 11.3266C12.2247 10.5718 12.1381 9.78075 11.806 9.08123C11.4738 8.38171 10.9156 7.8146 10.2213 7.47153L10.2219 7.47051ZM8.00077 3.27649C8.50472 3.2847 8.98525 3.49067 9.33873 3.84996C9.69221 4.20924 9.89031 4.69307 9.89031 5.19709C9.89031 5.70111 9.69221 6.18494 9.33873 6.54422C8.98525 6.90351 8.50472 7.10947 8.00077 7.11769H5.68726C5.65341 7.11769 5.62094 7.10424 5.597 7.0803C5.57306 7.05637 5.55961 7.0239 5.55961 6.99004V3.40516C5.55961 3.3713 5.57306 3.33883 5.597 3.3149C5.62094 3.29096 5.65341 3.27751 5.68726 3.27751L8.00077 3.27649ZM8.72581 12.7225H5.68726C5.65341 12.7225 5.62094 12.709 5.597 12.6851C5.57306 12.6612 5.55961 12.6287 5.55961 12.5948V8.52183C5.55961 8.48797 5.57306 8.45551 5.597 8.43157C5.62094 8.40763 5.65341 8.39418 5.68726 8.39418H8.00077C8.00945 8.39418 8.01762 8.39418 8.02579 8.39418H8.03242H8.72581C9.29402 8.40291 9.83601 8.63476 10.2347 9.03966C10.6335 9.44457 10.857 9.99006 10.857 10.5583C10.857 11.1266 10.6335 11.6721 10.2347 12.077C9.83601 12.4819 9.29402 12.7138 8.72581 12.7225Z" fill="currentColor"/>
</g>
</svg>
