<svg viewBox="0 0 12 12" fill="none" xmlns="http://www.w3.org/2000/svg">
<path d="M1.25 3.24902C1.94036 3.24902 2.5 2.68938 2.5 1.99902C2.5 1.30867 1.94036 0.749023 1.25 0.749023C0.559644 0.749023 0 1.30867 0 1.99902C0 2.68938 0.559644 3.24902 1.25 3.24902Z" fill="currentColor"/>
<path d="M4.25 2.5H11.5C11.6326 2.5 11.7598 2.44732 11.8536 2.35355C11.9473 2.25979 12 2.13261 12 2C12 1.86739 11.9473 1.74021 11.8536 1.64645C11.7598 1.55268 11.6326 1.5 11.5 1.5H4.25C4.11739 1.5 3.99021 1.55268 3.89645 1.64645C3.80268 1.74021 3.75 1.86739 3.75 2C3.75 2.13261 3.80268 2.25979 3.89645 2.35355C3.99021 2.44732 4.11739 2.5 4.25 2.5Z" fill="currentColor"/>
<path d="M1.25 7.24902C1.94036 7.24902 2.5 6.68938 2.5 5.99902C2.5 5.30867 1.94036 4.74902 1.25 4.74902C0.559644 4.74902 0 5.30867 0 5.99902C0 6.68938 0.559644 7.24902 1.25 7.24902Z" fill="currentColor"/>
<path d="M11.5 5.5H4.25C4.11739 5.5 3.99021 5.55268 3.89645 5.64645C3.80268 5.74021 3.75 5.86739 3.75 6C3.75 6.13261 3.80268 6.25979 3.89645 6.35355C3.99021 6.44732 4.11739 6.5 4.25 6.5H11.5C11.6326 6.5 11.7598 6.44732 11.8536 6.35355C11.9473 6.25979 12 6.13261 12 6C12 5.86739 11.9473 5.74021 11.8536 5.64645C11.7598 5.55268 11.6326 5.5 11.5 5.5Z" fill="currentColor"/>
<path d="M1.25 11.249C1.94036 11.249 2.5 10.6894 2.5 9.99902C2.5 9.30867 1.94036 8.74902 1.25 8.74902C0.559644 8.74902 0 9.30867 0 9.99902C0 10.6894 0.559644 11.249 1.25 11.249Z" fill="currentColor"/>
<path d="M11.5 9.5H4.25C4.11739 9.5 3.99021 9.55268 3.89645 9.64645C3.80268 9.74021 3.75 9.86739 3.75 10C3.75 10.1326 3.80268 10.2598 3.89645 10.3536C3.99021 10.4473 4.11739 10.5 4.25 10.5H11.5C11.6326 10.5 11.7598 10.4473 11.8536 10.3536C11.9473 10.2598 12 10.1326 12 10C12 9.86739 11.9473 9.74021 11.8536 9.64645C11.7598 9.55268 11.6326 9.5 11.5 9.5Z" fill="currentColor"/>
</svg>
