<svg viewBox="0 0 12 12" fill="none" xmlns="http://www.w3.org/2000/svg">
<path fill-rule="evenodd" clip-rule="evenodd" d="M0 2C0 0.895431 0.895431 0 2 0H10C11.1046 0 12 0.895431 12 2V10C12 11.1046 11.1046 12 10 12H2C0.895431 12 0 11.1046 0 10V2ZM8.70711 3.29289C9.09764 3.68341 9.09764 4.31658 8.70711 4.7071L7.41421 6L8.70711 7.29289C9.09763 7.68342 9.09763 8.31658 8.70711 8.70711C8.31658 9.09763 7.68342 9.09763 7.29289 8.70711L6 7.41421L4.70711 8.70711C4.31658 9.09763 3.68342 9.09763 3.29289 8.70711C2.90237 8.31658 2.90237 7.68342 3.29289 7.29289L4.58579 6L3.29289 4.7071C2.90236 4.31658 2.90236 3.68341 3.29289 3.29289C3.68341 2.90236 4.31658 2.90236 4.7071 3.29289L6 4.58578L7.2929 3.29289C7.68342 2.90236 8.31659 2.90236 8.70711 3.29289Z" fill="currentColor"/>
</svg>
