<svg viewBox="0 0 12 12" fill="none" xmlns="http://www.w3.org/2000/svg">
<path fill-rule="evenodd" clip-rule="evenodd" d="M2 0C0.895431 0 0 0.895431 0 2V10C0 11.1046 0.895431 12 2 12H10C11.1046 12 12 11.1046 12 10V2C12 0.895431 11.1046 0 10 0H2ZM9.75258 4.6585C10.1163 4.24287 10.0741 3.61111 9.6585 3.24742C9.24287 2.88374 8.6111 2.92586 8.24742 3.3415L5.37752 6.62139L3.6247 5.21913C3.19343 4.87412 2.56414 4.94404 2.21913 5.37531C1.87412 5.80657 1.94404 6.43586 2.3753 6.78087L4.87531 8.78087C5.29318 9.11517 5.90018 9.06124 6.25258 8.6585L9.75258 4.6585Z" fill="currentColor"/>
</svg>
