<svg viewBox="0 0 16 16" fill="none" xmlns="http://www.w3.org/2000/svg">
<path fill-rule="evenodd" clip-rule="evenodd" d="M14 8C14 11.3137 11.3137 14 8 14C4.68629 14 2 11.3137 2 8C2 4.68629 4.68629 2 8 2C11.3137 2 14 4.68629 14 8ZM10.5303 5.46966C10.8232 5.76256 10.8232 6.23743 10.5303 6.53032L9.06066 8L10.5303 9.46967C10.8232 9.76256 10.8232 10.2374 10.5303 10.5303C10.2374 10.8232 9.76256 10.8232 9.46967 10.5303L8 9.06066L6.53033 10.5303C6.23744 10.8232 5.76256 10.8232 5.46967 10.5303C5.17678 10.2374 5.17678 9.76256 5.46967 9.46967L6.93934 8L5.46966 6.53032C5.17677 6.23743 5.17677 5.76256 5.46966 5.46966C5.76256 5.17677 6.23743 5.17677 6.53032 5.46966L8 6.93934L9.46968 5.46966C9.76257 5.17677 10.2374 5.17677 10.5303 5.46966Z" fill="currentColor"/>
</svg>
