<svg viewBox="0 0 16 16" fill="none" xmlns="http://www.w3.org/2000/svg">
<path d="M8.01 4.33333C11.1773 4.33333 13.3853 6.34133 14.346 7.424C13.412 8.64867 11.204 11 8.01 11C5.06333 11 2.72333 8.64267 1.69133 7.39533C2.68667 6.29733 4.90267 4.33333 8.01 4.33333ZM8.01 3C2.964 3 0 7.36733 0 7.36733C0 7.36733 3.22333 12.3333 8.01 12.3333C13.1653 12.3333 16 7.36733 16 7.36733C16 7.36733 13.1393 3 8.01 3ZM8 5C6.52667 5 5.33333 6.194 5.33333 7.66667C5.33333 9.13933 6.52667 10.3333 8 10.3333C9.47267 10.3333 10.6667 9.13933 10.6667 7.66667C10.6667 6.194 9.47267 5 8 5ZM7.99733 7.666C7.62133 8.042 7.01133 8.042 6.63467 7.666C6.258 7.29 6.258 6.67933 6.63467 6.30333C7.01067 5.92733 7.62067 5.92733 7.99733 6.30333C8.374 6.67933 8.374 7.28933 7.99733 7.666Z" fill="currentColor"/>
</svg>
