<svg viewBox="0 0 12 12" fill="none" xmlns="http://www.w3.org/2000/svg">
<path fill-rule="evenodd" clip-rule="evenodd" d="M0 2C0 0.895431 0.895431 0 2 0H10C11.1046 0 12 0.895431 12 2V10C12 11.1046 11.1046 12 10 12H2C0.895431 12 0 11.1046 0 10V2ZM3.5 6C3.5 5.44772 3.94772 5 4.5 5H6C6.55228 5 7 5.44772 7 6V9C7 9.55228 6.55228 10 6 10C5.44772 10 5 9.55228 5 9V7H4.5C3.94772 7 3.5 6.55228 3.5 6ZM6 4C6.55228 4 7 3.55228 7 3C7 2.44772 6.55228 2 6 2C5.44772 2 5 2.44772 5 3C5 3.55228 5.44772 4 6 4Z" fill="currentColor"/>
</svg>
