<svg viewBox="0 0 16 16" fill="none" xmlns="http://www.w3.org/2000/svg">
<path d="M13.3617 2H9.46196C9.29267 2 9.13032 2.06725 9.01061 2.18695C8.89091 2.30666 8.82366 2.46901 8.82366 2.6383C8.82366 2.80759 8.89091 2.96994 9.01061 3.08964C9.13032 3.20935 9.29267 3.2766 9.46196 3.2766H10.0165C10.0394 3.2766 10.0618 3.28275 10.0815 3.29439C10.1012 3.30603 10.1174 3.32274 10.1284 3.34278C10.1394 3.36282 10.1448 3.38544 10.1441 3.40829C10.1434 3.43114 10.1365 3.45338 10.1243 3.47268L4.31319 12.6054C4.29009 12.6416 4.25823 12.6714 4.22057 12.692C4.1829 12.7127 4.14064 12.7234 4.0977 12.7234H2.6383C2.46901 12.7234 2.30666 12.7907 2.18695 12.9104C2.06725 13.0301 2 13.1924 2 13.3617C2 13.531 2.06725 13.6933 2.18695 13.813C2.30666 13.9328 2.46901 14 2.6383 14H6.53804C6.70733 14 6.86968 13.9328 6.98939 13.813C7.10909 13.6933 7.17634 13.531 7.17634 13.3617C7.17634 13.1924 7.10909 13.0301 6.98939 12.9104C6.86968 12.7907 6.70733 12.7234 6.53804 12.7234H5.98349C5.96063 12.7234 5.93819 12.7173 5.91851 12.7056C5.89883 12.694 5.88265 12.6773 5.87164 12.6572C5.86063 12.6372 5.8552 12.6146 5.85592 12.5917C5.85664 12.5689 5.86349 12.5466 5.87574 12.5273L11.6868 3.39506C11.7098 3.35877 11.7417 3.32889 11.7794 3.30818C11.817 3.28747 11.8593 3.27661 11.9023 3.2766H13.3617C13.531 3.2766 13.6933 3.20935 13.813 3.08964C13.9328 2.96994 14 2.80759 14 2.6383C14 2.46901 13.9328 2.30666 13.813 2.18695C13.6933 2.06725 13.531 2 13.3617 2Z" fill="currentColor"/>
</svg>
