<svg viewBox="0 0 12 12" fill="none" xmlns="http://www.w3.org/2000/svg">
<path fill-rule="evenodd" clip-rule="evenodd" d="M2 0C0.895431 0 0 0.895431 0 2V9.99857L3.29421 7.41026L3.72794 7.06948L4.18247 7.38197L6.49631 8.97273L9.22202 6.14606L9.7619 5.58619L10.3018 6.14606L12 7.90717V2C12 0.895431 11.1046 0 10 0H2ZM2 12C1.45676 12 0.964101 11.7834 0.603673 11.4319L3.78721 8.93052L5.44078 10.0674L3.57715 12H2ZM11.9989 10.067L9.7619 7.74715L5.66094 12H10C11.0822 12 11.9636 11.1405 11.9989 10.067ZM3.5 5C4.32843 5 5 4.32843 5 3.5C5 2.67157 4.32843 2 3.5 2C2.67157 2 2 2.67157 2 3.5C2 4.32843 2.67157 5 3.5 5Z" fill="currentColor"/>
</svg>
