<svg viewBox="0 0 16 16" fill="none" xmlns="http://www.w3.org/2000/svg">
<path d="M11.2795 3.96607C10.9521 3.96141 10.627 4.02188 10.3232 4.14396C10.0193 4.26603 9.74276 4.44728 9.50957 4.67718C9.27639 4.90707 9.09122 5.18102 8.96483 5.4831C8.83845 5.78518 8.77336 6.10937 8.77336 6.43682C8.77336 6.76427 8.83845 7.08846 8.96483 7.39054C9.09122 7.69262 9.27639 7.96657 9.50957 8.19646C9.74276 8.42636 10.0193 8.60761 10.3232 8.72968C10.627 8.85176 10.9521 8.91223 11.2795 8.90757C11.4675 8.9069 11.6547 8.88322 11.837 8.83707C11.8608 8.83123 11.8858 8.83251 11.9089 8.84076C11.932 8.849 11.9521 8.86386 11.9668 8.88346C11.9815 8.90307 11.9901 8.92657 11.9916 8.95104C11.9931 8.9755 11.9873 8.99986 11.975 9.02107C11.6837 9.54757 11.2585 9.98777 10.7424 10.2971C10.2263 10.6064 9.63765 10.7739 9.03601 10.7826C8.87025 10.7826 8.71128 10.8484 8.59407 10.9656C8.47686 11.0828 8.41101 11.2418 8.41101 11.4076C8.41101 11.5733 8.47686 11.7323 8.59407 11.8495C8.71128 11.9667 8.87025 12.0326 9.03601 12.0326C10.3201 11.9957 11.5372 11.4514 12.4207 10.5189C13.3043 9.58641 13.7823 8.34176 13.75 7.05757V6.43657C13.7492 5.7816 13.4887 5.15368 13.0255 4.69054C12.5624 4.2274 11.9345 3.96686 11.2795 3.96607Z" fill="currentColor"/>
<path d="M5.118 3.96606C4.4688 3.9753 3.84933 4.23967 3.3935 4.70203C2.93768 5.16438 2.68215 5.78755 2.68215 6.43681C2.68215 7.08608 2.93768 7.70925 3.3935 8.1716C3.84933 8.63396 4.4688 8.89833 5.118 8.90756C5.30602 8.90694 5.49325 8.88326 5.6755 8.83706C5.69934 8.83109 5.72441 8.83227 5.74758 8.84047C5.77074 8.84866 5.79098 8.86351 5.80576 8.88314C5.82054 8.90277 5.8292 8.92633 5.83067 8.95086C5.83213 8.97539 5.82634 8.99981 5.814 9.02106C5.52273 9.54757 5.09751 9.98776 4.58141 10.2971C4.06531 10.6064 3.47664 10.7739 2.875 10.7826C2.70924 10.7826 2.55027 10.8484 2.43306 10.9656C2.31585 11.0828 2.25 11.2418 2.25 11.4076C2.25 11.5733 2.31585 11.7323 2.43306 11.8495C2.55027 11.9667 2.70924 12.0326 2.875 12.0326C4.15903 11.9955 5.37605 11.4512 6.25959 10.5187C7.14312 9.58629 7.62115 8.34172 7.589 7.05756V6.43656C7.58821 5.7815 7.3276 5.15351 6.86435 4.69036C6.40111 4.22721 5.77306 3.96673 5.118 3.96606Z" fill="currentColor"/>
</svg>
