<svg viewBox="0 0 12 12" fill="none" xmlns="http://www.w3.org/2000/svg">
<path fill-rule="evenodd" clip-rule="evenodd" d="M2 0C0.895431 0 0 0.895431 0 2V10C0 11.1046 0.895431 12 2 12H10C11.1046 12 12 11.1046 12 10V2C12 0.895431 11.1046 0 10 0H2ZM6.03715 10C6.53978 10 6.94537 9.62667 6.94537 9.16667C6.94537 8.70633 6.53978 8.33333 6.03715 8.33333C5.53633 8.33333 5.12892 8.70667 5.12892 9.16667C5.12892 9.62667 5.53633 10 6.03715 10ZM3.5 4.66667C3.5 2.89767 4.60157 2 6.06586 2C7.49998 2 8.51687 2.81167 8.49979 4.13267C8.48707 5.03967 7.88558 5.635 7.40185 6.11367C6.72679 6.78122 6.7297 7.13238 6.73331 7.56826C6.73358 7.60054 6.73385 7.63329 6.73385 7.66667H5.30083C5.30083 7.62986 5.30078 7.59383 5.30073 7.55852C5.29943 6.58737 5.29886 6.16216 6.32426 5.268L6.32582 5.26663C6.73395 4.91028 7.05653 4.62863 7.01188 4.074C6.97045 3.54633 6.48962 3.27033 6.03642 3.27033C5.26666 3.27033 4.93739 3.89867 4.93739 4.66667H3.5Z" fill="currentColor"/>
</svg>
