<svg viewBox="0 0 16 16" fill="none" xmlns="http://www.w3.org/2000/svg">
<path d="M11.698 12.354C11.293 12.323 11.3315 11.948 11.7135 11.8775C12.348 11.7605 12.627 11.4205 12.627 11.106C12.627 10.8415 12.429 10.595 12.078 10.5155C11.6595 10.421 11.746 10.137 12.0935 10.1095C12.6595 10.0645 12.9375 9.7275 12.9375 9.4045C12.9375 9.122 12.725 8.8505 12.307 8.7945C11.8785 8.737 12.018 8.4275 12.3225 8.3335C12.583 8.2535 12.9995 8.0835 12.9995 7.5785C12.9995 7.2425 12.7495 6.7975 11.864 6.8335C11.25 6.8585 10.0305 6.7345 9.3745 6.391C9.828 4.5625 9.719 2 8.531 2C7.734 2 7.583 2.9035 7.3435 3.7345C6.4845 6.719 4.7655 7.2655 3 7.536V12.5C6.344 12.5 7.25 14 9.7525 14C11.352 14 12.1785 13.1325 12.1785 12.667C12.178 12.5 12.042 12.381 11.698 12.354Z" fill="currentColor"/>
</svg>
