<svg viewBox="0 0 16 16" fill="none" xmlns="http://www.w3.org/2000/svg">
<path d="M4.30151 3.646C4.70651 3.677 4.66801 4.052 4.28601 4.1225C3.65151 4.2395 3.37251 4.5795 3.37251 4.894C3.37251 5.1585 3.57051 5.405 3.92151 5.4845C4.34001 5.579 4.25351 5.863 3.90601 5.8905C3.34001 5.9355 3.06201 6.2725 3.06201 6.5955C3.06201 6.878 3.27451 7.1495 3.69251 7.2055C4.12101 7.263 3.98151 7.5725 3.67701 7.6665C3.41651 7.7465 3.00001 7.9165 3.00001 8.4215C3.00001 8.7575 3.25001 9.2025 4.13551 9.1665C4.74951 9.1415 5.96901 9.2655 6.62501 9.609C6.17151 11.4375 6.28051 14 7.46851 14C8.26551 14 8.41651 13.0965 8.65601 12.2655C9.51501 9.281 11.234 8.7345 12.9995 8.464L12.9995 3.5C9.65551 3.5 8.74951 2 6.24701 2C4.64751 2 3.82101 2.8675 3.82101 3.333C3.82151 3.5 3.95751 3.619 4.30151 3.646Z" fill="currentColor"/>
</svg>
