<svg viewBox="0 0 48 32">
  <path d="M27.5094 0.794691C28.0358 0.268306 28.8892 0.268306 29.4159 0.794691L47.6048 18.9867C48.1312 19.5131 48.1312 20.3668 47.6048 20.8935L45.9418 22.5565L25.8467 2.45836L27.5094 0.794691Z"/>
  <path d="M31.3344 12.0342L20.2589 0.962095C19.7325 0.43571 18.8782 0.43571 18.3524 0.962707L0.394712 18.9314C-0.131673 19.4581 -0.131673 20.3119 0.395325 20.8383L10.5185 30.9578C11.0449 31.4838 11.8971 31.4845 12.4244 30.9584L23.9791 19.426L35.5679 30.9651C36.0933 31.4884 36.9422 31.4891 37.4689 30.9663L43.7977 24.6843L31.3344 12.0342ZM15.0811 19.6955C12.9961 19.6955 11.3735 17.9978 11.3735 15.9878C11.3735 13.9769 12.9961 12.2798 15.0811 12.2798C17.1661 12.2798 18.7888 13.9772 18.7888 15.9878C18.7882 17.9984 17.1655 19.6955 15.0811 19.6955Z"/>
  <path d="M16.4106 16.3086C16.4069 16.1346 16.3365 15.9788 16.199 15.8413C16.0964 15.7384 15.9855 15.6784 15.8673 15.6609C15.747 15.6419 15.6322 15.6487 15.5225 15.6817C15.4145 15.7133 15.2779 15.7644 15.1125 15.8358C14.9609 15.9034 14.8452 15.9515 14.7653 15.9794C14.685 16.0036 14.6146 16.0131 14.5537 16.0082C14.4946 16.0011 14.4389 15.9714 14.3865 15.9194C14.3133 15.8462 14.2821 15.7644 14.2925 15.6738C14.3029 15.5831 14.324 15.4858 14.498 15.3115L14.844 14.9655L14.6143 14.7358L14.3605 14.9897C14.3482 14.9949 14.3387 14.994 14.3317 14.9872L14.1409 14.7861C14.1323 14.7775 14.1219 14.7738 14.1094 14.7756C14.0971 14.7738 14.0867 14.7775 14.0781 14.7861L13.8742 14.9897C13.8656 14.9986 13.8613 15.0096 13.8613 15.0237C13.8613 15.0341 13.8656 15.0436 13.8742 15.0525L14.0726 15.2405C14.0794 15.2475 14.0803 15.257 14.0751 15.2693C13.9566 15.4294 13.8993 15.5932 13.9027 15.7604C13.9079 15.9258 13.9768 16.0746 14.1091 16.2069C14.2116 16.3098 14.3225 16.3716 14.4407 16.3922C14.5574 16.4115 14.6722 16.4044 14.7852 16.3716C14.8985 16.3386 15.036 16.2862 15.198 16.2149C15.3459 16.1539 15.4601 16.1111 15.54 16.0869C15.6202 16.059 15.6916 16.0486 15.7544 16.0553C15.8153 16.0605 15.8701 16.0875 15.9188 16.1365C15.9901 16.2075 16.0223 16.2923 16.0153 16.3897C16.01 16.4852 15.9693 16.5995 15.8664 16.7021L15.3618 17.1886L15.5798 17.4235L15.9264 17.1108C15.9387 17.1056 15.9482 17.1066 15.9552 17.1136L16.1276 17.2912C16.1362 17.2998 16.146 17.3041 16.1564 17.3041C16.1702 17.3041 16.1818 17.2998 16.1904 17.2912L16.3943 17.0876C16.4029 17.0787 16.4066 17.0686 16.4048 17.056C16.4063 17.0438 16.4029 17.0334 16.3943 17.0245L16.2195 16.8545C16.2125 16.8478 16.2115 16.838 16.2167 16.8258C16.3496 16.6549 16.4142 16.4825 16.4106 16.3086Z"/>
</svg>
