<svg viewBox="0 0 80 52" fill="none" xmlns="http://www.w3.org/2000/svg">
    <path d="M45.8497 0.657981C46.727 -0.219327 48.1494 -0.219327 49.0272 0.657981L79.342 30.9779C80.2193 31.8552 80.2193 33.2781 79.342 34.1559L76.5703 36.9277L43.0784 3.43076L45.8497 0.657981Z" fill="currentColor"/>
    <path d="M52.2241 19.3907L33.7649 0.937151C32.8876 0.0598426 31.4637 0.0598421 30.5874 0.938171L0.657853 30.8861C-0.219455 31.7639 -0.219454 33.1868 0.658874 34.0641L17.5308 50.9299C18.4082 51.8067 19.8285 51.8077 20.7073 50.931L39.9652 31.7103L59.2798 50.9422C60.1556 51.8144 61.5703 51.8154 62.4481 50.9442L72.9962 40.4742L52.2241 19.3907ZM25.1352 32.1594C21.6602 32.1594 18.9558 29.33 18.9558 25.98C18.9558 22.6285 21.6602 19.8 25.1352 19.8C28.6102 19.8 31.3146 22.629 31.3146 25.98C31.3136 29.331 28.6092 32.1594 25.1352 32.1594Z" fill="currentColor"/>
    <path d="M27.3507 26.5143C27.3446 26.2244 27.2272 25.9646 26.998 25.7355C26.8271 25.564 26.6423 25.464 26.4453 25.4349C26.2447 25.4032 26.0533 25.4145 25.8706 25.4696C25.6905 25.5221 25.4629 25.6074 25.1873 25.7263C24.9346 25.8391 24.7417 25.9192 24.6085 25.9656C24.4748 26.006 24.3574 26.0218 24.2559 26.0136C24.1574 26.0019 24.0645 25.9524 23.9772 25.8656C23.8552 25.7436 23.8032 25.6074 23.8205 25.4563C23.8379 25.3052 23.8731 25.1429 24.163 24.8525L24.7397 24.2758L24.3569 23.8931L23.9338 24.3162C23.9134 24.3248 23.8976 24.3233 23.8859 24.3121L23.5679 23.9768C23.5536 23.9625 23.5363 23.9564 23.5153 23.9594C23.4949 23.9564 23.4776 23.9625 23.4633 23.9768L23.1234 24.3162C23.1091 24.331 23.1019 24.3493 23.1019 24.3728C23.1019 24.3902 23.1091 24.406 23.1234 24.4208L23.4541 24.7341C23.4653 24.7459 23.4668 24.7617 23.4582 24.7821C23.2607 25.049 23.1652 25.3221 23.1708 25.6007C23.1795 25.8763 23.2943 26.1244 23.5148 26.3448C23.6858 26.5163 23.8705 26.6194 24.0675 26.6536C24.262 26.6858 24.4534 26.674 24.6417 26.6194C24.8305 26.5643 25.0597 26.477 25.3297 26.3581C25.5762 26.2565 25.7665 26.1851 25.8997 26.1448C26.0334 26.0983 26.1524 26.081 26.257 26.0922C26.3585 26.1009 26.4499 26.1458 26.531 26.2275C26.65 26.3459 26.7035 26.4872 26.6918 26.6495C26.6831 26.8088 26.6153 26.9991 26.4438 27.1701L25.6027 27.981L25.9661 28.3725L26.5438 27.8514C26.5642 27.8427 26.58 27.8443 26.5918 27.856L26.8791 28.152C26.8934 28.1663 26.9097 28.1735 26.9271 28.1735C26.95 28.1735 26.9694 28.1663 26.9837 28.152L27.3236 27.8126C27.3379 27.7978 27.344 27.781 27.341 27.7601C27.3435 27.7396 27.3379 27.7223 27.3236 27.7075L27.0322 27.4242C27.0205 27.413 27.0189 27.3967 27.0276 27.3763C27.2491 27.0915 27.3568 26.8042 27.3507 26.5143Z" fill="currentColor"/>
</svg>
