<svg width="56" height="56" viewBox="0 0 56 56" fill="none" xmlns="http://www.w3.org/2000/svg">
    <g clip-path="url(#clip0)">
        <rect width="56" height="56" fill="#283341"/>
        <path opacity="0.1" d="M15 30C15.5523 30 16 29.5523 16 29C16 28.4477 15.5523 28 15 28C14.4477 28 14 28.4477 14 29C14 29.5523 14.4477 30 15 30Z" fill="white"/>
        <path opacity="0.1" d="M29 30C29.5523 30 30 29.5523 30 29C30 28.4477 29.5523 28 29 28C28.4477 28 28 28.4477 28 29C28 29.5523 28.4477 30 29 30Z" fill="white"/>
        <path opacity="0.1" d="M43 30C43.5523 30 44 29.5523 44 29C44 28.4477 43.5523 28 43 28C42.4477 28 42 28.4477 42 29C42 29.5523 42.4477 30 43 30Z" fill="white"/>
        <path opacity="0.3" d="M15 16C15.5523 16 16 15.5523 16 15C16 14.4477 15.5523 14 15 14C14.4477 14 14 14.4477 14 15C14 15.5523 14.4477 16 15 16Z" fill="white"/>
        <path opacity="0.1" d="M29 16C29.5523 16 30 15.5523 30 15C30 14.4477 29.5523 14 29 14C28.4477 14 28 14.4477 28 15C28 15.5523 28.4477 16 29 16Z" fill="white"/>
        <path opacity="0.1" d="M43 16C43.5523 16 44 15.5523 44 15C44 14.4477 43.5523 14 43 14C42.4477 14 42 14.4477 42 15C42 15.5523 42.4477 16 43 16Z" fill="white"/>
        <path opacity="0.1" d="M15 44C15.5523 44 16 43.5523 16 43C16 42.4477 15.5523 42 15 42C14.4477 42 14 42.4477 14 43C14 43.5523 14.4477 44 15 44Z" fill="white"/>
        <path opacity="0.1" d="M29 44C29.5523 44 30 43.5523 30 43C30 42.4477 29.5523 42 29 42C28.4477 42 28 42.4477 28 43C28 43.5523 28.4477 44 29 44Z" fill="white"/>
        <path opacity="0.1" d="M43 44C43.5523 44 44 43.5523 44 43C44 42.4477 43.5523 42 43 42C42.4477 42 42 42.4477 42 43C42 43.5523 42.4477 44 43 44Z" fill="white"/>
        <path opacity="0.1" d="M15 2C15.5523 2 16 1.55228 16 1C16 0.447715 15.5523 0 15 0C14.4477 0 14 0.447715 14 1C14 1.55228 14.4477 2 15 2Z" fill="white"/>
        <path opacity="0.1" d="M29 2C29.5523 2 30 1.55228 30 1C30 0.447715 29.5523 0 29 0C28.4477 0 28 0.447715 28 1C28 1.55228 28.4477 2 29 2Z" fill="white"/>
        <path opacity="0.1" d="M43 2C43.5523 2 44 1.55228 44 1C44 0.447715 43.5523 0 43 0C42.4477 0 42 0.447715 42 1C42 1.55228 42.4477 2 43 2Z" fill="white"/>
        <path opacity="0.1" d="M1 30C1.55228 30 2 29.5523 2 29C2 28.4477 1.55228 28 1 28C0.447715 28 0 28.4477 0 29C0 29.5523 0.447715 30 1 30Z" fill="white"/>
        <path opacity="0.1" d="M1 16C1.55228 16 2 15.5523 2 15C2 14.4477 1.55228 14 1 14C0.447715 14 0 14.4477 0 15C0 15.5523 0.447715 16 1 16Z" fill="white"/>
        <path opacity="0.1" d="M1 44C1.55228 44 2 43.5523 2 43C2 42.4477 1.55228 42 1 42C0.447715 42 0 42.4477 0 43C0 43.5523 0.447715 44 1 44Z" fill="white"/>
        <path opacity="0.1" d="M1 2C1.55228 2 2 1.55228 2 1C2 0.447715 1.55228 0 1 0C0.447715 0 0 0.447715 0 1C0 1.55228 0.447715 2 1 2Z" fill="white"/>
    </g>
    <defs>
        <clipPath id="clip0">
            <rect width="56" height="56" fill="white"/>
        </clipPath>
    </defs>
</svg>
