<svg viewBox="0 0 17 17" fill="none" xmlns="http://www.w3.org/2000/svg">
<g clip-path="url(#clip0)">
<path d="M8.3999 0.5C3.98257 0.5 0.399902 4.17255 0.399902 8.70224C0.399902 12.3263 2.6919 15.4007 5.87124 16.4855C6.27057 16.5614 6.3999 16.3071 6.3999 16.0911V14.5641C4.17457 15.0603 3.71124 13.5962 3.71124 13.5962C3.34724 12.6482 2.82257 12.396 2.82257 12.396C2.09657 11.8868 2.8779 11.8977 2.8779 11.8977C3.68124 11.9551 4.1039 12.7432 4.1039 12.7432C4.81724 13.9968 5.97524 13.6345 6.4319 13.4247C6.50324 12.895 6.71057 12.5327 6.9399 12.3283C5.16324 12.1198 3.29524 11.4165 3.29524 8.27436C3.29524 7.37826 3.6079 6.6469 4.11924 6.07274C4.03657 5.86563 3.76257 5.03106 4.19724 3.90188C4.19724 3.90188 4.86924 3.68179 6.3979 4.74261C7.0359 4.56079 7.7199 4.46989 8.3999 4.46647C9.0799 4.46989 9.76457 4.56079 10.4039 4.74261C11.9312 3.68179 12.6019 3.90188 12.6019 3.90188C13.0372 5.03174 12.7632 5.86632 12.6806 6.07274C13.1939 6.6469 13.5039 7.37895 13.5039 8.27436C13.5039 11.4247 11.6326 12.1185 9.85124 12.3215C10.1379 12.5758 10.3999 13.0747 10.3999 13.8403V16.0911C10.3999 16.3091 10.5279 16.5655 10.9339 16.4848C14.1106 15.3987 16.3999 12.3249 16.3999 8.70224C16.3999 4.17255 12.8179 0.5 8.3999 0.5Z" fill="currentColor"/>
</g>
<defs>
<clipPath id="clip0">
<rect width="16" height="16" fill="currentColor" transform="translate(0.399902 0.5)"/>
</clipPath>
</defs>
</svg>
