<svg viewBox="0 0 16 16" fill="none" xmlns="http://www.w3.org/2000/svg">
<path d="M14.5938 8.46875H9.875C9.09959 8.46875 8.46875 9.09959 8.46875 9.875C8.46875 10.6504 9.09959 11.2812 9.875 11.2812H14.5938C15.3692 11.2812 16 10.6504 16 9.875C16 9.09959 15.3692 8.46875 14.5938 8.46875Z" fill="currentColor"/>
<path d="M6.125 4.71875H1.40625C0.630844 4.71875 0 5.34959 0 6.125C0 6.90041 0.630844 7.53125 1.40625 7.53125H6.125C6.90041 7.53125 7.53125 6.90041 7.53125 6.125C7.53125 5.34959 6.90041 4.71875 6.125 4.71875Z" fill="currentColor"/>
<path d="M9.875 7.53125C10.6504 7.53125 11.2812 6.90041 11.2812 6.125V1.40625C11.2812 0.630844 10.6504 0 9.875 0C9.09959 0 8.46875 0.630844 8.46875 1.40625V6.125C8.46875 6.90041 9.09959 7.53125 9.875 7.53125Z" fill="currentColor"/>
<path d="M6.125 8.46875C5.34959 8.46875 4.71875 9.09959 4.71875 9.875V14.5938C4.71875 15.3692 5.34959 16 6.125 16C6.90041 16 7.53125 15.3692 7.53125 14.5938V9.875C7.53125 9.09959 6.90041 8.46875 6.125 8.46875Z" fill="currentColor"/>
<path d="M12.7188 7.53125H14.125C15.1589 7.53125 16 6.69012 16 5.65625C16 4.62238 15.1589 3.78125 14.125 3.78125C13.0911 3.78125 12.25 4.62238 12.25 5.65625V7.0625C12.25 7.32137 12.4599 7.53125 12.7188 7.53125Z" fill="currentColor"/>
<path d="M3.28125 8.46875H1.875C0.841125 8.46875 0 9.30988 0 10.3438C0 11.3776 0.841125 12.2188 1.875 12.2188C2.90887 12.2188 3.75 11.3776 3.75 10.3438V8.9375C3.75 8.67862 3.54012 8.46875 3.28125 8.46875Z" fill="currentColor"/>
<path d="M5.65625 0C4.62238 0 3.78125 0.841125 3.78125 1.875C3.78125 2.90887 4.62238 3.75 5.65625 3.75H7.0625C7.32137 3.75 7.53125 3.54012 7.53125 3.28125V1.875C7.53125 0.841125 6.69012 0 5.65625 0Z" fill="currentColor"/>
<path d="M10.3438 12.25H8.9375C8.67862 12.25 8.46875 12.4599 8.46875 12.7188V14.125C8.46875 15.1589 9.30988 16 10.3438 16C11.3776 16 12.2188 15.1589 12.2188 14.125C12.2188 13.0911 11.3776 12.25 10.3438 12.25Z" fill="currentColor"/>
</svg>
