<svg viewBox="0 0 32 32" fill="none" xmlns="http://www.w3.org/2000/svg">
    <path d="M29.1875 16.9375H19.75C18.1992 16.9375 16.9375 18.1992 16.9375 19.75C16.9375 21.3008 18.1992 22.5625 19.75 22.5625H29.1875C30.7383 22.5625 32 21.3008 32 19.75C32 18.1992 30.7383 16.9375 29.1875 16.9375Z" fill="#ECB22E"/>
    <path d="M12.25 9.4375H2.8125C1.26169 9.4375 0 10.6992 0 12.25C0 13.8008 1.26169 15.0625 2.8125 15.0625H12.25C13.8008 15.0625 15.0625 13.8008 15.0625 12.25C15.0625 10.6992 13.8008 9.4375 12.25 9.4375Z" fill="#36C5F0"/>
    <path d="M19.75 15.0625C21.3008 15.0625 22.5625 13.8008 22.5625 12.25V2.8125C22.5625 1.26169 21.3008 0 19.75 0C18.1992 0 16.9375 1.26169 16.9375 2.8125V12.25C16.9375 13.8008 18.1992 15.0625 19.75 15.0625Z" fill="#2EB67D"/>
    <path d="M12.25 16.9375C10.6992 16.9375 9.4375 18.1992 9.4375 19.75V29.1875C9.4375 30.7383 10.6992 32 12.25 32C13.8008 32 15.0625 30.7383 15.0625 29.1875V19.75C15.0625 18.1992 13.8008 16.9375 12.25 16.9375Z" fill="#E01E5A"/>
    <path d="M25.4375 15.0625H28.25C30.3177 15.0625 32 13.3802 32 11.3125C32 9.24475 30.3177 7.5625 28.25 7.5625C26.1823 7.5625 24.5 9.24475 24.5 11.3125V14.125C24.5 14.6427 24.9197 15.0625 25.4375 15.0625Z" fill="#2EB67D"/>
    <path d="M6.5625 16.9375H3.75C1.68225 16.9375 0 18.6198 0 20.6875C0 22.7552 1.68225 24.4375 3.75 24.4375C5.81775 24.4375 7.5 22.7552 7.5 20.6875V17.875C7.5 17.3572 7.08025 16.9375 6.5625 16.9375Z" fill="#E01E5A"/>
    <path d="M11.3125 0C9.24475 0 7.5625 1.68225 7.5625 3.75C7.5625 5.81775 9.24475 7.5 11.3125 7.5H14.125C14.6427 7.5 15.0625 7.08025 15.0625 6.5625V3.75C15.0625 1.68225 13.3802 0 11.3125 0Z" fill="#36C5F0"/>
    <path d="M20.6875 24.5H17.875C17.3572 24.5 16.9375 24.9197 16.9375 25.4375V28.25C16.9375 30.3177 18.6198 32 20.6875 32C22.7552 32 24.4375 30.3177 24.4375 28.25C24.4375 26.1823 22.7552 24.5 20.6875 24.5Z" fill="#ECB22E"/>
</svg>
