<svg viewBox="0 0 17 17" fill="none" xmlns="http://www.w3.org/2000/svg">
<g clip-path="url(#clip0)">
<path d="M16.3999 3.539C15.8049 3.8 15.1709 3.973 14.5099 4.057C15.1899 3.651 15.7089 3.013 15.9529 2.244C15.3189 2.622 14.6189 2.889 13.8729 3.038C13.2709 2.397 12.4129 2 11.4769 2C9.6609 2 8.1989 3.474 8.1989 5.281C8.1989 5.541 8.2209 5.791 8.2749 6.029C5.5479 5.896 3.1349 4.589 1.5139 2.598C1.2309 3.089 1.0649 3.651 1.0649 4.256C1.0649 5.392 1.6499 6.399 2.5219 6.982C1.9949 6.972 1.4779 6.819 1.0399 6.578C1.0399 6.588 1.0399 6.601 1.0399 6.614C1.0399 8.208 2.1769 9.532 3.6679 9.837C3.4009 9.91 3.1099 9.945 2.8079 9.945C2.5979 9.945 2.3859 9.933 2.1869 9.889C2.6119 11.188 3.8179 12.143 5.2519 12.174C4.1359 13.047 2.7189 13.573 1.1849 13.573C0.915902 13.573 0.657902 13.561 0.399902 13.528C1.8529 14.465 3.5749 15 5.4319 15C11.4679 15 14.7679 10 14.7679 5.666C14.7679 5.521 14.7629 5.381 14.7559 5.242C15.4069 4.78 15.9539 4.203 16.3999 3.539Z" fill="currentColor"/>
</g>
<defs>
<clipPath id="clip0">
<rect width="16" height="16" fill="currentColor" transform="translate(0.399902 0.5)"/>
</clipPath>
</defs>
</svg>
