<svg viewBox="0 0 16 16" fill="none" xmlns="http://www.w3.org/2000/svg">
<g clip-path="url(#clip0)">
<path fill-rule="evenodd" clip-rule="evenodd" d="M15.1277 2.85788C15.3761 3.10633 15.5551 3.41553 15.6469 3.7547C16.1754 5.88188 16.0533 9.24146 15.6572 11.4507C15.5654 11.7899 15.3864 12.0991 15.1379 12.3476C14.8895 12.596 14.5803 12.775 14.2411 12.8668C12.9995 13.2054 8.00217 13.2054 8.00217 13.2054C8.00217 13.2054 3.00487 13.2054 1.76324 12.8668C1.42408 12.775 1.11487 12.596 0.866424 12.3476C0.617974 12.0991 0.438946 11.7899 0.347169 11.4507C-0.184371 9.33279 -0.038659 5.97116 0.336908 3.76496C0.428685 3.4258 0.607712 3.11659 0.856163 2.86814C1.10461 2.61969 1.41382 2.44066 1.75298 2.34889C2.99461 2.01026 7.99191 2 7.99191 2C7.99191 2 12.9892 2 14.2308 2.33863C14.57 2.4304 14.8792 2.60943 15.1277 2.85788ZM10.547 7.60272L6.40139 10.0039V5.20155L10.547 7.60272Z" fill="currentColor"/>
</g>
<defs>
<clipPath id="clip0">
<rect width="16" height="16" fill="currentColor"/>
</clipPath>
</defs>
</svg>
