<svg width="32" height="32" viewBox="0 0 32 32" fill="none" xmlns="http://www.w3.org/2000/svg">
<rect width="32" height="32" fill="currentColor" fill-opacity="0.4"/>
<path d="M21.4959 25.0001C22.1404 26.0526 22.9791 26.8262 24.4622 26.8262C25.7082 26.8262 26.5041 26.2034 26.5041 25.343C26.5041 24.3119 25.6864 23.9467 24.3149 23.3468L23.5632 23.0243C21.3933 22.0998 19.9518 20.9417 19.9518 18.4935C19.9518 16.2382 21.6701 14.5214 24.3556 14.5214C26.2674 14.5214 27.6419 15.1868 28.6324 16.929L26.2908 18.4325C25.7752 17.5081 25.2191 17.1439 24.3556 17.1439C23.4748 17.1439 22.9166 17.7026 22.9166 18.4325C22.9166 19.3346 23.4753 19.6998 24.7655 20.2585L25.5172 20.5806C28.0721 21.6762 29.5147 22.7932 29.5147 25.3044C29.5147 28.0117 27.3879 29.4949 24.5318 29.4949C21.7392 29.4949 19.935 28.1641 19.0522 26.4198L21.4959 25.0001ZM10.8734 25.2607C11.3458 26.0988 11.7755 26.8074 12.8086 26.8074C13.7966 26.8074 14.4198 26.4208 14.4198 24.9178V14.6931H17.4268V24.9585C17.4268 28.0721 15.6013 29.4893 12.9366 29.4893C10.529 29.4893 9.13474 28.2433 8.42566 26.7426L10.8734 25.2607Z" fill="currentColor"/>
</svg>
