<svg width="32" height="32" viewBox="0 0 32 32" fill="none" xmlns="http://www.w3.org/2000/svg">
    <path d="M7.55066 11.4109H13.5862V11.8883H8.10391V15.4814H13.2592V15.9588H8.10391V19.9037H13.649V20.3811H7.55066V11.4109ZM14.1268 11.4109H14.7681L17.6098 15.3558L20.5144 11.4109L24.4651 6.39999L17.9745 15.7703L21.3191 20.3811H20.6527L17.6098 16.1849L14.5543 20.3811H13.9005L17.2703 15.7703L14.1268 11.4109ZM21.558 11.8883V11.4109H28.436V11.8883H25.2673V20.3811H24.7141V11.8883H21.558Z" fill="currentColor"/>
    <path d="M0 11.4109H0.691567L10.2279 25.6125L6.28697 20.3811L0.578402 12.0893L0.553254 20.3811H0V11.4109Z" fill="currentColor"/>
    <path d="M28.3803 19.7596C28.4947 19.7596 28.5781 19.6725 28.5781 19.5598C28.5781 19.4472 28.4947 19.36 28.3803 19.36C28.2673 19.36 28.1825 19.4472 28.1825 19.5598C28.1825 19.6725 28.2673 19.7596 28.3803 19.7596ZM28.9239 19.234C28.9239 19.5665 29.1648 19.7838 29.516 19.7838C29.8901 19.7838 30.1162 19.5598 30.1162 19.171V17.8019H29.8148V19.1696C29.8148 19.3855 29.7058 19.5008 29.5133 19.5008C29.3411 19.5008 29.224 19.3935 29.22 19.234H28.9239ZM30.5105 19.2165C30.532 19.5625 30.8213 19.7838 31.2519 19.7838C31.7121 19.7838 32.0001 19.5518 32.0001 19.1817C32.0001 18.8907 31.8359 18.7298 31.4376 18.6373L31.2236 18.585C30.9707 18.526 30.8684 18.4469 30.8684 18.3087C30.8684 18.1344 31.0272 18.0204 31.2654 18.0204C31.4914 18.0204 31.6475 18.1317 31.6758 18.3101H31.9691C31.9516 17.9842 31.6637 17.7549 31.2694 17.7549C30.8455 17.7549 30.5629 17.9842 30.5629 18.3289C30.5629 18.6131 30.7231 18.7821 31.0743 18.8639L31.3246 18.9242C31.5816 18.9846 31.6946 19.0731 31.6946 19.2206C31.6946 19.3922 31.517 19.5169 31.2748 19.5169C31.0151 19.5169 30.8348 19.4003 30.8092 19.2165H30.5105Z" fill="currentColor"/>
</svg>
