<svg width="32" height="30" viewBox="0 0 32 30" fill="none" xmlns="http://www.w3.org/2000/svg">
    <path d="M32 14.8519C32 12.7321 29.3453 10.7231 25.2752 9.4773C26.2144 5.32891 25.797 2.02846 23.9576 0.971796C23.5336 0.723936 23.0379 0.606529 22.4965 0.606529V2.06107C22.7966 2.06107 23.0379 2.11978 23.2401 2.23066C24.1272 2.73943 24.512 4.67665 24.212 7.16829C24.1402 7.78142 24.0228 8.42716 23.8793 9.08594C22.6009 8.77286 21.2051 8.53152 19.7375 8.37497C18.8569 7.16829 17.9437 6.07249 17.0241 5.11366C19.1504 3.13731 21.1464 2.05455 22.5031 2.05455V0.600006C20.7093 0.600006 18.3612 1.87844 15.987 4.09613C13.6127 1.89149 11.2646 0.626097 9.47085 0.626097V2.08064C10.821 2.08064 12.8235 3.15688 14.9499 5.12019C14.0367 6.07901 13.1235 7.16829 12.256 8.37497C10.7819 8.53152 9.38606 8.77285 8.10762 9.09246C7.9576 8.4402 7.84672 7.80751 7.76845 7.2009C7.46188 4.70926 7.8402 2.77204 8.72075 2.25675C8.91643 2.13935 9.17081 2.08716 9.47085 2.08716V0.632619C8.92295 0.632619 8.42723 0.750026 7.99674 0.997886C6.16388 2.05455 5.75296 5.34848 6.69874 9.48382C2.64166 10.7362 0 12.7386 0 14.8519C0 16.9718 2.65471 18.9808 6.72483 20.2266C5.78557 24.375 6.20302 27.6754 8.0424 28.7321C8.46637 28.9799 8.96209 29.0974 9.50999 29.0974C11.3037 29.0974 13.6519 27.8189 16.0261 25.6012C18.4003 27.8059 20.7485 29.0713 22.5422 29.0713C23.0901 29.0713 23.5858 28.9539 24.0163 28.706C25.8492 27.6493 26.2601 24.3554 25.3143 20.2201C29.3583 18.9742 32 16.9653 32 14.8519ZM23.5075 10.5014C23.2662 11.3428 22.9662 12.2103 22.627 13.0778C22.3596 12.556 22.0791 12.0342 21.7725 11.5124C21.4725 10.9905 21.1529 10.4818 20.8333 9.98606C21.7595 10.123 22.6531 10.2926 23.5075 10.5014ZM20.5202 17.4479C20.0114 18.3285 19.4896 19.1634 18.9482 19.9396C17.9764 20.0244 16.9914 20.07 16 20.07C15.0151 20.07 14.0302 20.0244 13.0648 19.9461C12.5234 19.1699 11.9951 18.3415 11.4863 17.4675C10.9906 16.6131 10.5406 15.7455 10.1296 14.8715C10.534 13.9975 10.9906 13.1234 11.4798 12.269C11.9886 11.3884 12.5104 10.5535 13.0518 9.77734C14.0236 9.69254 15.0086 9.64689 16 9.64689C16.9849 9.64689 17.9698 9.69255 18.9352 9.77082C19.4766 10.547 20.0049 11.3754 20.5137 12.2494C21.0094 13.1039 21.4594 13.9714 21.8704 14.8454C21.4594 15.7194 21.0094 16.5935 20.5202 17.4479ZM22.627 16.6C22.9792 17.474 23.2793 18.3481 23.5271 19.196C22.6726 19.4047 21.7725 19.5808 20.8398 19.7178C21.1594 19.2156 21.479 18.7003 21.779 18.172C22.0791 17.6501 22.3596 17.1218 22.627 16.6ZM16.013 23.5596C15.4064 22.9335 14.7998 22.2356 14.1998 21.4724C14.7868 21.4985 15.3869 21.5181 15.9935 21.5181C16.6066 21.5181 17.2132 21.505 17.8068 21.4724C17.2197 22.2356 16.6131 22.9335 16.013 23.5596ZM11.1602 19.7178C10.234 19.5808 9.3404 19.4113 8.48594 19.2025C8.72727 18.3611 9.02731 17.4936 9.36649 16.6261C9.63392 17.1479 9.91439 17.6697 10.221 18.1915C10.5275 18.7133 10.8406 19.2221 11.1602 19.7178ZM15.9804 6.14424C16.587 6.77041 17.1936 7.46833 17.7937 8.23148C17.2067 8.20539 16.6066 8.18582 16 8.18582C15.3869 8.18582 14.7803 8.19886 14.1867 8.23148C14.7737 7.46833 15.3804 6.77041 15.9804 6.14424ZM11.1537 9.98606C10.8341 10.4883 10.5145 11.0036 10.2144 11.5319C9.91439 12.0537 9.63392 12.5755 9.36649 13.0974C9.01427 12.2233 8.71423 11.3493 8.46637 10.5014C9.32083 10.2991 10.221 10.123 11.1537 9.98606ZM5.25071 18.1524C2.9417 17.1675 1.44802 15.876 1.44802 14.8519C1.44802 13.8279 2.9417 12.5299 5.25071 11.5515C5.81166 11.3102 6.42479 11.0949 7.05748 10.8927C7.42927 12.1711 7.91847 13.5018 8.52507 14.865C7.92499 16.2217 7.44232 17.5458 7.07705 18.8177C6.43131 18.6155 5.81818 18.3937 5.25071 18.1524ZM8.75989 27.4732C7.87281 26.9645 7.48798 25.0272 7.78802 22.5356C7.85976 21.9225 7.97717 21.2767 8.12067 20.6179C9.39911 20.931 10.7949 21.1724 12.2625 21.3289C13.1431 22.5356 14.0563 23.6314 14.9759 24.5902C12.8496 26.5666 10.8536 27.6493 9.49694 27.6493C9.20342 27.6428 8.95557 27.5841 8.75989 27.4732ZM24.2316 22.503C24.5381 24.9946 24.1598 26.9318 23.2792 27.4471C23.0836 27.5645 22.8292 27.6167 22.5291 27.6167C21.179 27.6167 19.1765 26.5405 17.0501 24.5772C17.9633 23.6183 18.8765 22.5291 19.744 21.3224C21.2181 21.1658 22.6139 20.9245 23.8924 20.6049C24.0424 21.2637 24.1598 21.8964 24.2316 22.503ZM26.7428 18.1524C26.1818 18.3937 25.5687 18.609 24.936 18.8112C24.5642 17.5327 24.075 16.2021 23.4684 14.8389C24.0685 13.4822 24.5512 12.1581 24.9164 10.8862C25.5622 11.0884 26.1753 11.3102 26.7493 11.5515C29.0583 12.5364 30.552 13.8279 30.552 14.8519C30.5455 15.876 29.0518 17.174 26.7428 18.1524Z" fill="#D6E4F7"/>
</svg>
