<svg width="32" height="30" viewBox="0 0 32 30" fill="none" xmlns="http://www.w3.org/2000/svg">
    <path d="M32 14.8519C32 12.7321 29.3453 10.7231 25.2752 9.47727C26.2144 5.32888 25.797 2.02843 23.9576 0.971765C23.5336 0.723905 23.0379 0.606498 22.4965 0.606498V2.06104C22.7966 2.06104 23.0379 2.11975 23.2401 2.23063C24.1272 2.7394 24.512 4.67662 24.212 7.16826C24.1402 7.78139 24.0228 8.42713 23.8793 9.08591C22.6009 8.77283 21.2051 8.53149 19.7375 8.37494C18.8569 7.16826 17.9437 6.07246 17.0241 5.11363C19.1504 3.13728 21.1464 2.05452 22.5031 2.05452V0.599976C20.7093 0.599976 18.3612 1.87841 15.987 4.0961C13.6127 1.89146 11.2646 0.626066 9.47085 0.626066V2.08061C10.821 2.08061 12.8235 3.15684 14.9499 5.12015C14.0367 6.07898 13.1235 7.16826 12.256 8.37494C10.7819 8.53149 9.38606 8.77282 8.10762 9.09243C7.9576 8.44017 7.84672 7.80748 7.76845 7.20087C7.46188 4.70923 7.8402 2.77201 8.72075 2.25672C8.91643 2.13932 9.17081 2.08713 9.47085 2.08713V0.632589C8.92295 0.632589 8.42723 0.749996 7.99674 0.997856C6.16388 2.05452 5.75296 5.34845 6.69874 9.48379C2.64166 10.7361 0 12.7386 0 14.8519C0 16.9718 2.65471 18.9807 6.72483 20.2266C5.78557 24.3749 6.20302 27.6754 8.0424 28.7321C8.46637 28.9799 8.96209 29.0973 9.50999 29.0973C11.3037 29.0973 13.6519 27.8189 16.0261 25.6012C18.4003 27.8058 20.7485 29.0712 22.5422 29.0712C23.0901 29.0712 23.5858 28.9538 24.0163 28.706C25.8492 27.6493 26.2601 24.3554 25.3143 20.22C29.3583 18.9742 32 16.9652 32 14.8519ZM23.5075 10.5013C23.2662 11.3427 22.9662 12.2102 22.627 13.0778C22.3596 12.5559 22.0791 12.0341 21.7725 11.5123C21.4725 10.9905 21.1529 10.4818 20.8333 9.98603C21.7595 10.123 22.6531 10.2926 23.5075 10.5013ZM20.5202 17.4479C20.0114 18.3285 19.4896 19.1634 18.9482 19.9396C17.9764 20.0244 16.9914 20.07 16 20.07C15.0151 20.07 14.0302 20.0244 13.0648 19.9461C12.5234 19.1699 11.9951 18.3415 11.4863 17.4675C10.9906 16.613 10.5406 15.7455 10.1296 14.8715C10.534 13.9974 10.9906 13.1234 11.4798 12.269C11.9886 11.3884 12.5104 10.5535 13.0518 9.77731C14.0236 9.69251 15.0086 9.64686 16 9.64686C16.9849 9.64686 17.9698 9.69252 18.9352 9.77079C19.4766 10.547 20.0049 11.3754 20.5137 12.2494C21.0094 13.1038 21.4594 13.9714 21.8704 14.8454C21.4594 15.7194 21.0094 16.5935 20.5202 17.4479ZM22.627 16.6C22.9792 17.474 23.2793 18.348 23.5271 19.196C22.6726 19.4047 21.7725 19.5808 20.8398 19.7178C21.1594 19.2155 21.479 18.7003 21.779 18.1719C22.0791 17.6501 22.3596 17.1218 22.627 16.6ZM16.013 23.5596C15.4064 22.9334 14.7998 22.2355 14.1998 21.4724C14.7868 21.4985 15.3869 21.518 15.9935 21.518C16.6066 21.518 17.2132 21.505 17.8068 21.4724C17.2197 22.2355 16.6131 22.9334 16.013 23.5596ZM11.1602 19.7178C10.234 19.5808 9.3404 19.4112 8.48594 19.2025C8.72727 18.3611 9.02731 17.4936 9.36649 16.6261C9.63392 17.1479 9.91439 17.6697 10.221 18.1915C10.5275 18.7133 10.8406 19.2221 11.1602 19.7178ZM15.9804 6.14421C16.587 6.77038 17.1936 7.4683 17.7937 8.23145C17.2067 8.20536 16.6066 8.18579 16 8.18579C15.3869 8.18579 14.7803 8.19883 14.1867 8.23145C14.7737 7.4683 15.3804 6.77038 15.9804 6.14421ZM11.1537 9.98603C10.8341 10.4883 10.5145 11.0036 10.2144 11.5319C9.91439 12.0537 9.63392 12.5755 9.36649 13.0973C9.01427 12.2233 8.71423 11.3493 8.46637 10.5013C9.32083 10.2991 10.221 10.123 11.1537 9.98603ZM5.25071 18.1524C2.9417 17.1674 1.44802 15.876 1.44802 14.8519C1.44802 13.8279 2.9417 12.5299 5.25071 11.5515C5.81166 11.3101 6.42479 11.0949 7.05748 10.8927C7.42927 12.1711 7.91847 13.5017 8.52507 14.865C7.92499 16.2217 7.44232 17.5458 7.07705 18.8177C6.43131 18.6155 5.81818 18.3937 5.25071 18.1524ZM8.75989 27.4732C7.87281 26.9644 7.48798 25.0272 7.78802 22.5356C7.85976 21.9224 7.97717 21.2767 8.12067 20.6179C9.39911 20.931 10.7949 21.1723 12.2625 21.3289C13.1431 22.5356 14.0563 23.6314 14.9759 24.5902C12.8496 26.5665 10.8536 27.6493 9.49694 27.6493C9.20342 27.6428 8.95557 27.5841 8.75989 27.4732ZM24.2316 22.5029C24.5381 24.9946 24.1598 26.9318 23.2792 27.4471C23.0836 27.5645 22.8292 27.6167 22.5291 27.6167C21.179 27.6167 19.1765 26.5405 17.0501 24.5771C17.9633 23.6183 18.8765 22.529 19.744 21.3224C21.2181 21.1658 22.6139 20.9245 23.8924 20.6049C24.0424 21.2637 24.1598 21.8963 24.2316 22.5029ZM26.7428 18.1524C26.1818 18.3937 25.5687 18.6089 24.936 18.8111C24.5642 17.5327 24.075 16.2021 23.4684 14.8389C24.0685 13.4822 24.5512 12.1581 24.9164 10.8862C25.5622 11.0884 26.1753 11.3101 26.7493 11.5515C29.0583 12.5364 30.552 13.8279 30.552 14.8519C30.5455 15.876 29.0518 17.174 26.7428 18.1524Z" fill="currentColor"/>
    <path d="M15.9935 17.8327C17.6398 17.8327 18.9744 16.4981 18.9744 14.8518C18.9744 13.2055 17.6398 11.871 15.9935 11.871C14.3473 11.871 13.0127 13.2055 13.0127 14.8518C13.0127 16.4981 14.3473 17.8327 15.9935 17.8327Z" fill="currentColor"/>
</svg>
