<svg viewBox="0 0 80 80" fill="none" xmlns="http://www.w3.org/2000/svg">
<g opacity="0.8">
<path d="M29.4377 68.2752H42.6576C52.8625 68.2752 57.9645 64.2748 57.9645 56.551C57.9645 48.966 52.5141 44.8278 41.846 44.8278H29.4377V68.2752ZM29.4377 11.7248V33.5181H41.0343C49.7313 33.5181 54.2537 29.6553 54.2537 22.6213C54.2537 15.4481 49.6155 11.7248 40.9181 11.7248H29.4377ZM11 80V68.2752H18.7695V11.7248H11V0H42.0781C56.3408 0 65.0383 7.86217 65.0383 21.5177C65.0383 30.4829 60.632 36.0003 55.0659 38.6205C63.0669 41.2417 68.7491 48.0002 68.7491 57.2408C68.7491 71.8613 59.2404 80 43.7008 80H11Z" fill="black"/>
</g>
</svg>
