<svg viewBox="0 0 32 26" fill="none" xmlns="http://www.w3.org/2000/svg">
<path d="M1 3C1 1.89543 1.89543 1 3 1H29C30.1046 1 31 1.89543 31 3V23C31 24.1046 30.1046 25 29 25H3C1.89543 25 1 24.1046 1 23V3Z" fill="#A1DAF7" stroke="#1493D2" stroke-miterlimit="10" stroke-linecap="round" stroke-linejoin="round"/>
<path d="M1 3C1 1.89543 1.89543 1 3 1H29C30.1046 1 31 1.89543 31 3V7H1V3Z" fill="white" stroke="#1493D2" stroke-miterlimit="10" stroke-linecap="round" stroke-linejoin="round"/>
<circle cx="4" cy="4" r="0.5" stroke="#73C8F2"/>
<circle cx="7" cy="4" r="0.5" stroke="#73C8F2"/>
<circle cx="10" cy="4" r="0.5" stroke="#73C8F2"/>
<path d="M11 12L6 16L11 20" stroke="#1493D2" stroke-linecap="round" stroke-linejoin="round"/>
<path d="M21 20L26 16L21 12" stroke="#1493D2" stroke-linecap="round" stroke-linejoin="round"/>
<path d="M14 22L18 10" stroke="#1493D2" stroke-linecap="round"/>
</svg>
