<svg viewBox="0 0 32 32" fill="none" xmlns="http://www.w3.org/2000/svg">
<path d="M22.4864 17.8993L2.96875 23.75L2.28057 5.69934C2.26271 5.23089 2.57267 4.8129 3.02613 4.69397L7.103 3.62462C7.56997 3.50214 8.0338 3.83264 8.07051 4.314C8.10811 4.80713 8.59247 5.13879 9.06582 4.99553L21.8041 1.14032C22.4462 0.945982 23.0938 1.42657 23.0938 2.09744V4.03572L23.7393 3.8422C24.4418 3.63163 25.1244 4.22373 25.0153 4.94891L23.1881 17.0902C23.1305 17.473 22.8572 17.7881 22.4864 17.8993Z" fill="#73C8F2"/>
<path d="M2.96875 23.75L2.46911 23.769C2.47501 23.9236 2.55211 24.0668 2.67794 24.1567C2.80377 24.2467 2.96415 24.2734 3.11232 24.2289L2.96875 23.75ZM22.4864 17.8993L22.3428 17.4203H22.3428L22.4864 17.8993ZM23.1881 17.0902L23.6825 17.1646L23.1881 17.0902ZM25.0153 4.94891L24.5209 4.8745V4.8745L25.0153 4.94891ZM5.03064 10.0491L5.52507 10.1235H5.52507L5.03064 10.0491ZM2.28057 5.69934L2.78021 5.68029L2.28057 5.69934ZM3.02613 4.69397L3.15299 5.17761H3.15299L3.02613 4.69397ZM7.103 3.62462L6.97615 3.14098L7.103 3.62462ZM9.06582 4.99553L8.92099 4.51696H8.92099L9.06582 4.99553ZM21.8041 1.14032L21.9489 1.61888L21.8041 1.14032ZM23.7393 3.8422L23.5957 3.36326H23.5957L23.7393 3.8422ZM23.0938 4.03572L23.2373 4.51466L23.0938 4.03572ZM5.73236 9.24007L5.58879 8.76112L5.73236 9.24007ZM8.07051 4.314L8.56906 4.27599V4.27599L8.07051 4.314ZM3.11232 24.2289L22.63 18.3782L22.3428 17.4203L2.82518 23.2711L3.11232 24.2289ZM23.6825 17.1646L25.5097 5.02332L24.5209 4.8745L22.6937 17.0158L23.6825 17.1646ZM4.53621 9.97473L2.47432 23.6756L3.46318 23.8244L5.52507 10.1235L4.53621 9.97473ZM3.46839 23.731L2.78021 5.68029L1.78093 5.71839L2.46911 23.769L3.46839 23.731ZM3.15299 5.17761L7.22986 4.10826L6.97615 3.14098L2.89927 4.21033L3.15299 5.17761ZM9.21066 5.47409L21.9489 1.61888L21.6592 0.661754L8.92099 4.51696L9.21066 5.47409ZM23.5957 3.36326L22.9502 3.55677L23.2373 4.51466L23.8829 4.32115L23.5957 3.36326ZM22.9502 3.55677L5.58879 8.76112L5.87593 9.71901L23.2373 4.51466L22.9502 3.55677ZM22.5938 2.09744V4.03572H23.5938V2.09744H22.5938ZM21.9489 1.61888C22.27 1.52171 22.5938 1.762 22.5938 2.09744H23.5938C23.5938 1.09113 22.6224 0.370252 21.6592 0.661754L21.9489 1.61888ZM7.57195 4.35202C7.63386 5.16391 8.43132 5.70996 9.21066 5.47409L8.92099 4.51696C8.75361 4.56762 8.58235 4.45035 8.56906 4.27599L7.57195 4.35202ZM7.22986 4.10826C7.39497 4.06495 7.55897 4.18181 7.57195 4.35202L8.56906 4.27599C8.50863 3.48346 7.74497 2.93933 6.97615 3.14098L7.22986 4.10826ZM2.78021 5.68029C2.77128 5.44607 2.92626 5.23707 3.15299 5.17761L2.89927 4.21033C2.21909 4.38873 1.75414 5.01571 1.78093 5.71839L2.78021 5.68029ZM5.52507 10.1235C5.55387 9.93216 5.69054 9.77458 5.87593 9.71901L5.58879 8.76112C5.03262 8.92784 4.62261 9.40057 4.53621 9.97473L5.52507 10.1235ZM25.5097 5.02332C25.6734 3.93554 24.6494 3.0474 23.5957 3.36326L23.8829 4.32115C24.2341 4.21586 24.5754 4.51191 24.5209 4.8745L25.5097 5.02332ZM22.63 18.3782C23.1861 18.2115 23.5961 17.7388 23.6825 17.1646L22.6937 17.0158C22.6649 17.2072 22.5282 17.3648 22.3428 17.4203L22.63 18.3782Z" fill="#1493D2"/>
<path d="M27.4864 24.8993L7.96875 30.75L7.28057 12.6993C7.26271 12.2309 7.57267 11.8129 8.02613 11.694L12.103 10.6246C12.57 10.5021 13.0338 10.8326 13.0705 11.314C13.1081 11.8071 13.5925 12.1388 14.0658 11.9955L26.8041 8.14032C27.4462 7.94598 28.0938 8.42657 28.0938 9.09744V11.0357L28.7393 10.8422C29.4418 10.6316 30.1244 11.2237 30.0153 11.9489L28.1881 24.0902C28.1305 24.473 27.8572 24.7881 27.4864 24.8993Z" fill="#A1DAF7"/>
<path d="M7.96875 30.75L7.46911 30.769C7.47501 30.9236 7.55211 31.0668 7.67794 31.1567C7.80377 31.2467 7.96415 31.2734 8.11232 31.2289L7.96875 30.75ZM27.4864 24.8993L27.3428 24.4203H27.3428L27.4864 24.8993ZM28.1881 24.0902L28.6825 24.1646L28.1881 24.0902ZM30.0153 11.9489L29.5209 11.8745V11.8745L30.0153 11.9489ZM10.0306 17.0491L9.53621 16.9747L10.0306 17.0491ZM7.28057 12.6993L7.78021 12.6803L7.28057 12.6993ZM8.02613 11.694L8.15299 12.1776H8.15299L8.02613 11.694ZM12.103 10.6246L11.9761 10.141V10.141L12.103 10.6246ZM14.0658 11.9955L13.921 11.517H13.921L14.0658 11.9955ZM26.8041 8.14032L26.9489 8.61888V8.61888L26.8041 8.14032ZM28.7393 10.8422L28.8829 11.3211L28.7393 10.8422ZM10.7324 16.2401L10.5888 15.7611L10.7324 16.2401ZM13.0705 11.314L13.5691 11.276V11.276L13.0705 11.314ZM8.11232 31.2289L27.63 25.3782L27.3428 24.4203L7.82518 30.2711L8.11232 31.2289ZM28.6825 24.1646L30.5097 12.0233L29.5209 11.8745L27.6937 24.0158L28.6825 24.1646ZM9.53621 16.9747L7.47432 30.6756L8.46318 30.8244L10.5251 17.1235L9.53621 16.9747ZM8.46839 30.731L7.78021 12.6803L6.78093 12.7184L7.46911 30.769L8.46839 30.731ZM8.15299 12.1776L12.2299 11.1083L11.9761 10.141L7.89927 11.2103L8.15299 12.1776ZM14.2107 12.4741L26.9489 8.61888L26.6592 7.66175L13.921 11.517L14.2107 12.4741ZM28.5957 10.3633L27.9502 10.5568L28.2373 11.5147L28.8829 11.3211L28.5957 10.3633ZM27.9502 10.5568L10.5888 15.7611L10.8759 16.719L28.2373 11.5147L27.9502 10.5568ZM27.5938 9.09744V11.0357H28.5938V9.09744H27.5938ZM26.9489 8.61888C27.27 8.52171 27.5938 8.762 27.5938 9.09744H28.5938C28.5938 8.09113 27.6224 7.37025 26.6592 7.66175L26.9489 8.61888ZM12.572 11.352C12.6339 12.1639 13.4313 12.71 14.2107 12.4741L13.921 11.517C13.7536 11.5676 13.5824 11.4503 13.5691 11.276L12.572 11.352ZM12.2299 11.1083C12.395 11.065 12.559 11.1818 12.572 11.352L13.5691 11.276C13.5086 10.4835 12.745 9.93933 11.9761 10.141L12.2299 11.1083ZM7.78021 12.6803C7.77128 12.4461 7.92626 12.2371 8.15299 12.1776L7.89927 11.2103C7.21909 11.3887 6.75414 12.0157 6.78093 12.7184L7.78021 12.6803ZM10.5251 17.1235C10.5539 16.9322 10.6905 16.7746 10.8759 16.719L10.5888 15.7611C10.0326 15.9278 9.62262 16.4006 9.53621 16.9747L10.5251 17.1235ZM30.5097 12.0233C30.6734 10.9355 29.6494 10.0474 28.5957 10.3633L28.8829 11.3211C29.2341 11.2159 29.5754 11.5119 29.5209 11.8745L30.5097 12.0233ZM27.63 25.3782C28.1861 25.2115 28.5961 24.7388 28.6825 24.1646L27.6937 24.0158C27.6649 24.2072 27.5282 24.3648 27.3428 24.4203L27.63 25.3782Z" fill="#1493D2"/>
</svg>
