<svg viewBox="0 0 32 32" fill="none" xmlns="http://www.w3.org/2000/svg">
    <path d="M3 7C3 5.89543 3.89543 5 5 5H27C28.1046 5 29 5.89543 29 7V24H3V7Z" fill="#7187A5" stroke="#151B23"/>
    <rect x="1" y="24" width="30" height="4" rx="2" fill="white" stroke="#151B23"/>
    <path d="M7 15C7 12.8824 9.66965 9.86713 10.75 9C11.8583 9.98516 14.5 13.1162 14.5 15C14.5 16.8838 13.75 17.8235 12.25 18.8824L12.25 21H9.25L9.25 18.8824C7.75 18.1765 7 16.5 7 15Z" fill="white"/>
    <path d="M10.75 9C9.66965 9.86713 7 12.8824 7 15C7 16.5 7.75 18.1765 9.25 18.8824L9.25 21H12.25L12.25 18.8824C13.75 17.8235 14.5 16.8838 14.5 15C14.5 13.1162 11.8583 9.98516 10.75 9ZM10.75 9V15.4286" stroke="#151B23" stroke-linecap="round" stroke-linejoin="round"/>
    <circle cx="10.75" cy="15" r="0.75" fill="white" stroke="#151B23"/>
    <path d="M19 20L19 9" stroke="#151B23" stroke-linecap="round"/>
    <mask id="path-7-inside-1" fill="white">
        <ellipse cx="19" cy="13" rx="2" ry="2" transform="rotate(-90 19 13)"/>
    </mask>
    <path d="M19 13.5C18.7239 13.5 18.5 13.2761 18.5 13L23.5 13C23.5 10.5147 21.4853 8.5 19 8.5L19 13.5ZM18.5 13C18.5 12.7239 18.7239 12.5 19 12.5L19 17.5C21.4853 17.5 23.5 15.4853 23.5 13L18.5 13ZM19 12.5C19.2761 12.5 19.5 12.7239 19.5 13L14.5 13C14.5 15.4853 16.5147 17.5 19 17.5L19 12.5ZM19.5 13C19.5 13.2761 19.2761 13.5 19 13.5L19 8.5C16.5147 8.5 14.5 10.5147 14.5 13L19.5 13Z" fill="#151B23" mask="url(#path-7-inside-1)"/>
    <path d="M24 20L24 9" stroke="#151B23" stroke-linecap="round"/>
    <mask id="path-10-inside-2" fill="white">
        <ellipse cx="24" cy="16" rx="2" ry="2" transform="rotate(-90 24 16)"/>
    </mask>
    <path d="M24 16.5C23.7239 16.5 23.5 16.2761 23.5 16L28.5 16C28.5 13.5147 26.4853 11.5 24 11.5L24 16.5ZM23.5 16C23.5 15.7239 23.7239 15.5 24 15.5L24 20.5C26.4853 20.5 28.5 18.4853 28.5 16L23.5 16ZM24 15.5C24.2761 15.5 24.5 15.7239 24.5 16L19.5 16C19.5 18.4853 21.5147 20.5 24 20.5L24 15.5ZM24.5 16C24.5 16.2761 24.2761 16.5 24 16.5L24 11.5C21.5147 11.5 19.5 13.5147 19.5 16L24.5 16Z" fill="#151B23" mask="url(#path-10-inside-2)"/>
</svg>
