<svg viewBox="0 0 32 32" fill="none" xmlns="http://www.w3.org/2000/svg">
<path fill-rule="evenodd" clip-rule="evenodd" d="M14.85 29.8575C16.0926 29.8575 17.1 28.8501 17.1 27.6075C17.1 26.3648 16.0926 25.3575 14.85 25.3575C13.6073 25.3575 12.6 26.3648 12.6 27.6075C12.6 28.8501 13.6073 29.8575 14.85 29.8575ZM24.85 29.8575C26.0926 29.8575 27.1 28.8501 27.1 27.6075C27.1 26.3648 26.0926 25.3575 24.85 25.3575C23.6073 25.3575 22.6 26.3648 22.6 27.6075C22.6 28.8501 23.6073 29.8575 24.85 29.8575Z" fill="#F9A86C"/>
<path d="M16.6 27.6075C16.6 28.574 15.8165 29.3575 14.85 29.3575V30.3575C16.3688 30.3575 17.6 29.1263 17.6 27.6075H16.6ZM14.85 25.8575C15.8165 25.8575 16.6 26.641 16.6 27.6075H17.6C17.6 26.0887 16.3688 24.8575 14.85 24.8575V25.8575ZM13.1 27.6075C13.1 26.641 13.8835 25.8575 14.85 25.8575V24.8575C13.3312 24.8575 12.1 26.0887 12.1 27.6075H13.1ZM14.85 29.3575C13.8835 29.3575 13.1 28.574 13.1 27.6075H12.1C12.1 29.1263 13.3312 30.3575 14.85 30.3575V29.3575ZM26.6 27.6075C26.6 28.574 25.8165 29.3575 24.85 29.3575V30.3575C26.3688 30.3575 27.6 29.1263 27.6 27.6075H26.6ZM24.85 25.8575C25.8165 25.8575 26.6 26.641 26.6 27.6075H27.6C27.6 26.0887 26.3688 24.8575 24.85 24.8575V25.8575ZM23.1 27.6075C23.1 26.641 23.8835 25.8575 24.85 25.8575V24.8575C23.3312 24.8575 22.1 26.0887 22.1 27.6075H23.1ZM24.85 29.3575C23.8835 29.3575 23.1 28.574 23.1 27.6075H22.1C22.1 29.1263 23.3312 30.3575 24.85 30.3575V29.3575Z" fill="#DD6509"/>
<path fill-rule="evenodd" clip-rule="evenodd" d="M2.17396 2.29999C1.5256 2.29999 1 2.82559 1 3.47395C1 4.12231 1.5256 4.64791 2.17396 4.64791H5.29293L7.42962 10.261H10.2312L7.37859 2.76728C7.28035 2.5092 6.97686 2.29999 6.70071 2.29999H6.7H4.39916H2.17396Z" fill="#FBC59D"/>
<path d="M5.29293 4.64791L5.76022 4.47003L5.6376 4.14791H5.29293V4.64791ZM7.42962 10.261L6.96233 10.4388L7.08495 10.761H7.42962V10.261ZM10.2312 10.261V10.761H10.9565L10.6985 10.0831L10.2312 10.261ZM7.37859 2.76728L7.84588 2.5894L7.84588 2.5894L7.37859 2.76728ZM1.5 3.47395C1.5 3.10173 1.80174 2.79999 2.17396 2.79999V1.79999C1.24946 1.79999 0.5 2.54945 0.5 3.47395H1.5ZM2.17396 4.14791C1.80174 4.14791 1.5 3.84617 1.5 3.47395H0.5C0.5 4.39845 1.24946 5.14791 2.17396 5.14791V4.14791ZM5.29293 4.14791H2.17396V5.14791H5.29293V4.14791ZM7.89691 10.0831L5.76022 4.47003L4.82564 4.82579L6.96233 10.4388L7.89691 10.0831ZM10.2312 9.76097H7.42962V10.761H10.2312V9.76097ZM6.9113 2.94516L9.76388 10.4388L10.6985 10.0831L7.84588 2.5894L6.9113 2.94516ZM6.70071 2.79999C6.718 2.79999 6.76581 2.80938 6.82259 2.84852C6.87937 2.88766 6.90515 2.929 6.9113 2.94516L7.84588 2.5894C7.75379 2.34748 7.57871 2.15517 7.39015 2.02519C7.20158 1.8952 6.95957 1.79999 6.70071 1.79999V2.79999ZM6.7 2.79999H6.70071V1.79999H6.7V2.79999ZM4.39916 2.79999H6.7V1.79999H4.39916V2.79999ZM2.17396 2.79999H4.39916V1.79999H2.17396V2.79999Z" fill="#DD6509"/>
<path d="M7 8.85748H29.6202C30.583 8.85748 31.2965 9.75161 31.0828 10.6904L28.4247 22.3689C28.2693 23.0516 27.6623 23.536 26.9621 23.536H12.5669C11.9062 23.536 11.3234 23.1038 11.1315 22.4716L7 8.85748Z" fill="#FBC59D" stroke="#DD6509"/>
<rect x="19" y="12.1075" width="1.5" height="8.5" rx="0.75" fill="white" stroke="#DD6509"/>
<rect x="13.381" y="12.2575" width="1.5" height="8.5" rx="0.75" transform="rotate(-8 13.381 12.2575)" fill="white" stroke="#DD6509"/>
<rect x="24.6335" y="12.0575" width="1.5" height="8.5" rx="0.75" transform="rotate(8 24.6335 12.0575)" fill="white" stroke="#DD6509"/>
</svg>
