<svg viewBox="0 0 32 32" fill="none" xmlns="http://www.w3.org/2000/svg">
<path fill-rule="evenodd" clip-rule="evenodd" d="M14.85 29.8575C16.0926 29.8575 17.1 28.8502 17.1 27.6075C17.1 26.3649 16.0926 25.3575 14.85 25.3575C13.6073 25.3575 12.6 26.3649 12.6 27.6075C12.6 28.8502 13.6073 29.8575 14.85 29.8575ZM24.85 29.8575C26.0926 29.8575 27.1 28.8502 27.1 27.6075C27.1 26.3649 26.0926 25.3575 24.85 25.3575C23.6073 25.3575 22.6 26.3649 22.6 27.6075C22.6 28.8502 23.6073 29.8575 24.85 29.8575Z" fill="#7187A5"/>
<path d="M16.6 27.6075C16.6 28.574 15.8165 29.3575 14.85 29.3575V30.3575C16.3688 30.3575 17.6 29.1263 17.6 27.6075H16.6ZM14.85 25.8575C15.8165 25.8575 16.6 26.641 16.6 27.6075H17.6C17.6 26.0888 16.3688 24.8575 14.85 24.8575V25.8575ZM13.1 27.6075C13.1 26.641 13.8835 25.8575 14.85 25.8575V24.8575C13.3312 24.8575 12.1 26.0888 12.1 27.6075H13.1ZM14.85 29.3575C13.8835 29.3575 13.1 28.574 13.1 27.6075H12.1C12.1 29.1263 13.3312 30.3575 14.85 30.3575V29.3575ZM26.6 27.6075C26.6 28.574 25.8165 29.3575 24.85 29.3575V30.3575C26.3688 30.3575 27.6 29.1263 27.6 27.6075H26.6ZM24.85 25.8575C25.8165 25.8575 26.6 26.641 26.6 27.6075H27.6C27.6 26.0888 26.3688 24.8575 24.85 24.8575V25.8575ZM23.1 27.6075C23.1 26.641 23.8835 25.8575 24.85 25.8575V24.8575C23.3312 24.8575 22.1 26.0888 22.1 27.6075H23.1ZM24.85 29.3575C23.8835 29.3575 23.1 28.574 23.1 27.6075H22.1C22.1 29.1263 23.3312 30.3575 24.85 30.3575V29.3575Z" fill="#283341"/>
<g filter="url(#filter0_i)">
<path fill-rule="evenodd" clip-rule="evenodd" d="M2.17396 2.30005C1.5256 2.30005 1 2.82565 1 3.47401C1 4.12237 1.5256 4.64797 2.17396 4.64797H5.29293L7.42962 10.261H10.2312L7.37859 2.76734C7.28035 2.50926 6.97686 2.30005 6.70071 2.30005H6.7H4.39916H2.17396Z" fill="#F9A86C"/>
</g>
<path d="M5.29293 4.64797L5.76022 4.47009L5.6376 4.14797H5.29293V4.64797ZM7.42962 10.261L6.96233 10.4389L7.08495 10.761H7.42962V10.261ZM10.2312 10.261V10.761H10.9565L10.6985 10.0831L10.2312 10.261ZM7.37859 2.76734L7.84588 2.58946L7.84588 2.58946L7.37859 2.76734ZM1.5 3.47401C1.5 3.10179 1.80174 2.80005 2.17396 2.80005V1.80005C1.24946 1.80005 0.5 2.54951 0.5 3.47401H1.5ZM2.17396 4.14797C1.80174 4.14797 1.5 3.84623 1.5 3.47401H0.5C0.5 4.39851 1.24946 5.14797 2.17396 5.14797V4.14797ZM5.29293 4.14797H2.17396V5.14797H5.29293V4.14797ZM7.89691 10.0831L5.76022 4.47009L4.82564 4.82585L6.96233 10.4389L7.89691 10.0831ZM10.2312 9.76103H7.42962V10.761H10.2312V9.76103ZM6.9113 2.94522L9.76388 10.4389L10.6985 10.0831L7.84588 2.58946L6.9113 2.94522ZM6.70071 2.80005C6.718 2.80005 6.76581 2.80944 6.82259 2.84858C6.87937 2.88772 6.90515 2.92906 6.9113 2.94522L7.84588 2.58946C7.75379 2.34754 7.57871 2.15523 7.39015 2.02525C7.20158 1.89526 6.95957 1.80005 6.70071 1.80005V2.80005ZM6.7 2.80005H6.70071V1.80005H6.7V2.80005ZM4.39916 2.80005H6.7V1.80005H4.39916V2.80005ZM2.17396 2.80005H4.39916V1.80005H2.17396V2.80005Z" fill="#283341"/>
<g filter="url(#filter1_i)">
<path d="M7 8.85754H29.6202C30.583 8.85754 31.2965 9.75167 31.0828 10.6904L28.4247 22.369C28.2693 23.0517 27.6623 23.5361 26.9621 23.5361H12.5669C11.9062 23.5361 11.3234 23.1039 11.1315 22.4717L7 8.85754Z" fill="#F9A86C"/>
</g>
<path d="M7 8.85754H29.6202C30.583 8.85754 31.2965 9.75167 31.0828 10.6904L28.4247 22.369C28.2693 23.0517 27.6623 23.5361 26.9621 23.5361H12.5669C11.9062 23.5361 11.3234 23.1039 11.1315 22.4717L7 8.85754Z" stroke="#283341"/>
<rect x="19" y="12.1075" width="1.5" height="8.5" rx="0.75" fill="#F1F6FC" stroke="#283341"/>
<rect x="13.381" y="12.2576" width="1.5" height="8.5" rx="0.75" transform="rotate(-8 13.381 12.2576)" fill="#F1F6FC" stroke="#283341"/>
<rect x="24.6335" y="12.0575" width="1.5" height="8.5" rx="0.75" transform="rotate(8 24.6335 12.0575)" fill="#F1F6FC" stroke="#283341"/>
<defs>
<filter id="filter0_i" x="0.5" y="1.80005" width="10.4565" height="8.96098" filterUnits="userSpaceOnUse" color-interpolation-filters="sRGB">
<feFlood flood-opacity="0" result="BackgroundImageFix"/>
<feBlend mode="normal" in="SourceGraphic" in2="BackgroundImageFix" result="shape"/>
<feColorMatrix in="SourceAlpha" type="matrix" values="0 0 0 0 0 0 0 0 0 0 0 0 0 0 0 0 0 0 127 0" result="hardAlpha"/>
<feOffset dx="1" dy="2.5"/>
<feComposite in2="hardAlpha" operator="arithmetic" k2="-1" k3="1"/>
<feColorMatrix type="matrix" values="0 0 0 0 1 0 0 0 0 1 0 0 0 0 1 0 0 0 0.4 0"/>
<feBlend mode="normal" in2="shape" result="effect1_innerShadow"/>
</filter>
<filter id="filter1_i" x="6.32574" y="8.35754" width="25.2953" height="15.6785" filterUnits="userSpaceOnUse" color-interpolation-filters="sRGB">
<feFlood flood-opacity="0" result="BackgroundImageFix"/>
<feBlend mode="normal" in="SourceGraphic" in2="BackgroundImageFix" result="shape"/>
<feColorMatrix in="SourceAlpha" type="matrix" values="0 0 0 0 0 0 0 0 0 0 0 0 0 0 0 0 0 0 127 0" result="hardAlpha"/>
<feOffset dx="-5" dy="2"/>
<feComposite in2="hardAlpha" operator="arithmetic" k2="-1" k3="1"/>
<feColorMatrix type="matrix" values="0 0 0 0 1 0 0 0 0 1 0 0 0 0 1 0 0 0 0.4 0"/>
<feBlend mode="normal" in2="shape" result="effect1_innerShadow"/>
</filter>
</defs>
</svg>
