<svg viewBox="0 0 32 32" fill="none" xmlns="http://www.w3.org/2000/svg">
    <path d="M1 6C1 4.89543 1.89543 4 3 4H29C30.1046 4 31 4.89543 31 6V26C31 27.1046 30.1046 28 29 28H3C1.89543 28 1 27.1046 1 26V6Z" fill="#7187A5" stroke="#151B23" stroke-miterlimit="10" stroke-linecap="round" stroke-linejoin="round"/>
    <path d="M1 6C1 4.89543 1.89543 4 3 4H29C30.1046 4 31 4.89543 31 6V10H1V6Z" fill="white" stroke="#151B23" stroke-miterlimit="10" stroke-linecap="round" stroke-linejoin="round"/>
    <path d="M4 13H7" stroke="#151B23" stroke-linecap="round"/>
    <path d="M4 15H7" stroke="#151B23" stroke-linecap="round"/>
    <path d="M4 17H7" stroke="#151B23" stroke-linecap="round"/>
    <path d="M4 19H7" stroke="#151B23" stroke-linecap="round"/>
    <path d="M10 10V28" stroke="#151B23" stroke-linecap="round"/>
    <circle cx="4" cy="7" r="0.5" stroke="#7187A5"/>
    <circle cx="7" cy="7" r="0.5" stroke="#7187A5"/>
    <circle cx="10" cy="7" r="0.5" stroke="#7187A5"/>
    <path d="M10 10H31V26C31 27.1046 30.1046 28 29 28H10V10Z" fill="#D6E4F7" stroke="#151B23"/>
    <path d="M13 17C13 16.4477 13.4477 16 14 16H27C27.5523 16 28 16.4477 28 17V18C28 18.5523 27.5523 19 27 19H14C13.4477 19 13 18.5523 13 18V17Z" fill="white" stroke="#151B23"/>
    <path d="M13 23C13 22.4477 13.4477 22 14 22H27C27.5523 22 28 22.4477 28 23V24C28 24.5523 27.5523 25 27 25H14C13.4477 25 13 24.5523 13 24V23Z" fill="white" stroke="#151B23"/>
    <path d="M13 13H16" stroke="#151B23" stroke-linecap="round"/>
</svg>
