<svg viewBox="0 0 32 32" fill="none" xmlns="http://www.w3.org/2000/svg">
<path d="M1 23.0704C1 22.4017 1.3342 21.7772 1.8906 21.4063L4 20L6.1094 21.4063C6.6658 21.7772 7 22.4017 7 23.0704V29C7 30.1046 6.10457 31 5 31H3C1.89543 31 1 30.1046 1 29L1 23.0704Z" fill="#A1DAF7" stroke="#1493D2" stroke-linejoin="round"/>
<path d="M13 15.0704C13 14.4017 13.3342 13.7772 13.8906 13.4063L16 12L18.1094 13.4063C18.6658 13.7772 19 14.4017 19 15.0704V29C19 30.1046 18.1046 31 17 31H15C13.8954 31 13 30.1046 13 29V15.0704Z" fill="#BDB2E6" stroke="#5138AE" stroke-linejoin="round"/>
<path d="M25 8.07037C25 7.40166 25.3342 6.7772 25.8906 6.40627L28 5L30.1094 6.40627C30.6658 6.7772 31 7.40166 31 8.07037V29C31 30.1046 30.1046 31 29 31H27C25.8954 31 25 30.1046 25 29V8.07037Z" fill="#AEEADE" stroke="#29A38A" stroke-linejoin="round"/>
<path d="M13 10L16 8L19 10" stroke="#5138AE" stroke-linecap="round" stroke-linejoin="round"/>
<path d="M1 18L4 16L7 18" stroke="#1493D2" stroke-linecap="round" stroke-linejoin="round"/>
<path d="M25 3L28 1L31 3" stroke="#29A38A" stroke-linecap="round" stroke-linejoin="round"/>
</svg>
