<svg viewBox="0 0 80 80" fill="none" xmlns="http://www.w3.org/2000/svg">
    <path d="M72.3246 33.104C76.1711 32.9192 79.5759 35.9031 79.9079 39.7529C81.3466 58.3772 64.3021 79.2405 40.2828 79.9076C20.0415 80.4072 0.0223389 64.2022 0.0223389 39.6996C0.0223389 35.8381 3.21327 32.7076 7.06412 32.7076C10.915 32.7076 14.0367 35.8381 14.0367 39.6996C14.0367 55.8169 26.9959 66.2476 39.9399 65.9282C55.8743 65.4854 66.2332 51.6882 65.6944 40.4229C65.5096 36.5659 68.4784 33.2892 72.3246 33.104Z" fill="url(#paint0_linear)"/>
    <path d="M54.9061 40.2417C54.9061 36.2884 58.1309 33.0835 62.1087 33.0835H72.6054C76.5835 33.0835 79.9079 36.2884 79.9079 40.2417C79.9079 44.1953 76.5835 47.4002 72.6054 47.4002H62.1087C58.1309 47.4002 54.9061 44.1953 54.9061 40.2417Z" fill="#00A672"/>
    <path d="M32.8817 40.2522C32.8817 36.293 36.086 33.0835 40.034 33.0835C43.9824 33.0835 47.1867 36.293 47.1867 40.2522C47.1867 44.2113 43.9824 47.4212 40.034 47.4212C36.086 47.4212 32.8817 44.2113 32.8817 40.2522Z" fill="#00A672"/>
    <path fill-rule="evenodd" clip-rule="evenodd" d="M46.9884 6.75783C47.1484 10.616 44.1587 13.8737 40.3112 14.0339C23.7021 14.7256 13.5623 27.7797 14.0559 40.1749C14.2095 44.0332 11.2773 47.2861 7.4295 47.4402C3.58173 47.5944 0.19802 44.4802 0.0443828 40.622C-0.759909 20.4227 16.0589 0.454201 39.7326 0.0620434C43.5801 -0.0981861 46.8287 2.89962 46.9884 6.75783Z" fill="#00A672"/>
    <defs>
        <linearGradient id="paint0_linear" x1="40.0075" y1="32.7076" x2="40.0075" y2="79.9191" gradientUnits="userSpaceOnUse">
            <stop stop-color="#00583E"/>
            <stop offset="1" stop-color="#00835C"/>
        </linearGradient>
    </defs>
</svg>
