<svg viewBox="0 0 80 80" fill="none" xmlns="http://www.w3.org/2000/svg">
    <path d="M40 0C18 0 0 18 0 40C0 62 18 80 40 80C62 80 80 62 80 40C80 18 62 0 40 0ZM17.7143 62.2857C11.7143 56.2857 8.57143 48.2857 8.57143 40.5714L39.7143 71.4286C31.7143 71.1429 23.7143 68.2857 17.7143 62.2857ZM46.8571 70.5714L9.42857 33.1429C12.5714 19.1429 25.1429 8.57143 40 8.57143C50.5714 8.57143 59.7143 13.7143 65.4286 21.4286L61.1429 25.1429C56.2857 18.5714 48.5714 14.2857 40 14.2857C28.8571 14.2857 19.4286 21.4286 15.7143 31.4286L48.5714 64.2857C56.8571 61.4286 63.1429 54.2857 65.1429 45.7143H51.4286V40H71.4286C71.4286 54.8571 60.8571 67.4286 46.8571 70.5714Z" fill="#663399"/>
</svg>
