<svg viewBox="0 0 80 80" fill="none" xmlns="http://www.w3.org/2000/svg">
<path d="M40 23.1332C30.7066 23.1332 23.1332 30.6922 23.1332 40C23.1332 49.2933 30.6922 56.8668 40 56.8668C49.3078 56.8668 56.8668 49.2933 56.8668 40C56.8668 30.7066 49.2933 23.1332 40 23.1332Z" fill="#3880FF"/>
<path d="M64.209 24.6363C68.4555 24.6363 71.898 21.1938 71.898 16.9472C71.898 12.7007 68.4555 9.25818 64.209 9.25818C59.9624 9.25818 56.5199 12.7007 56.5199 16.9472C56.5199 21.1938 59.9624 24.6363 64.209 24.6363Z" fill="#3880FF"/>
<path d="M73.6758 24.6652L73.3578 23.957L72.8375 24.5352C71.5801 25.966 69.9758 27.0645 68.1981 27.7293L67.7066 27.9172L67.909 28.3941C69.441 32.0797 70.2215 35.982 70.2215 39.9855C70.2215 56.65 56.6645 70.2215 39.9855 70.2215C23.3066 70.2215 9.76406 56.6645 9.76406 40C9.76406 23.3355 23.3355 9.76406 40 9.76406C44.5238 9.76406 48.8887 10.7469 52.95 12.6836L53.427 12.9148L53.6293 12.4379C54.3664 10.7035 55.5516 9.15703 57.0402 7.95742L57.6473 7.46602L56.9535 7.10469C51.6781 4.3875 45.9691 3 40 3C19.5922 3 3 19.5922 3 40C3 60.4078 19.5922 77 40 77C60.4078 77 77 60.4078 77 40C77 34.6668 75.8871 29.507 73.6758 24.6652Z" fill="#3880FF"/>
</svg>
