<svg viewBox="0 0 80 80" fill="none" xmlns="http://www.w3.org/2000/svg">
    <rect width="80" height="80" fill="#F7DF1E"/>
    <path d="M53.7396 62.5003C55.3511 65.1314 57.4476 67.0654 61.1555 67.0654C64.2704 67.0654 66.2603 65.5085 66.2603 63.3574C66.2603 60.7797 64.2158 59.8666 60.7873 58.367L58.9079 57.5606C53.4831 55.2495 49.8793 52.3543 49.8793 46.2336C49.8793 40.5955 54.1752 36.3035 60.8888 36.3035C65.6685 36.3035 69.1047 37.967 71.5809 42.3225L65.7269 46.0812C64.438 43.7701 63.0476 42.8597 60.8888 42.8597C58.6869 42.8597 57.2914 44.2565 57.2914 46.0812C57.2914 48.3365 58.6882 49.2495 61.9136 50.6463L63.793 51.4514C70.1803 54.1904 73.7866 56.9828 73.7866 63.2609C73.7866 70.0292 68.4698 73.7371 61.3295 73.7371C54.3479 73.7371 49.8374 70.4101 47.6304 66.0495L53.7396 62.5003ZM27.1835 63.1517C28.3644 65.247 29.4387 67.0184 32.0215 67.0184C34.4914 67.0184 36.0495 66.052 36.0495 62.2946V36.7327H43.5669V62.3962C43.5669 70.1803 39.0031 73.7231 32.3415 73.7231C26.3225 73.7231 22.8368 70.6082 21.0641 66.8565L27.1835 63.1517Z" fill="black"/>
</svg>
