<svg viewBox="0 0 80 80" fill="none" xmlns="http://www.w3.org/2000/svg">
<path d="M0 40C0 17.9086 17.9086 0 40 0C62.0914 0 80 17.9086 80 40C80 62.0914 62.0914 80 40 80C17.9086 80 0 62.0914 0 40Z" fill="#F3FCFA"/>
<path d="M27.5 46.5L34.7376 39.2609C35.1253 38.8731 35.753 38.8699 36.1447 39.2537L40.4292 43.4519C40.8291 43.8437 41.4726 43.831 41.8566 43.4238L46.5 38.5" stroke="#29A38A" stroke-linecap="round" stroke-linejoin="round"/>
<path d="M51 33H43.5866C42.6726 33 42.2376 34.1251 42.9139 34.7399L50.3273 41.4794C50.9697 42.0634 52 41.6076 52 40.7394V34C52 33.4477 51.5523 33 51 33Z" fill="#AEEADE" stroke="#29A38A"/>
</svg>
