<svg viewBox="0 0 80 80" fill="none" xmlns="http://www.w3.org/2000/svg">
<rect width="80" height="80" rx="40" fill="url(#paint0_linear)"/>
<rect width="80" height="80" rx="40" fill="url(#paint1_linear)"/>
<rect width="80" height="80" rx="40" fill="white" fill-opacity="0.9"/>
<path fill-rule="evenodd" clip-rule="evenodd" d="M50.0468 49.75C49.518 50.2948 48.9453 50.7967 48.3344 51.25H31.6656C31.0547 50.7967 30.482 50.2948 29.9532 49.75H50.0468ZM51.3121 48.25H28.6878C28.3387 47.7721 28.0191 47.2712 27.7317 46.75H52.2682C51.9809 47.2712 51.6613 47.7721 51.3121 48.25ZM26.5079 43.75C26.65 44.2624 26.8205 44.763 27.0176 45.25H52.9823C53.1795 44.763 53.35 44.2624 53.4921 43.75H26.5079ZM40 54C37.9347 54 35.974 53.5528 34.2092 52.75H45.7908C44.026 53.5528 42.0652 54 40 54Z" fill="#7187A5"/>
<mask id="path-3-inside-1" fill="white">
<path fill-rule="evenodd" clip-rule="evenodd" d="M26.1798 42.25C26.0615 41.5175 26 40.7659 26 40C26 32.268 32.268 26 40 26C47.732 26 54 32.268 54 40C54 40.7659 53.9385 41.5175 53.8202 42.25H46.6306C46.8701 41.5439 47 40.7871 47 40C47 36.134 43.866 33 40 33C36.134 33 33 36.134 33 40C33 40.7871 33.1299 41.5439 33.3694 42.25H26.1798Z"/>
</mask>
<path fill-rule="evenodd" clip-rule="evenodd" d="M26.1798 42.25C26.0615 41.5175 26 40.7659 26 40C26 32.268 32.268 26 40 26C47.732 26 54 32.268 54 40C54 40.7659 53.9385 41.5175 53.8202 42.25H46.6306C46.8701 41.5439 47 40.7871 47 40C47 36.134 43.866 33 40 33C36.134 33 33 36.134 33 40C33 40.7871 33.1299 41.5439 33.3694 42.25H26.1798Z" fill="#D6E4F7"/>
<path d="M26.1798 42.25L25.1926 42.4095C25.2709 42.8939 25.6891 43.25 26.1798 43.25V42.25ZM53.8202 42.25V43.25C54.3109 43.25 54.7291 42.8939 54.8074 42.4095L53.8202 42.25ZM46.6306 42.25L45.6836 41.9288C45.58 42.234 45.63 42.5705 45.8178 42.8326C46.0056 43.0946 46.3082 43.25 46.6306 43.25V42.25ZM33.3694 42.25V43.25C33.6918 43.25 33.9944 43.0946 34.1822 42.8326C34.37 42.5705 34.42 42.234 34.3164 41.9288L33.3694 42.25ZM25 40C25 40.8195 25.0658 41.6244 25.1926 42.4095L27.167 42.0905C27.0572 41.4105 27 40.7123 27 40H25ZM40 25C31.7157 25 25 31.7157 25 40H27C27 32.8203 32.8203 27 40 27V25ZM55 40C55 31.7157 48.2843 25 40 25V27C47.1797 27 53 32.8203 53 40H55ZM54.8074 42.4095C54.9342 41.6244 55 40.8195 55 40H53C53 40.7123 52.9428 41.4105 52.833 42.0905L54.8074 42.4095ZM46.6306 43.25H53.8202V41.25H46.6306V43.25ZM46 40C46 40.6764 45.8885 41.3247 45.6836 41.9288L47.5776 42.5712C47.8517 41.763 48 40.8978 48 40H46ZM40 34C43.3137 34 46 36.6863 46 40H48C48 35.5818 44.4183 32 40 32V34ZM34 40C34 36.6863 36.6863 34 40 34V32C35.5817 32 32 35.5818 32 40H34ZM34.3164 41.9288C34.1115 41.3247 34 40.6764 34 40H32C32 40.8978 32.1483 41.763 32.4224 42.5712L34.3164 41.9288ZM26.1798 43.25H33.3694V41.25H26.1798V43.25Z" fill="#151B23" mask="url(#path-3-inside-1)"/>
<mask id="path-5-outside-2" maskUnits="userSpaceOnUse" x="32" y="32" width="16" height="11" fill="black">
<rect fill="white" x="32" y="32" width="16" height="11"/>
<path fill-rule="evenodd" clip-rule="evenodd" d="M46.8887 41.25C46.9618 40.8444 47 40.4267 47 40C47 36.134 43.866 33 40 33C36.134 33 33 36.134 33 40C33 40.4267 33.0382 40.8444 33.1113 41.25H46.8887Z"/>
</mask>
<path fill-rule="evenodd" clip-rule="evenodd" d="M46.8887 41.25C46.9618 40.8444 47 40.4267 47 40C47 36.134 43.866 33 40 33C36.134 33 33 36.134 33 40C33 40.4267 33.0382 40.8444 33.1113 41.25H46.8887Z" fill="white"/>
<path d="M46.8887 41.25V42.25H47.7246L47.8729 41.4274L46.8887 41.25ZM33.1113 41.25L32.1271 41.4274L32.2754 42.25H33.1113V41.25ZM46 40C46 40.3669 45.9672 40.7253 45.9046 41.0726L47.8729 41.4274C47.9565 40.9635 48 40.4864 48 40H46ZM40 34C43.3137 34 46 36.6863 46 40H48C48 35.5817 44.4183 32 40 32V34ZM34 40C34 36.6863 36.6863 34 40 34V32C35.5817 32 32 35.5817 32 40H34ZM34.0954 41.0726C34.0328 40.7253 34 40.3669 34 40H32C32 40.4864 32.0435 40.9635 32.1271 41.4274L34.0954 41.0726ZM33.1113 42.25H46.8887V40.25H33.1113V42.25Z" fill="#151B23" mask="url(#path-5-outside-2)"/>
<defs>
<linearGradient id="paint0_linear" x1="0" y1="0" x2="80" y2="80" gradientUnits="userSpaceOnUse">
<stop offset="0.104167" stop-color="#ACC9DA"/>
<stop offset="0.203125" stop-color="#E7AED2"/>
<stop offset="0.317708" stop-color="#FF9ECA"/>
<stop offset="0.479167" stop-color="#6EFFFB"/>
<stop offset="0.536458" stop-color="#BCFFDF"/>
<stop offset="0.692708" stop-color="#FF9FB4"/>
<stop offset="0.918609" stop-color="#ACB8DA"/>
</linearGradient>
<linearGradient id="paint1_linear" x1="11.25" y1="10.75" x2="71" y2="65.25" gradientUnits="userSpaceOnUse">
<stop stop-color="#D6E4F7" stop-opacity="0.83"/>
<stop offset="1" stop-color="#D6E4F7" stop-opacity="0.46"/>
</linearGradient>
</defs>
</svg>
