<svg width="80" height="80" viewBox="0 0 80 80" fill="none" xmlns="http://www.w3.org/2000/svg">
<circle cx="40" cy="40" r="40" fill="#F1F6FC"/>
<circle cx="27" cy="42" r="9" fill="white"/>
<circle cx="52.5" cy="34.5" r="9.5" fill="white"/>
<circle cx="46" cy="59" r="4" fill="white"/>
<g filter="url(#filter0_i)">
<path d="M45 55C43.6822 54.9955 42.3783 54.7333 41.1626 54.2283C39.9469 53.7233 38.8432 52.9854 37.9146 52.0568C36.986 51.1283 36.2507 50.0271 35.7506 48.8163C35.2506 47.6055 34.9955 46.3087 35.0001 45C34.9955 43.6913 35.2506 42.3945 35.7506 41.1837C36.2507 39.9729 36.986 38.8717 37.9146 37.9432C38.8432 37.0146 39.9469 36.2767 41.1626 35.7717C42.3783 35.2667 43.6822 35.0045 45 35V35C46.3178 35.0045 47.6217 35.2667 48.8374 35.7717C50.0531 36.2767 51.1568 37.0146 52.0854 37.9432C53.014 38.8717 53.7493 39.9729 54.2494 41.1837C54.7495 42.3945 55.0045 43.6913 54.9999 45C55.0045 46.3087 54.7495 47.6055 54.2494 48.8163C53.7493 50.0271 53.014 51.1283 52.0854 52.0568C51.1568 52.9854 50.0531 53.7233 48.8374 54.2283C47.6217 54.7333 46.3178 54.9955 45 55Z" fill="#73D8F2"/>
</g>
<path d="M45 55C43.6822 54.9955 42.3783 54.7333 41.1626 54.2283C39.9469 53.7233 38.8432 52.9854 37.9146 52.0568C36.986 51.1283 36.2507 50.0271 35.7506 48.8163C35.2506 47.6055 34.9955 46.3087 35.0001 45C34.9955 43.6913 35.2506 42.3945 35.7506 41.1837C36.2507 39.9729 36.986 38.8717 37.9146 37.9432C38.8432 37.0146 39.9469 36.2767 41.1626 35.7717C42.3783 35.2667 43.6822 35.0045 45 35V35C46.3178 35.0045 47.6217 35.2667 48.8374 35.7717C50.0531 36.2767 51.1568 37.0146 52.0854 37.9432C53.014 38.8717 53.7493 39.9729 54.2494 41.1837C54.7495 42.3945 55.0045 43.6913 54.9999 45C55.0045 46.3087 54.7495 47.6055 54.2494 48.8163C53.7493 50.0271 53.014 51.1283 52.0854 52.0568C51.1568 52.9854 50.0531 53.7233 48.8374 54.2283C47.6217 54.7333 46.3178 54.9955 45 55Z" stroke="#283341" stroke-miterlimit="10" stroke-linecap="round" stroke-linejoin="round"/>
<g filter="url(#filter1_i)">
<path d="M35.8478 25L25 43H47L35.8478 25Z" fill="#F9A86C"/>
</g>
<path d="M35.8478 25L25 43H47L35.8478 25Z" stroke="#283341" stroke-miterlimit="10" stroke-linecap="round" stroke-linejoin="round"/>
<defs>
<filter id="filter0_i" x="34.5" y="34.5" width="21" height="21" filterUnits="userSpaceOnUse" color-interpolation-filters="sRGB">
<feFlood flood-opacity="0" result="BackgroundImageFix"/>
<feBlend mode="normal" in="SourceGraphic" in2="BackgroundImageFix" result="shape"/>
<feColorMatrix in="SourceAlpha" type="matrix" values="0 0 0 0 0 0 0 0 0 0 0 0 0 0 0 0 0 0 127 0" result="hardAlpha"/>
<feOffset dx="-6"/>
<feComposite in2="hardAlpha" operator="arithmetic" k2="-1" k3="1"/>
<feColorMatrix type="matrix" values="0 0 0 0 1 0 0 0 0 1 0 0 0 0 1 0 0 0 0.4 0"/>
<feBlend mode="normal" in2="shape" result="effect1_innerShadow"/>
</filter>
<filter id="filter1_i" x="24.5" y="24.5" width="23" height="19" filterUnits="userSpaceOnUse" color-interpolation-filters="sRGB">
<feFlood flood-opacity="0" result="BackgroundImageFix"/>
<feBlend mode="normal" in="SourceGraphic" in2="BackgroundImageFix" result="shape"/>
<feColorMatrix in="SourceAlpha" type="matrix" values="0 0 0 0 0 0 0 0 0 0 0 0 0 0 0 0 0 0 127 0" result="hardAlpha"/>
<feOffset dx="-6"/>
<feComposite in2="hardAlpha" operator="arithmetic" k2="-1" k3="1"/>
<feColorMatrix type="matrix" values="0 0 0 0 1 0 0 0 0 1 0 0 0 0 1 0 0 0 0.4 0"/>
<feBlend mode="normal" in2="shape" result="effect1_innerShadow"/>
</filter>
</defs>
</svg>
