<svg viewBox="0 0 80 80" fill="none" xmlns="http://www.w3.org/2000/svg">
<path d="M0 40C0 17.9086 17.9086 0 40 0C62.0914 0 80 17.9086 80 40C80 62.0914 62.0914 80 40 80C17.9086 80 0 62.0914 0 40Z" fill="#F5F3FB"/>
<path d="M27 31C27 29.8954 27.8954 29 29 29H51C52.1046 29 53 29.8954 53 31V48H27V31Z" fill="#BDB2E6" stroke="#5138AE"/>
<rect x="25" y="48" width="30" height="4" rx="2" fill="white" stroke="#5138AE"/>
<path d="M35.6505 41.045C34.0091 39.1984 34 34.5 34.27 32.9065C36 32.9065 40.4465 33.2699 41.9066 34.9126C43.3667 36.5553 43.7248 38.2753 43.2375 40.3612L44.8789 42.2078L42.2629 44.533L40.6216 42.6865C38.7665 43.2335 36.8131 42.353 35.6505 41.045Z" fill="white"/>
<path d="M34.27 32.9065C34 34.5 34.0091 39.1984 35.6505 41.045C36.8131 42.353 38.7665 43.2335 40.6216 42.6865L42.2629 44.533L44.8789 42.2078L43.2375 40.3612C43.7248 38.2753 43.3667 36.5553 41.9066 34.9126C40.4465 33.2699 36 32.9065 34.27 32.9065ZM34.27 32.9065L39.2526 38.5122" stroke="#5138AE" stroke-linecap="round" stroke-linejoin="round"/>
<circle cx="38.9204" cy="38.1385" r="0.875" transform="rotate(-41.6325 38.9204 38.1385)" fill="white" stroke="#5138AE" stroke-linecap="round" stroke-linejoin="round"/>
</svg>
