<svg viewBox="0 0 80 80" fill="none" xmlns="http://www.w3.org/2000/svg">
<path d="M0 40C0 17.9086 17.9086 0 40 0C62.0914 0 80 17.9086 80 40C80 62.0914 62.0914 80 40 80C17.9086 80 0 62.0914 0 40Z" fill="#F3FCFA"/>
<path d="M39.1004 27.3526C39.4651 26.6017 40.5349 26.6017 40.8996 27.3526L44.6353 35.0462L53.0217 36.2848C53.8369 36.4052 54.1648 37.4045 53.5794 37.9845L47.5 44.0077L48.9316 52.4918C49.0699 53.3109 48.2069 53.9317 47.4743 53.5402L40 49.5462L32.5257 53.5402C31.7931 53.9317 30.9301 53.3109 31.0684 52.4918L32.5 44.0077L26.4206 37.9845C25.8352 37.4045 26.1631 36.4052 26.9783 36.2848L35.3647 35.0462L39.1004 27.3526Z" fill="#AEEADE" stroke="#29A38A" stroke-linecap="round" stroke-linejoin="round"/>
</svg>
