<svg viewBox="0 0 80 80" fill="none" xmlns="http://www.w3.org/2000/svg">
<circle cx="40" cy="40" r="40" fill="#F1F6FC"/>
<circle cx="29" cy="40" r="12" fill="white"/>
<circle cx="51" cy="31" r="8" fill="white"/>
<circle cx="47" cy="60" r="4" fill="white"/>
<g filter="url(#filter0_iclrgstandard)">
<path d="M28 30C28 28.8954 28.8954 28 30 28H50C51.1046 28 52 28.8954 52 30V50C52 51.1046 51.1046 52 50 52H30C28.8954 52 28 51.1046 28 50V30Z" fill="#E77E90"/>
</g>
<path d="M28 30C28 28.8954 28.8954 28 30 28H50C51.1046 28 52 28.8954 52 30V50C52 51.1046 51.1046 52 50 52H30C28.8954 52 28 51.1046 28 50V30Z" stroke="#283341" stroke-miterlimit="10" stroke-linecap="round" stroke-linejoin="round"/>
<defs>
<filter id="filter0_iclrgstandard" x="27.5" y="27.5" width="25" height="25" filterUnits="userSpaceOnUse" color-interpolation-filters="sRGB">
<feFlood flood-opacity="0" result="BackgroundImageFix"/>
<feBlend mode="normal" in="SourceGraphic" in2="BackgroundImageFix" result="shape"/>
<feColorMatrix in="SourceAlpha" type="matrix" values="0 0 0 0 0 0 0 0 0 0 0 0 0 0 0 0 0 0 127 0" result="hardAlpha"/>
<feOffset dx="-6"/>
<feComposite in2="hardAlpha" operator="arithmetic" k2="-1" k3="1"/>
<feColorMatrix type="matrix" values="0 0 0 0 1 0 0 0 0 1 0 0 0 0 1 0 0 0 0.4 0"/>
<feBlend mode="normal" in2="shape" result="effect1_innerShadow"/>
</filter>
</defs>
</svg>
