<svg viewBox="0 0 80 80" fill="none" xmlns="http://www.w3.org/2000/svg">
<circle cx="40" cy="40" r="40" fill="#F1F6FC"/>
<circle cx="41.5" cy="54.5" r="9.5" fill="white"/>
<circle cx="51" cy="31" r="8" fill="white"/>
<circle cx="22" cy="35" r="4" fill="white"/>
<g filter="url(#filter0_i)">
<path d="M27 31C27 29.8954 27.8954 29 29 29H51C52.1046 29 53 29.8954 53 31V48H27V31Z" fill="#9C8BDA"/>
</g>
<path d="M27 31C27 29.8954 27.8954 29 29 29H51C52.1046 29 53 29.8954 53 31V48H27V31Z" stroke="#283341"/>
<rect x="25" y="48" width="30" height="4" rx="2" fill="#F1F6FC" stroke="#283341"/>
<g filter="url(#filter1_i)">
<path d="M43 39.75V33H32V39.375C32 40.5 33.32 41.625 34.2 42C34.2 41.25 35.08 39.75 35.52 39.75H43Z" fill="#16A3E9"/>
</g>
<path d="M43 39.75V33H32V39.375C32 40.5 33.32 41.625 34.2 42C34.2 41.25 35.08 39.75 35.52 39.75H43Z" stroke="#283341" stroke-linecap="round" stroke-linejoin="round"/>
<path d="M34 37H39" stroke="#283341" stroke-linecap="round"/>
<path d="M34 35H41" stroke="#283341" stroke-linecap="round"/>
<path d="M46.4197 44.6972L44.9912 40.002L49.3415 42.4068L47.9435 42.7053L49.7924 44.5194L48.7432 45.596L47.1249 43.4356L46.4197 44.6972Z" fill="#F1F6FC" stroke="#283341" stroke-linecap="round" stroke-linejoin="round"/>
<defs>
<filter id="filter0_i" x="26.5" y="28.5" width="27" height="20" filterUnits="userSpaceOnUse" color-interpolation-filters="sRGB">
<feFlood flood-opacity="0" result="BackgroundImageFix"/>
<feBlend mode="normal" in="SourceGraphic" in2="BackgroundImageFix" result="shape"/>
<feColorMatrix in="SourceAlpha" type="matrix" values="0 0 0 0 0 0 0 0 0 0 0 0 0 0 0 0 0 0 127 0" result="hardAlpha"/>
<feOffset dx="-6"/>
<feComposite in2="hardAlpha" operator="arithmetic" k2="-1" k3="1"/>
<feColorMatrix type="matrix" values="0 0 0 0 1 0 0 0 0 1 0 0 0 0 1 0 0 0 0.4 0"/>
<feBlend mode="normal" in2="shape" result="effect1_innerShadow"/>
</filter>
<filter id="filter1_i" x="31.5" y="32.5" width="12" height="10" filterUnits="userSpaceOnUse" color-interpolation-filters="sRGB">
<feFlood flood-opacity="0" result="BackgroundImageFix"/>
<feBlend mode="normal" in="SourceGraphic" in2="BackgroundImageFix" result="shape"/>
<feColorMatrix in="SourceAlpha" type="matrix" values="0 0 0 0 0 0 0 0 0 0 0 0 0 0 0 0 0 0 127 0" result="hardAlpha"/>
<feOffset dx="-3"/>
<feComposite in2="hardAlpha" operator="arithmetic" k2="-1" k3="1"/>
<feColorMatrix type="matrix" values="0 0 0 0 1 0 0 0 0 1 0 0 0 0 1 0 0 0 0.4 0"/>
<feBlend mode="normal" in2="shape" result="effect1_innerShadow"/>
</filter>
</defs>
</svg>
