<svg viewBox="0 0 80 80" fill="none" xmlns="http://www.w3.org/2000/svg">
<circle cx="40" cy="40" r="40" fill="#F1F6FC"/>
<circle cx="27" cy="42" r="9" fill="white"/>
<circle cx="52.5" cy="34.5" r="9.5" fill="white"/>
<circle cx="46" cy="59" r="4" fill="white"/>
<g filter="url(#filter0_i)">
<path d="M25 27C25 25.8954 25.8954 25 27 25H35C36.1046 25 37 25.8954 37 27V35C37 36.1046 36.1046 37 35 37H27C25.8954 37 25 36.1046 25 35V27Z" fill="#F9A86C"/>
</g>
<path d="M25 27C25 25.8954 25.8954 25 27 25H35C36.1046 25 37 25.8954 37 27V35C37 36.1046 36.1046 37 35 37H27C25.8954 37 25 36.1046 25 35V27Z" stroke="#283341" stroke-miterlimit="10" stroke-linecap="round" stroke-linejoin="round"/>
<g filter="url(#filter1_i)">
<path d="M43 45C43 43.8954 43.8954 43 45 43H53C54.1046 43 55 43.8954 55 45V53C55 54.1046 54.1046 55 53 55H45C43.8954 55 43 54.1046 43 53V45Z" fill="#E77E90"/>
</g>
<path d="M43 45C43 43.8954 43.8954 43 45 43H53C54.1046 43 55 43.8954 55 45V53C55 54.1046 54.1046 55 53 55H45C43.8954 55 43 54.1046 43 53V45Z" stroke="#283341" stroke-miterlimit="10" stroke-linecap="round" stroke-linejoin="round"/>
<path d="M53 38V34C53 31.7909 51.2091 30 49 30H42M42 30L46 26M42 30L46 34" stroke="#283341" stroke-linecap="round" stroke-linejoin="round"/>
<path d="M27 42L27 46C27 48.2091 28.7909 50 31 50L38 50M38 50L34 54M38 50L34 46" stroke="#283341" stroke-linecap="round" stroke-linejoin="round"/>
<defs>
<filter id="filter0_i" x="24.5" y="24.5" width="13" height="13" filterUnits="userSpaceOnUse" color-interpolation-filters="sRGB">
<feFlood flood-opacity="0" result="BackgroundImageFix"/>
<feBlend mode="normal" in="SourceGraphic" in2="BackgroundImageFix" result="shape"/>
<feColorMatrix in="SourceAlpha" type="matrix" values="0 0 0 0 0 0 0 0 0 0 0 0 0 0 0 0 0 0 127 0" result="hardAlpha"/>
<feOffset dx="-6"/>
<feComposite in2="hardAlpha" operator="arithmetic" k2="-1" k3="1"/>
<feColorMatrix type="matrix" values="0 0 0 0 1 0 0 0 0 1 0 0 0 0 1 0 0 0 0.4 0"/>
<feBlend mode="normal" in2="shape" result="effect1_innerShadow"/>
</filter>
<filter id="filter1_i" x="42.5" y="42.5" width="13" height="13" filterUnits="userSpaceOnUse" color-interpolation-filters="sRGB">
<feFlood flood-opacity="0" result="BackgroundImageFix"/>
<feBlend mode="normal" in="SourceGraphic" in2="BackgroundImageFix" result="shape"/>
<feColorMatrix in="SourceAlpha" type="matrix" values="0 0 0 0 0 0 0 0 0 0 0 0 0 0 0 0 0 0 127 0" result="hardAlpha"/>
<feOffset dx="-6"/>
<feComposite in2="hardAlpha" operator="arithmetic" k2="-1" k3="1"/>
<feColorMatrix type="matrix" values="0 0 0 0 1 0 0 0 0 1 0 0 0 0 1 0 0 0 0.4 0"/>
<feBlend mode="normal" in2="shape" result="effect1_innerShadow"/>
</filter>
</defs>
</svg>
