<svg viewBox="0 0 80 80" fill="none" xmlns="http://www.w3.org/2000/svg">
<path d="M0 40C0 17.9086 17.9086 0 40 0C62.0914 0 80 17.9086 80 40C80 62.0914 62.0914 80 40 80C17.9086 80 0 62.0914 0 40Z" fill="#F5F3FB"/>
<path d="M35.2898 28.6758C35.092 28.3637 34.6357 28.3665 34.4418 28.6811L25.4699 43.2377C25.2646 43.5708 25.5042 44 25.8955 44H44.0912C44.4854 44 44.7245 43.5653 44.5136 43.2324L35.2898 28.6758Z" fill="#FBC59D" stroke="#DD6509" stroke-miterlimit="10" stroke-linecap="round" stroke-linejoin="round"/>
<path d="M45.2898 28.6758C45.092 28.3637 44.6357 28.3665 44.4418 28.6811L35.4699 43.2377C35.2646 43.5708 35.5042 44 35.8955 44H54.0912C54.4854 44 54.7245 43.5653 54.5136 43.2324L45.2898 28.6758Z" fill="#BDB2E6" stroke="#5138AE" stroke-miterlimit="10" stroke-linecap="round" stroke-linejoin="round"/>
<path d="M40.2898 36.6758C40.092 36.3637 39.6357 36.3665 39.4418 36.6811L30.4699 51.2377C30.2646 51.5708 30.5042 52 30.8955 52H49.0912C49.4854 52 49.7245 51.5653 49.5136 51.2324L40.2898 36.6758Z" fill="#EFA9B5" stroke="#C2243F" stroke-miterlimit="10" stroke-linecap="round" stroke-linejoin="round"/>
</svg>
