<svg viewBox="0 0 80 80" fill="none" xmlns="http://www.w3.org/2000/svg">
<circle cx="40" cy="40" r="40" fill="#F1F6FC"/>
<circle cx="22" cy="37" r="6" fill="white"/>
<circle cx="49.5" cy="29.5" r="9.5" fill="white"/>
<circle cx="40" cy="56" r="8" fill="white"/>
<g filter="url(#filter0_i)">
<path d="M29.9264 39C30.5002 39 31.3029 38.9278 32 38.2483C32.6971 37.5688 33 35.8232 33 35.8232C33 35.8232 33.6085 37.5801 34.3944 38.2487C35.1803 38.9173 35.8516 39 36.6648 39C37.5 39 38.1827 38.8882 38.9346 38.2483C39.6865 37.6084 40 35.8232 40 35.8232C40 35.8232 40.2926 37.5817 41.0769 38.2488C41.8613 38.9159 42.5 39 43.3478 39C44.2188 39 44.8376 38.9121 45.6175 38.2483C46.3975 37.5845 46.5 35.8232 46.5 35.8232C46.5 35.8232 47 37.6339 47.7699 38.276C48.5397 38.918 49.2188 39 50.0238 39C50.5012 39 51.0106 38.9018 51.4497 38.677C51.8888 38.4522 52.2614 38.1212 52.5317 37.7159C52.8021 37.3105 52.9612 36.8443 52.9937 36.3619C53.0263 35.8794 52.9313 35.3969 52.7179 34.9605L50.484 30.619C50.2237 30.1273 49.8285 29.7156 49.3424 29.4298C48.8563 29.144 48.2984 28.9952 47.7307 29.0001H32.2681C31.707 29.0245 31.1611 29.1854 30.6802 29.4681C30.1993 29.7509 29.7986 30.1466 29.5148 30.619L27.2821 34.9605C27.0687 35.3968 26.9737 35.8792 27.0062 36.3616C27.0388 36.8439 27.1978 37.3101 27.468 37.7154C27.7382 38.1207 28.1106 38.4517 28.5495 38.6766C28.9885 38.9015 29.4297 39 29.9264 39Z" fill="#85E0CE"/>
</g>
<path d="M29.9264 39C30.5002 39 31.3029 38.9278 32 38.2483C32.6971 37.5688 33 35.8232 33 35.8232C33 35.8232 33.6085 37.5801 34.3944 38.2487C35.1803 38.9173 35.8516 39 36.6648 39C37.5 39 38.1827 38.8882 38.9346 38.2483C39.6865 37.6084 40 35.8232 40 35.8232C40 35.8232 40.2926 37.5817 41.0769 38.2488C41.8613 38.9159 42.5 39 43.3478 39C44.2188 39 44.8376 38.9121 45.6175 38.2483C46.3975 37.5845 46.5 35.8232 46.5 35.8232C46.5 35.8232 47 37.6339 47.7699 38.276C48.5397 38.918 49.2188 39 50.0238 39C50.5012 39 51.0106 38.9018 51.4497 38.677C51.8888 38.4522 52.2614 38.1212 52.5317 37.7159C52.8021 37.3105 52.9612 36.8443 52.9937 36.3619C53.0263 35.8794 52.9313 35.3969 52.7179 34.9605L50.484 30.619C50.2237 30.1273 49.8285 29.7156 49.3424 29.4298C48.8563 29.144 48.2984 28.9952 47.7307 29.0001H32.2681C31.707 29.0245 31.1611 29.1854 30.6802 29.4681C30.1993 29.7509 29.7986 30.1466 29.5148 30.619L27.2821 34.9605C27.0687 35.3968 26.9737 35.8792 27.0062 36.3616C27.0388 36.8439 27.1978 37.3101 27.468 37.7154C27.7382 38.1207 28.1106 38.4517 28.5495 38.6766C28.9885 38.9015 29.4297 39 29.9264 39Z" stroke="#283341" stroke-miterlimit="10" stroke-linecap="round" stroke-linejoin="round"/>
<path d="M30 39.0079V52H50V39C48.5 39 48 38.5 47.5 38C47 37.5 46.6667 36.5 46.5 36C46.5 37 45.8281 38.1719 45.5 38.5C45.1719 38.8281 44.6641 39 43.5 39C42 39 41.5 38.5 41 38C40.5664 37.5664 40.1667 36.6667 40 36C39.8333 36.5 39.4 37.6 39 38C38.5 38.5 37.5 39 36.5 39C35.5 39 34.6562 38.6562 34 38C33.2344 37.2344 33.3333 36.8333 33 36C32.8333 36.3333 32.5 37.5 32 38C31.5 38.5 31 39 30 39" stroke="#283341" stroke-linecap="round" stroke-linejoin="round"/>
<g filter="url(#filter1_i)">
<path d="M37 46C37 44.3431 38.3431 43 40 43C41.6569 43 43 44.3431 43 46V52H37V46Z" fill="#E77E90"/>
</g>
<path d="M37 46C37 44.3431 38.3431 43 40 43C41.6569 43 43 44.3431 43 46V52H37V46Z" stroke="#283341"/>
<defs>
<filter id="filter0_i" x="26.5" y="28.5" width="27" height="11" filterUnits="userSpaceOnUse" color-interpolation-filters="sRGB">
<feFlood flood-opacity="0" result="BackgroundImageFix"/>
<feBlend mode="normal" in="SourceGraphic" in2="BackgroundImageFix" result="shape"/>
<feColorMatrix in="SourceAlpha" type="matrix" values="0 0 0 0 0 0 0 0 0 0 0 0 0 0 0 0 0 0 127 0" result="hardAlpha"/>
<feOffset dx="-6"/>
<feComposite in2="hardAlpha" operator="arithmetic" k2="-1" k3="1"/>
<feColorMatrix type="matrix" values="0 0 0 0 1 0 0 0 0 1 0 0 0 0 1 0 0 0 0.4 0"/>
<feBlend mode="normal" in2="shape" result="effect1_innerShadow"/>
</filter>
<filter id="filter1_i" x="36.5" y="42.5" width="7" height="10" filterUnits="userSpaceOnUse" color-interpolation-filters="sRGB">
<feFlood flood-opacity="0" result="BackgroundImageFix"/>
<feBlend mode="normal" in="SourceGraphic" in2="BackgroundImageFix" result="shape"/>
<feColorMatrix in="SourceAlpha" type="matrix" values="0 0 0 0 0 0 0 0 0 0 0 0 0 0 0 0 0 0 127 0" result="hardAlpha"/>
<feOffset dx="-3"/>
<feComposite in2="hardAlpha" operator="arithmetic" k2="-1" k3="1"/>
<feColorMatrix type="matrix" values="0 0 0 0 1 0 0 0 0 1 0 0 0 0 1 0 0 0 0.4 0"/>
<feBlend mode="normal" in2="shape" result="effect1_innerShadow"/>
</filter>
</defs>
</svg>
