<svg viewBox="0 0 80 80" fill="none" xmlns="http://www.w3.org/2000/svg">
<circle cx="40" cy="40" r="40" fill="#F1F6FC"/>
<circle cx="39.5" cy="27.5" r="7.5" fill="white"/>
<circle cx="29.5" cy="49.5" r="9.5" fill="white"/>
<circle cx="52" cy="55" r="4" fill="white"/>
<g filter="url(#filter0_i)">
<path d="M39.1004 27.3526C39.4651 26.6017 40.5349 26.6017 40.8996 27.3526L44.6353 35.0462L53.0217 36.2848C53.8369 36.4052 54.1648 37.4045 53.5794 37.9845L47.5 44.0077L48.9316 52.4918C49.0699 53.3109 48.2069 53.9317 47.4743 53.5402L40 49.5462L32.5257 53.5402C31.7931 53.9317 30.9301 53.3109 31.0684 52.4918L32.5 44.0077L26.4206 37.9845C25.8352 37.4045 26.1631 36.4052 26.9783 36.2848L35.3647 35.0462L39.1004 27.3526Z" fill="#85E0CE"/>
</g>
<path d="M39.1004 27.3526C39.4651 26.6017 40.5349 26.6017 40.8996 27.3526L44.6353 35.0462L53.0217 36.2848C53.8369 36.4052 54.1648 37.4045 53.5794 37.9845L47.5 44.0077L48.9316 52.4918C49.0699 53.3109 48.2069 53.9317 47.4743 53.5402L40 49.5462L32.5257 53.5402C31.7931 53.9317 30.9301 53.3109 31.0684 52.4918L32.5 44.0077L26.4206 37.9845C25.8352 37.4045 26.1631 36.4052 26.9783 36.2848L35.3647 35.0462L39.1004 27.3526Z" stroke="#283341" stroke-linecap="round" stroke-linejoin="round"/>
<defs>
<filter id="filter0_i" x="25.6228" y="26.2894" width="28.7544" height="27.8721" filterUnits="userSpaceOnUse" color-interpolation-filters="sRGB">
<feFlood flood-opacity="0" result="BackgroundImageFix"/>
<feBlend mode="normal" in="SourceGraphic" in2="BackgroundImageFix" result="shape"/>
<feColorMatrix in="SourceAlpha" type="matrix" values="0 0 0 0 0 0 0 0 0 0 0 0 0 0 0 0 0 0 127 0" result="hardAlpha"/>
<feOffset dx="-6"/>
<feComposite in2="hardAlpha" operator="arithmetic" k2="-1" k3="1"/>
<feColorMatrix type="matrix" values="0 0 0 0 1 0 0 0 0 1 0 0 0 0 1 0 0 0 0.4 0"/>
<feBlend mode="normal" in2="shape" result="effect1_innerShadow"/>
</filter>
</defs>
</svg>
