<svg viewBox="0 0 80 80" fill="none" xmlns="http://www.w3.org/2000/svg">
<path d="M0 40C0 17.9086 17.9086 0 40 0C62.0914 0 80 17.9086 80 40C80 62.0914 62.0914 80 40 80C17.9086 80 0 62.0914 0 40Z" fill="#FEF6F0"/>
<path d="M50.588 27.4166C50.8519 27.6822 51 28.0419 51 28.4168V38H46.5C46 38 45 38.5 45 40V44H27V28.4168C27 28.0411 27.1488 27.6807 27.4136 27.415C27.6785 27.1493 28.0377 27 28.4122 27H49.5924C49.9662 27.0012 50.3242 27.151 50.588 27.4166Z" fill="#FBC59D" stroke="#DD6509" stroke-miterlimit="10" stroke-linecap="round" stroke-linejoin="round"/>
<path d="M45 48H26.4688C26.0794 48 25.706 47.8596 25.4305 47.6097C25.1551 47.3598 25.0003 47.0208 25 46.6673V45.3336C25 44.9799 25.1547 44.6407 25.4302 44.3906C25.7056 44.1405 26.0792 44 26.4688 44H45" fill="white"/>
<path d="M45 48H26.4688C26.0794 48 25.706 47.8596 25.4305 47.6097C25.1551 47.3598 25.0003 47.0208 25 46.6673V45.3336C25 44.9799 25.1547 44.6407 25.4302 44.3906C25.7056 44.1405 26.0792 44 26.4688 44H45V48Z" stroke="#DD6509" stroke-miterlimit="10" stroke-linecap="round" stroke-linejoin="round"/>
<path d="M45 39.5796V48H55V39.5796C55 39.1607 54.8244 38.7589 54.5118 38.4627C54.1993 38.1664 53.7754 38 53.3333 38H47C46 38 45.8007 38.1664 45.4882 38.4627C45.1756 38.7589 45 39.1607 45 39.5796Z" fill="#AEEADE" stroke="#29A38A" stroke-miterlimit="10" stroke-linecap="round" stroke-linejoin="round"/>
<path d="M45 48H55V50C55 50.5523 54.5523 51 54 51H46C45.4477 51 45 50.5523 45 50V48Z" fill="white" stroke="#29A38A"/>
</svg>
