<svg viewBox="0 0 80 80" fill="none" xmlns="http://www.w3.org/2000/svg">
<path d="M0 40C0 17.9086 17.9086 0 40 0C62.0914 0 80 17.9086 80 40C80 62.0914 62.0914 80 40 80C17.9086 80 0 62.0914 0 40Z" fill="#F5F3FB"/>
<path d="M27 31C27 29.8954 27.8954 29 29 29H51C52.1046 29 53 29.8954 53 31V48H27V31Z" fill="#BDB2E6" stroke="#5138AE"/>
<rect x="25" y="48" width="30" height="4" rx="2" fill="white" stroke="#5138AE"/>
<path d="M43 39.75V33H32V39.375C32 40.5 33.32 41.625 34.2 42C34.2 41.25 35.08 39.75 35.52 39.75H43Z" fill="white" stroke="#5138AE" stroke-linecap="round" stroke-linejoin="round"/>
<path d="M34 37H39" stroke="#5138AE" stroke-linecap="round"/>
<path d="M34 35H41" stroke="#5138AE" stroke-linecap="round"/>
<path d="M44.4501 44.3964L42 36.3435L49.4612 40.4681L47.0635 40.9799L50.2346 44.0914L48.4352 45.9379L45.6595 42.2325L44.4501 44.3964Z" fill="white" stroke="#283341" stroke-linecap="round" stroke-linejoin="round"/>
</svg>
