<svg viewBox="0 0 80 80" fill="none" xmlns="http://www.w3.org/2000/svg">
    <g clip-path="url(#clip0)">
        <path d="M45.5841 26.4148L42.8464 31.1555L33.4834 14.9383L4.74068 64.716H24.2014C24.2014 67.3343 26.3239 69.4568 28.9422 69.4568H4.74069C3.04714 69.4568 1.4824 68.5527 0.635766 67.086C-0.210864 65.6193 -0.210778 63.8123 0.635994 62.3457L29.3787 12.5679C30.2255 11.101 31.7906 10.1974 33.4844 10.1974C35.1781 10.1974 36.7432 11.101 37.5901 12.5679L45.5841 26.4148Z" fill="#00C58E"/>
        <path d="M66.3328 62.3457L48.322 31.1555L45.5842 26.4148L42.8464 31.1555L24.8375 62.3457C23.9908 63.8123 23.9907 65.6193 24.8373 67.086C25.6839 68.5527 27.2487 69.4568 28.9422 69.4568H62.2222C63.9161 69.4568 65.4815 68.5537 66.3286 67.0869C67.1757 65.62 67.1758 63.8126 66.3289 62.3457H66.3328ZM28.9422 64.716L45.5842 35.8963L62.2222 64.716H28.9422L28.9422 64.716Z" fill="#2F495E"/>
        <path d="M79.2098 67.0864C78.3631 68.5529 76.7985 69.4568 75.1051 69.4568H62.2221C64.8404 69.4568 66.9629 67.3343 66.9629 64.7161H75.0952L52.0197 24.7497L48.3219 31.1556L45.5841 26.4148L47.915 22.3793C48.7618 20.9124 50.3269 20.0088 52.0207 20.0088C53.7144 20.0088 55.2795 20.9124 56.1263 22.3793L79.2098 62.3457C80.0566 63.8125 80.0566 65.6197 79.2098 67.0864Z" fill="#108775"/>
    </g>
    <defs>
        <clipPath id="clip0">
            <rect width="80" height="59.6" fill="white" transform="translate(0 10)"/>
        </clipPath>
    </defs>
</svg>
