<svg viewBox="0 0 80 80" fill="none" xmlns="http://www.w3.org/2000/svg">
    <path d="M18.8766 28.5272H33.9653V29.7207H20.2597V38.7035H33.148V39.897H20.2597V49.7592H34.1225V50.9527H18.8766V28.5272ZM35.317 28.5272H36.9202L44.0245 38.3894L51.2859 28.5272L61.1627 16L44.9361 39.4259L53.2978 50.9527H51.6317L44.0245 40.4624L36.3858 50.9527H34.7512L43.1757 39.4259L35.317 28.5272ZM53.895 29.7207V28.5272H71.0899V29.7207H63.1683V50.9527H61.7852V29.7207H53.895Z" fill="#283341"/>
    <path d="M0 28.5272H1.72892L25.5697 64.0313L15.7174 50.9527L1.446 30.2233L1.38313 50.9527H0V28.5272Z" fill="#283341"/>
    <path d="M70.9506 49.399C71.2365 49.399 71.4451 49.1811 71.4451 48.8995C71.4451 48.6179 71.2365 48.4 70.9506 48.4C70.668 48.4 70.4561 48.6179 70.4561 48.8995C70.4561 49.1811 70.668 49.399 70.9506 49.399ZM72.3097 48.0849C72.3097 48.9163 72.9118 49.4594 73.7899 49.4594C74.7251 49.4594 75.2903 48.8995 75.2903 47.9274V44.5047H74.5367V47.924C74.5367 48.4637 74.2642 48.752 73.7831 48.752C73.3525 48.752 73.0599 48.4838 73.0498 48.0849H72.3097ZM76.2759 48.0413C76.3298 48.9062 77.0531 49.4594 78.1296 49.4594C79.2801 49.4594 80 48.8794 80 47.9542C80 47.2267 79.5896 46.8245 78.5938 46.5931L78.0589 46.4624C77.4265 46.3149 77.1708 46.1171 77.1708 45.7718C77.1708 45.336 77.5678 45.0511 78.1632 45.0511C78.7284 45.0511 79.1186 45.3293 79.1893 45.7752H79.9226C79.8789 44.9606 79.159 44.3873 78.1733 44.3873C77.1136 44.3873 76.4071 44.9606 76.4071 45.8221C76.4071 46.5328 76.8075 46.9552 77.6855 47.1597L78.3112 47.3105C78.9538 47.4614 79.2364 47.6826 79.2364 48.0514C79.2364 48.4805 78.7923 48.7923 78.1868 48.7923C77.5375 48.7923 77.0867 48.5006 77.0228 48.0413H76.2759Z" fill="#283341"/>
</svg>
