<svg viewBox="0 0 32 32" fill="none" xmlns="http://www.w3.org/2000/svg">
<path d="M4.50757 28.8135L2.28618 30.075C2.11952 30.1697 1.91272 30.0493 1.91272 29.8576V5.5C1.91272 3.84315 3.25587 2.5 4.91272 2.5H27.2836C29.6998 2.5 30.908 5.52034 30.908 9.14474C30.908 10.3529 31.0967 15.7895 29.0958 15.7895H23.6592V29.8576C23.6592 30.0493 23.4524 30.1697 23.2857 30.075L21.0643 28.8135C20.9877 28.77 20.894 28.77 20.8174 28.8135L18.346 30.217C18.2694 30.2605 18.1756 30.2605 18.0991 30.217L15.6277 28.8135C15.5511 28.77 15.4573 28.77 15.3808 28.8135L12.9094 30.217C12.8328 30.2605 12.739 30.2605 12.6625 30.217L10.1911 28.8135C10.1145 28.77 10.0207 28.77 9.94418 28.8135L7.47278 30.217C7.39622 30.2605 7.30243 30.2605 7.22587 30.217L4.75448 28.8135C4.67792 28.77 4.58413 28.77 4.50757 28.8135Z" fill="#AEEADE"/>
<path d="M27.2836 2.5H4.91272C3.25587 2.5 1.91272 3.84315 1.91272 5.5V29.8576C1.91272 30.0493 2.11952 30.1697 2.28618 30.075L4.50757 28.8135C4.58413 28.77 4.67792 28.77 4.75448 28.8135L7.22587 30.217C7.30243 30.2605 7.39622 30.2605 7.47278 30.217L9.94418 28.8135C10.0207 28.77 10.1145 28.77 10.1911 28.8135L12.6625 30.217C12.739 30.2605 12.8328 30.2605 12.9094 30.217L15.3808 28.8135C15.4573 28.77 15.5511 28.77 15.6277 28.8135L18.0991 30.217C18.1756 30.2605 18.2694 30.2605 18.346 30.217L20.8174 28.8135C20.894 28.77 20.9877 28.77 21.0643 28.8135L23.2857 30.075C23.4524 30.1697 23.6592 30.0493 23.6592 29.8576V15.7895M27.2836 2.5C29.6998 2.5 30.908 5.52034 30.908 9.14474C30.908 10.3529 31.0967 15.7895 29.0958 15.7895M27.2836 2.5C23.6592 2.5 23.6592 9.74881 23.6592 9.74881M29.0958 15.7895C26.6647 15.7895 26.9731 11.8758 27.186 10.3488C27.2295 10.0363 26.9892 9.74881 26.6737 9.74881H23.6592M29.0958 15.7895H23.6592M23.6592 9.74881V15.7895" stroke="#29A38A"/>
<path d="M5.83917 16.5H13.6921" stroke="#29A38A" stroke-linecap="round"/>
<path d="M5.83917 20.5H13.088" stroke="#29A38A" stroke-linecap="round"/>
<path d="M5.83917 24.75H11.8798" stroke="#29A38A" stroke-linecap="round"/>
<rect x="5" y="6" width="15" height="2" rx="1" fill="#85E0CE" stroke="#29A38A" stroke-linecap="round"/>
<rect x="5" y="11" width="13" height="2" rx="1" fill="#85E0CE" stroke="#29A38A" stroke-linecap="round"/>
<path d="M19.3144 22.2422C19.3144 22.103 19.292 21.9804 19.247 21.8744C19.2056 21.765 19.1365 21.6656 19.0397 21.5761C18.9464 21.4866 18.8221 21.4054 18.6666 21.3325C18.5146 21.2563 18.3297 21.1817 18.112 21.1088C17.7631 20.9895 17.4452 20.8636 17.1584 20.731C16.8717 20.5984 16.6264 20.4443 16.4225 20.2687C16.2221 20.0931 16.0666 19.8892 15.9561 19.6573C15.8455 19.422 15.7902 19.1436 15.7902 18.8221C15.7902 18.5404 15.8403 18.2836 15.9405 18.0516C16.0407 17.8163 16.1824 17.6125 16.3655 17.4402C16.5486 17.2678 16.7697 17.1286 17.0289 17.0226C17.2632 16.9267 17.5215 16.862 17.8038 16.8284C17.8551 16.8223 17.8944 16.7793 17.8944 16.7277V15.85C17.8944 15.7948 17.9391 15.75 17.9944 15.75H18.6236C18.6788 15.75 18.7236 15.7948 18.7236 15.85V16.7407C18.7236 16.791 18.761 16.8333 18.8107 16.8411C19.0871 16.8842 19.3379 16.9612 19.5632 17.0723C19.8119 17.1949 20.0227 17.3557 20.1955 17.5545C20.3717 17.75 20.5064 17.982 20.5997 18.2504C20.6866 18.4886 20.7345 18.7536 20.7433 19.0452C20.745 19.1004 20.7 19.1452 20.6448 19.1452H19.404C19.3488 19.1452 19.3043 19.1004 19.302 19.0452C19.2872 18.6935 19.1929 18.4236 19.019 18.2355C18.829 18.0267 18.5716 17.9224 18.2468 17.9224C18.0706 17.9224 17.9168 17.9456 17.7855 17.992C17.6577 18.035 17.5523 18.098 17.4694 18.1809C17.3865 18.2604 17.3243 18.3548 17.2828 18.4642C17.2448 18.5736 17.2258 18.6929 17.2258 18.8221C17.2258 18.9514 17.2448 19.0674 17.2828 19.1701C17.3243 19.2695 17.3917 19.3623 17.4849 19.4485C17.5817 19.5346 17.7078 19.6175 17.8633 19.697C18.0188 19.7733 18.2122 19.8511 18.4437 19.9307C18.7927 20.0566 19.1088 20.1875 19.3922 20.3234C19.6755 20.4559 19.9173 20.6117 20.1177 20.7907C20.3216 20.9663 20.477 21.1718 20.5842 21.4071C20.6947 21.6391 20.75 21.9141 20.75 22.2323C20.75 22.5239 20.6999 22.7874 20.5997 23.0227C20.4995 23.2547 20.3561 23.4552 20.1695 23.6242C19.983 23.7932 19.7584 23.9291 19.4958 24.0318C19.2579 24.1219 18.9945 24.1834 18.7055 24.2163C18.6542 24.2222 18.6148 24.2652 18.6148 24.3169V25.1C18.6148 25.1552 18.57 25.2 18.5148 25.2H17.8907C17.8355 25.2 17.7907 25.1552 17.7907 25.1V24.317C17.7907 24.2653 17.7512 24.2223 17.6998 24.2163C17.4381 24.1861 17.1834 24.1279 16.9356 24.0417C16.6592 23.9423 16.4139 23.7998 16.1997 23.6142C15.9889 23.4286 15.8196 23.195 15.6918 22.9133C15.5748 22.6525 15.5113 22.3445 15.5014 21.9893C15.4998 21.9341 15.5448 21.8893 15.6 21.8893H16.846C16.9012 21.8893 16.9457 21.9341 16.9482 21.9893C16.9571 22.1844 16.9926 22.3516 17.0548 22.4908C17.1273 22.6498 17.2206 22.7774 17.3346 22.8735C17.4521 22.9663 17.5851 23.0326 17.7337 23.0724C17.8823 23.1122 18.0343 23.132 18.1898 23.132C18.5595 23.132 18.8393 23.0492 19.0294 22.8835C19.2194 22.7178 19.3144 22.504 19.3144 22.2422Z" fill="#29A38A"/>
</svg>
