<svg viewBox="0 0 32 32" fill="none" xmlns="http://www.w3.org/2000/svg">
<path d="M1 3C1 1.89543 1.89543 1 3 1H19C20.1046 1 21 1.89543 21 3V19C21 20.1046 20.1046 21 19 21H3C1.89543 21 1 20.1046 1 19V3Z" fill="#AEEADE" stroke="#29A38A" stroke-miterlimit="10" stroke-linecap="round" stroke-linejoin="round"/>
<path d="M11 13C11 11.8954 11.8954 11 13 11H29C30.1046 11 31 11.8954 31 13V29C31 30.1046 30.1046 31 29 31H13C11.8954 31 11 30.1046 11 29V13Z" fill="#BDB2E6" stroke="#5138AE" stroke-miterlimit="10" stroke-linecap="round" stroke-linejoin="round"/>
</svg>
