<svg viewBox="0 0 32 32" fill="none" xmlns="http://www.w3.org/2000/svg">
<path d="M2.511 8.70605C2.50511 8.64718 2.55134 8.5961 2.6105 8.5961H29.8895C29.9487 8.5961 29.9949 8.64718 29.989 8.70605L27.9972 28.6243C27.9333 29.2633 27.3956 29.7499 26.7534 29.7499H5.74662C5.10443 29.7499 4.56672 29.2633 4.50282 28.6243L2.511 8.70605Z" fill="#BDB2E6" stroke="#5138AE"/>
<path d="M3.75 2.25H28.75V7.53846L29.7916 8.41982C29.8627 8.47999 29.8202 8.59615 29.727 8.59615H25H7.5H2.65156C2.60335 8.59615 2.58306 8.53465 2.62181 8.50597L3.75 7.67067V2.25Z" fill="#9C8BDA"/>
<path d="M3.75 2.25V1.75C3.47386 1.75 3.25 1.97386 3.25 2.25H3.75ZM28.75 2.25H29.25C29.25 1.97386 29.0261 1.75 28.75 1.75V2.25ZM25 4.89423L24.7119 4.4856C24.579 4.57928 24.5 4.73168 24.5 4.89423H25ZM7.5 4.89423H8C8 4.73168 7.92098 4.57928 7.78814 4.4856L7.5 4.89423ZM29.7916 8.41982L30.1146 8.03812L30.1146 8.03812L29.7916 8.41982ZM2.62181 8.50597L2.91933 8.90782L2.91933 8.90782L2.62181 8.50597ZM3.75 2.75H28.75V1.75H3.75V2.75ZM28.4619 1.84137L24.7119 4.4856L25.2881 5.30286L29.0381 2.65863L28.4619 1.84137ZM24.5 4.89423V8.59615H25.5V4.89423H24.5ZM25 8.09615H7.5V9.09615H25V8.09615ZM8 8.59615V4.89423H7V8.59615H8ZM7.78814 4.4856L4.03814 1.84137L3.46186 2.65863L7.21186 5.30286L7.78814 4.4856ZM29.727 8.09615H25V9.09615H29.727V8.09615ZM24.7119 5.30286L28.4619 7.94709L29.0381 7.12983L25.2881 4.4856L24.7119 5.30286ZM28.427 7.92015L29.4686 8.80151L30.1146 8.03812L29.073 7.15677L28.427 7.92015ZM28.25 2.25V7.53846H29.25V2.25H28.25ZM2.65156 9.09615H7.5V8.09615H2.65156V9.09615ZM7.20248 4.49238L3.45248 7.26883L4.04752 8.07252L7.79752 5.29608L7.20248 4.49238ZM3.45248 7.26883L2.32429 8.10412L2.91933 8.90782L4.04752 8.07252L3.45248 7.26883ZM3.25 2.25V7.67067H4.25V2.25H3.25ZM2.65156 8.09615C3.08543 8.09615 3.26803 8.64965 2.91933 8.90782L2.32429 8.10412C1.8981 8.41966 2.12128 9.09615 2.65156 9.09615V8.09615ZM29.727 9.09615C30.2859 9.09615 30.5412 8.39916 30.1146 8.03812L29.4686 8.80151C29.1842 8.56082 29.3544 8.09615 29.727 8.09615V9.09615Z" fill="#5138AE"/>
<circle cx="11.75" cy="13.5" r="1.5" fill="#F5F3FB" stroke="#5138AE"/>
<circle cx="20.75" cy="13.5" r="1.5" fill="#F5F3FB" stroke="#5138AE"/>
<path d="M11.81 13.75C11.81 15.9167 11.81 20.25 16.31 20.25C20.81 20.25 20.81 15.9167 20.81 13.75" stroke="#5138AE" stroke-linecap="round"/>
</svg>
