<svg viewBox="0 0 32 32" fill="none" xmlns="http://www.w3.org/2000/svg">
<path d="M11.2898 4.6758C11.092 4.36367 10.6357 4.36651 10.4418 4.68107L1.46987 19.2377C1.26455 19.5708 1.5042 20 1.89552 20H20.0912C20.4854 20 20.7245 19.5653 20.5136 19.2324L11.2898 4.6758Z" fill="#FBC59D" stroke="#DD6509" stroke-miterlimit="10" stroke-linecap="round" stroke-linejoin="round"/>
<path d="M21.2898 4.6758C21.092 4.36367 20.6357 4.36651 20.4418 4.68107L11.4699 19.2377C11.2646 19.5708 11.5042 20 11.8955 20H30.0912C30.4854 20 30.7245 19.5653 30.5136 19.2324L21.2898 4.6758Z" fill="#BDB2E6" stroke="#5138AE" stroke-miterlimit="10" stroke-linecap="round" stroke-linejoin="round"/>
<path d="M16.2898 12.6758C16.092 12.3637 15.6357 12.3665 15.4418 12.6811L6.46987 27.2377C6.26455 27.5708 6.5042 28 6.89552 28H25.0912C25.4854 28 25.7245 27.5653 25.5136 27.2324L16.2898 12.6758Z" fill="#EFA9B5" stroke="#C2243F" stroke-miterlimit="10" stroke-linecap="round" stroke-linejoin="round"/>
</svg>
