<svg viewBox="0 0 80 80" fill="none" xmlns="http://www.w3.org/2000/svg">
    <path d="M80 39.6298C80 34.3302 73.3632 29.3078 63.1879 26.1932C65.5361 15.8223 64.4925 7.57114 59.894 4.92947C58.8341 4.30982 57.5948 4.01631 56.2413 4.01631V7.65267C56.9914 7.65267 57.5948 7.79943 58.1003 8.07664C60.318 9.34855 61.2801 14.1916 60.53 20.4207C60.3506 21.9535 60.0571 23.5679 59.6983 25.2148C56.5022 24.4321 53.0126 23.8288 49.3437 23.4374C47.1423 20.4207 44.8594 17.6812 42.5601 15.2841C47.8761 10.3433 52.8659 7.63636 56.2576 7.63636V4C51.7733 4 45.903 7.19609 39.9674 12.7403C34.0318 7.2287 28.1614 4.06523 23.6771 4.06523V7.70159C27.0526 7.70159 32.0587 10.3922 37.3746 15.3004C35.0917 17.6975 32.8088 20.4207 30.64 23.4374C26.9548 23.8288 23.4651 24.4321 20.2691 25.2311C19.894 23.6005 19.6168 22.0188 19.4211 20.5022C18.6547 14.2731 19.6005 9.43009 21.8019 8.14187C22.2911 7.84835 22.927 7.7179 23.6771 7.7179V4.08153C22.3074 4.08153 21.0681 4.37505 19.9918 4.9947C15.4097 7.63636 14.3824 15.8712 16.7468 26.2095C6.60416 29.3404 0 34.3465 0 39.6298C0 44.9295 6.63677 49.9519 16.8121 53.0664C14.4639 63.4374 15.5075 71.6885 20.106 74.3302C21.1659 74.9499 22.4052 75.2434 23.775 75.2434C28.2593 75.2434 34.1296 72.0473 40.0652 66.5031C46.0008 72.0147 51.8712 75.1781 56.3555 75.1781C57.7252 75.1781 58.9645 74.8846 60.0408 74.265C64.6229 71.6233 65.6502 63.3885 63.2858 53.0501C73.3958 49.9356 80 44.9132 80 39.6298ZM58.7689 28.7534C58.1655 30.8569 57.4154 33.0257 56.5675 35.1945C55.8989 33.8899 55.1977 32.5854 54.4313 31.2809C53.6812 29.9764 52.8822 28.7044 52.0832 27.4651C54.3987 27.8076 56.6327 28.2316 58.7689 28.7534ZM51.3004 46.1199C50.0285 48.3212 48.724 50.4085 47.3706 52.349C44.9409 52.5609 42.4786 52.6751 40 52.6751C37.5377 52.6751 35.0754 52.5609 32.662 52.3653C31.3086 50.4248 29.9878 48.3539 28.7159 46.1688C27.4766 44.0326 26.3514 41.8638 25.3241 39.6788C26.3351 37.4937 27.4766 35.3086 28.6996 33.1724C29.9715 30.9711 31.276 28.8838 32.6294 26.9433C35.0591 26.7313 37.5214 26.6172 40 26.6172C42.4623 26.6172 44.9246 26.7313 47.338 26.927C48.6914 28.8675 50.0122 30.9384 51.2841 33.1235C52.5234 35.2597 53.6486 37.4285 54.6759 39.6135C53.6486 41.7986 52.5234 43.9837 51.3004 46.1199ZM56.5675 44C57.448 46.1851 58.1981 48.3702 58.8178 50.49C56.6816 51.0118 54.4313 51.4521 52.0995 51.7945C52.8985 50.5389 53.6975 49.2507 54.4476 47.9299C55.1977 46.6254 55.8989 45.3045 56.5675 44ZM40.0326 61.3991C38.5161 59.8337 36.9996 58.0889 35.4994 56.181C36.967 56.2462 38.4672 56.2951 39.9837 56.2951C41.5165 56.2951 43.033 56.2625 44.5169 56.181C43.0493 58.0889 41.5328 59.8337 40.0326 61.3991ZM27.9005 51.7945C25.585 51.4521 23.351 51.0281 21.2148 50.5063C21.8182 48.4028 22.5683 46.234 23.4162 44.0652C24.0848 45.3698 24.786 46.6743 25.5524 47.9788C26.3188 49.2833 27.1015 50.5552 27.9005 51.7945ZM39.9511 17.8606C41.4676 19.426 42.9841 21.1708 44.4843 23.0787C43.0167 23.0135 41.5165 22.9645 40 22.9645C38.4672 22.9645 36.9507 22.9971 35.4668 23.0787C36.9344 21.1708 38.4509 19.426 39.9511 17.8606ZM27.8842 27.4651C27.0852 28.7207 26.2862 30.009 25.5361 31.3298C24.786 32.6343 24.0848 33.9389 23.4162 35.2434C22.5357 33.0583 21.7856 30.8732 21.1659 28.7534C23.3021 28.2479 25.5524 27.8076 27.8842 27.4651ZM13.1268 47.881C7.35426 45.4187 3.62006 42.19 3.62006 39.6298C3.62006 37.0697 7.35426 33.8247 13.1268 31.3787C14.5292 30.7754 16.062 30.2373 17.6437 29.7318C18.5732 32.9278 19.7962 36.2544 21.3127 39.6625C19.8125 43.0542 18.6058 46.3644 17.6926 49.5442C16.0783 49.0387 14.5455 48.4843 13.1268 47.881ZM21.8997 71.183C19.682 69.9111 18.7199 65.0681 19.47 58.839C19.6494 57.3062 19.9429 55.6918 20.3017 54.0448C23.4978 54.8276 26.9874 55.4309 30.6563 55.8223C32.8577 58.839 35.1406 61.5785 37.4399 63.9755C32.1239 68.9164 27.1341 71.6233 23.7424 71.6233C23.0086 71.607 22.3889 71.4603 21.8997 71.183ZM60.5789 58.7574C61.3453 64.9865 60.3995 69.8296 58.1981 71.1178C57.7089 71.4113 57.073 71.5418 56.3229 71.5418C52.9474 71.5418 47.9413 68.8512 42.6254 63.9429C44.9083 61.5459 47.1912 58.8227 49.36 55.806C53.0453 55.4146 56.5349 54.8113 59.7309 54.0122C60.106 55.6592 60.3995 57.2409 60.5789 58.7574ZM66.8569 47.881C65.4546 48.4843 63.9217 49.0224 62.34 49.5279C61.4105 46.3318 60.1875 43.0053 58.671 39.5972C60.1712 36.2055 61.3779 32.8952 62.2911 29.7154C63.9054 30.221 65.4382 30.7754 66.8732 31.3787C72.6457 33.841 76.3799 37.0697 76.3799 39.6298C76.3636 42.19 72.6294 45.435 66.8569 47.881Z" fill="#61DAFB"/>
    <path d="M39.9837 47.0818C44.0994 47.0818 47.4358 43.7454 47.4358 39.6297C47.4358 35.514 44.0994 32.1776 39.9837 32.1776C35.868 32.1776 32.5316 35.514 32.5316 39.6297C32.5316 43.7454 35.868 47.0818 39.9837 47.0818Z" fill="#61DAFB"/>
</svg>
