<svg viewBox="0 0 48 48" fill="none" xmlns="http://www.w3.org/2000/svg">
<path fill-rule="evenodd" clip-rule="evenodd" d="M40.3651 35.5C39.6018 36.5842 38.7336 37.5891 37.775 38.5H10.225C9.26645 37.5891 8.39816 36.5842 7.63488 35.5H40.3651ZM42.1091 32.5C42.5608 31.5393 42.9383 30.5369 43.2342 29.5H4.76576C5.06169 30.5369 5.4392 31.5393 5.8909 32.5H42.1091ZM44 24C44 24.8467 43.9474 25.681 43.8453 26.5H33.685C33.8906 25.701 34 24.8632 34 24C34 18.4772 29.5228 14 24 14C18.4772 14 14 18.4772 14 24C14 24.8632 14.1094 25.701 14.315 26.5H4.15473C4.05261 25.681 4 24.8467 4 24C4 12.9543 12.9543 4 24 4C35.0457 4 44 12.9543 44 24ZM24 44C20.4844 44 17.1806 43.0929 14.31 41.5H33.69C30.8194 43.0929 27.5156 44 24 44Z" fill="white"/>
</svg>
