<svg viewBox="0 0 80 80" fill="none" xmlns="http://www.w3.org/2000/svg">
<path d="M16.4184 10.2468C16.4184 20.9441 23.0619 27.3624 36.349 30.7405L50.4243 34.0059C63.0358 36.9336 70.6928 44.1402 70.6928 55.8508C70.8054 60.9179 69.1163 65.8724 66.0761 69.9261C66.0761 58.2155 59.9955 51.9097 45.4698 48.0812L31.6197 44.9284C20.4721 42.4511 11.9143 36.4832 11.9143 23.7591C11.9143 18.9172 13.4907 14.0753 16.4184 10.2468Z" fill="#F04939"/>
<path d="M57.4056 52.9231C63.3736 56.7516 66.076 62.1565 66.076 69.9261C61.0089 76.3445 52.3385 79.8351 42.0917 79.8351C24.8635 79.8351 12.5899 71.2773 10 56.5264H26.5526C28.692 63.2826 34.3221 66.4354 41.9791 66.4354C51.0999 66.548 57.293 61.5935 57.4056 52.9231ZM16.4183 10.1342C21.2602 3.82848 29.5928 0 39.727 0C57.4056 0 67.5398 9.346 70.1297 22.4079H54.1402C52.3385 17.2282 47.947 13.1745 39.9522 13.1745C31.2819 13.2871 25.4265 18.2416 25.0887 26.1238C19.2863 22.9238 16.1931 16.6652 16.4183 10.1342Z" fill="#F37368"/>
</svg>
