<svg viewBox="0 0 80 80" fill="none" xmlns="http://www.w3.org/2000/svg">
    <g clip-path="url(#clip0)">
        <path d="M69.3239 10.5849C61.8954 -0.0472968 47.2239 -3.19873 36.6158 3.56006L17.9853 15.4341C15.4685 17.0175 13.3098 19.1086 11.6471 21.5737C9.98438 24.0388 8.85433 26.8237 8.32915 29.7504C7.44044 34.6803 8.22157 39.7658 10.5489 44.2017C8.95414 46.6208 7.86647 49.3382 7.35158 52.1895C6.82084 55.1751 6.89161 58.2367 7.55975 61.1947C8.2279 64.1526 9.47996 66.9474 11.2425 69.415C18.6727 80.0482 33.3442 83.1983 43.9507 76.4399L62.5812 64.5658C65.0981 62.9826 67.257 60.8916 68.9197 58.4264C70.5824 55.9613 71.7124 53.1763 72.2373 50.2495C73.1259 45.3197 72.3454 40.2343 70.0192 35.7979C71.6135 33.3788 72.7008 30.6616 73.2152 27.8104C73.7463 24.8248 73.6757 21.7631 73.0075 18.8051C72.3393 15.8471 71.0871 13.0524 69.3242 10.5849" fill="#FF3E00"/>
        <path d="M34.7958 70.4153C31.8639 71.1776 28.7687 71.0219 25.9282 69.969C23.0877 68.9161 20.6388 67.0168 18.9121 64.5277C17.852 63.0439 17.0988 61.3632 16.6969 59.5844C16.295 57.8055 16.2525 55.9643 16.5717 54.1688C16.6798 53.5793 16.8285 52.998 17.0169 52.429L17.3678 51.3592L18.3223 52.0602C20.5266 53.6799 22.9913 54.9114 25.6101 55.7015L26.3025 55.9116L26.2388 56.6027C26.1541 57.5858 26.4203 58.5671 26.9902 59.3727C27.5098 60.1225 28.247 60.6947 29.1022 61.0122C29.9575 61.3296 30.8895 61.3769 31.7725 61.1477C32.1774 61.0395 32.5633 60.8699 32.9168 60.6448L51.5478 48.7721C52.0037 48.485 52.3948 48.1062 52.6962 47.6596C52.9975 47.2131 53.2026 46.7087 53.2983 46.1785C53.3938 45.6373 53.3807 45.0825 53.2596 44.5464C53.1385 44.0104 52.9119 43.5038 52.5929 43.0562C52.073 42.3063 51.3355 41.7339 50.48 41.4163C49.6244 41.0987 48.6921 41.0512 47.8088 41.2802C47.4044 41.3885 47.019 41.5579 46.6659 41.7828L39.5565 46.3149C38.3874 47.0582 37.1116 47.6184 35.7733 47.9762C32.8414 48.7385 29.7463 48.5827 26.9058 47.5298C24.0654 46.4769 21.6164 44.5777 19.8898 42.0886C18.8296 40.6047 18.0765 38.9241 17.6746 37.1453C17.2727 35.3664 17.2301 33.5252 17.5494 31.7297C17.8651 29.9698 18.5447 28.2952 19.5447 26.8129C20.5446 25.3307 21.8429 24.0735 23.3565 23.1217L41.9859 11.2479C43.1555 10.5034 44.4322 9.94245 45.7716 9.58459C48.7034 8.82231 51.7986 8.97814 54.639 10.031C57.4794 11.0839 59.9283 12.9831 61.655 15.4722C62.7151 16.956 63.4682 18.6367 63.8701 20.4155C64.272 22.1944 64.3146 24.0356 63.9954 25.8311C63.8868 26.4205 63.7381 27.0018 63.5502 27.5709L63.1993 28.6407L62.2453 27.9407C60.0411 26.3201 57.5762 25.0881 54.957 24.2979L54.2645 24.0877L54.3283 23.3967C54.4122 22.4136 54.1461 21.4325 53.5769 20.6267C53.0573 19.8769 52.3201 19.3046 51.4648 18.9872C50.6096 18.6698 49.6776 18.6225 48.7946 18.8517C48.3897 18.9599 48.0038 19.1295 47.6503 19.3546L29.0193 31.2278C28.5635 31.5146 28.1725 31.8934 27.8713 32.3398C27.5702 32.7863 27.3654 33.2906 27.2702 33.8207C27.174 34.3618 27.1867 34.9167 27.3076 35.4529C27.4285 35.9891 27.6551 36.4958 27.9742 36.9433C28.4941 37.6932 29.2316 38.2656 30.0871 38.5832C30.9426 38.9008 31.875 38.9483 32.7583 38.7193C33.1631 38.6109 33.549 38.4413 33.9026 38.2164L41.0111 33.686C42.1797 32.9417 43.4554 32.381 44.7939 32.0233C47.7257 31.261 50.8209 31.4168 53.6613 32.4697C56.5018 33.5226 58.9507 35.4219 60.6773 37.9109C61.7375 39.3948 62.4907 41.0754 62.8926 42.8543C63.2945 44.6331 63.337 46.4743 63.0178 48.2698C62.7018 50.0298 62.0221 51.7046 61.0222 53.187C60.0223 54.6694 58.7241 55.927 57.2106 56.8792L38.5812 68.7519C37.4116 69.4965 36.1349 70.0574 34.7955 70.4153" fill="white"/>
    </g>
    <defs>
        <clipPath id="clip0">
            <rect width="80" height="80" fill="white"/>
        </clipPath>
    </defs>
</svg>
