<svg viewBox="0 0 80 80" fill="none" xmlns="http://www.w3.org/2000/svg">
<g clip-path="url(#clip0)">
<path fill-rule="evenodd" clip-rule="evenodd" d="M80 40.985C80 35.3672 77.2789 30.9344 72.0781 30.9344C66.8553 30.9344 63.6953 35.3672 63.6953 40.9411C63.6953 47.5464 67.4259 50.882 72.7803 50.882C75.3917 50.882 77.3667 50.2895 78.8589 49.4556V45.0667C77.3667 45.8128 75.655 46.2736 73.4825 46.2736C71.3539 46.2736 69.4667 45.5275 69.2253 42.9381H79.9561C79.9561 42.6528 80 41.5117 80 40.985ZM69.1595 38.9003C69.1595 36.4206 70.6736 35.3892 72.0561 35.3892C73.3948 35.3892 74.8211 36.4206 74.8211 38.9003H69.1595Z" fill="#635BFF"/>
<path fill-rule="evenodd" clip-rule="evenodd" d="M55.2247 30.9344C53.0742 30.9344 51.6917 31.9439 50.9236 32.6461L50.6383 31.2856H45.8105V56.8728L51.2967 55.7097L51.3186 49.4995C52.1086 50.07 53.2717 50.882 55.2028 50.882C59.1308 50.882 62.7078 47.722 62.7078 40.7656C62.6858 34.4017 59.065 30.9344 55.2247 30.9344ZM53.908 46.0542C52.6133 46.0542 51.8453 45.5933 51.3186 45.0228L51.2967 36.8814C51.8672 36.245 52.6572 35.8061 53.908 35.8061C55.905 35.8061 57.2875 38.0444 57.2875 40.9192C57.2875 43.8597 55.9269 46.0542 53.908 46.0542Z" fill="#635BFF"/>
<path fill-rule="evenodd" clip-rule="evenodd" d="M38.2617 29.6397L43.7698 28.4547V24L38.2617 25.1631V29.6397Z" fill="#635BFF"/>
<path d="M43.7698 31.3075H38.2617V50.5089H43.7698V31.3075Z" fill="#635BFF"/>
<path fill-rule="evenodd" clip-rule="evenodd" d="M32.3586 32.9314L32.0075 31.3075H27.2675V50.5089H32.7536V37.4959C34.0483 35.8061 36.2427 36.1134 36.923 36.3547V31.3075C36.2208 31.0442 33.6533 30.5614 32.3586 32.9314Z" fill="#635BFF"/>
<path fill-rule="evenodd" clip-rule="evenodd" d="M21.3865 26.5455L16.0321 27.6866L16.0101 45.2641C16.0101 48.5119 18.446 50.9039 21.6937 50.9039C23.4932 50.9039 24.8099 50.5747 25.534 50.1797V45.725C24.8318 46.0103 21.3646 47.0197 21.3646 43.7719V35.9816H25.534V31.3075H21.3646L21.3865 26.5455Z" fill="#635BFF"/>
<path fill-rule="evenodd" clip-rule="evenodd" d="M6.55195 36.8814C6.55195 36.0256 7.25417 35.6964 8.41722 35.6964C10.085 35.6964 12.1917 36.2011 13.8594 37.1008V31.9439C12.0381 31.2197 10.2386 30.9344 8.41722 30.9344C3.9625 30.9344 1 33.2606 1 37.1447C1 43.2014 9.33889 42.2358 9.33889 44.8472C9.33889 45.8567 8.46111 46.1858 7.23222 46.1858C5.41083 46.1858 3.08472 45.4397 1.24139 44.4303V49.6531C3.28222 50.5308 5.345 50.9039 7.23222 50.9039C11.7967 50.9039 14.9347 48.6436 14.9347 44.7156C14.9128 38.1761 6.55195 39.3392 6.55195 36.8814Z" fill="#635BFF"/>
</g>
<defs>
<clipPath id="clip0">
<rect width="80" height="80" fill="white"/>
</clipPath>
</defs>
</svg>
