<svg viewBox="0 0 24 24" fill="none" xmlns="http://www.w3.org/2000/svg">
<path d="M2.12541 9.60198C2.06073 9.29149 2.29775 9 2.6149 9H21.3851C21.7023 9 21.9393 9.29149 21.8746 9.60198L19.5829 20.602C19.5346 20.8338 19.3303 21 19.0934 21H4.90657C4.66973 21 4.46538 20.8338 4.41708 20.602L2.12541 9.60198Z" fill="#41556C"/>
<path d="M21.3567 4.73869C21.4299 4.42505 21.1919 4.125 20.8698 4.125H10.491C10.2149 4.125 9.99104 3.90114 9.99104 3.625V3.5C9.99104 3.22386 9.76718 3 9.49104 3H3.13019C2.80812 3 2.57006 3.30005 2.64329 3.61369L3.46049 7.11369C3.51332 7.33995 3.71505 7.5 3.9474 7.5H20.3153C20.5476 7.5 20.7494 7.33995 20.8022 7.11369L21.3567 4.73869Z" fill="#41556C"/>
</svg>
