<svg viewBox="0 0 24 24" fill="none" xmlns="http://www.w3.org/2000/svg">
<path d="M2.17224 9.63156C2.0855 9.31349 2.32494 9 2.65463 9H21.3454C21.6751 9 21.9145 9.31349 21.8278 9.63156L19.1005 19.6316C19.0412 19.8491 18.8436 20 18.6181 20H5.3819C5.15642 20 4.95884 19.8491 4.89952 19.6316L2.17224 9.63156Z" fill="#41556C"/>
<path d="M20.6026 5.61919C20.6799 5.30414 20.4414 5 20.117 5H10.5C10.2239 5 10 4.77614 10 4.5C10 4.22386 9.77614 4 9.5 4H3.63757C3.31317 4 3.07465 4.30414 3.15198 4.61919L3.88835 7.61919C3.94323 7.84278 4.1437 8 4.37393 8H19.6261C19.8563 8 20.0568 7.84278 20.1117 7.61919L20.6026 5.61919Z" fill="#41556C"/>
</svg>
