<svg viewBox="0 0 24 24" fill="none" xmlns="http://www.w3.org/2000/svg">
<path fill-rule="evenodd" clip-rule="evenodd" d="M7.14198 12.8471C5.90241 14.4222 5.006 16.5655 4.64531 18.9432H2.94659C2.39431 18.9432 1.94042 18.4938 2.00639 17.9455C2.30356 15.4757 3.68067 13.3477 5.51509 12.5C6.01792 12.71 6.56662 12.8321 7.14198 12.8471Z" fill="#41546C"/>
<path fill-rule="evenodd" clip-rule="evenodd" d="M17 12.8471C18.2396 14.4222 19.136 16.5655 19.4967 18.9432H21.1954C21.7477 18.9432 22.2016 18.4938 22.1356 17.9455C21.8384 15.4757 20.4613 13.3477 18.6269 12.5C18.124 12.71 17.5754 12.8321 17 12.8471Z" fill="#41546C"/>
<path fill-rule="evenodd" clip-rule="evenodd" d="M7.71971 5.57476C7.50051 5.52448 7.27227 5.49792 7.03782 5.49792C5.36008 5.49792 4 6.858 4 8.53575C4 10.2135 5.36008 11.5736 7.03782 11.5736C7.8989 11.5736 8.6763 11.2153 9.22909 10.6397C8.16164 9.80706 7.47522 8.50869 7.47522 7.05C7.47522 6.53365 7.56123 6.03738 7.71971 5.57476Z" fill="#41546C"/>
<path fill-rule="evenodd" clip-rule="evenodd" d="M16.495 5.53569C16.6473 5.51219 16.8033 5.5 16.9622 5.5C18.6399 5.5 20 6.86008 20 8.53782C20 10.2156 18.6399 11.5756 16.9622 11.5756C16.1511 11.5756 15.4143 11.2578 14.8695 10.7399C16.0112 9.9132 16.7538 8.56937 16.7538 7.05208C16.7538 6.52039 16.6626 6.01 16.495 5.53569Z" fill="#41546C"/>
<circle cx="12.0518" cy="7.0518" r="3.5518" fill="#41546C"/>
<path fill-rule="evenodd" clip-rule="evenodd" d="M10.516 11.7096C7.98524 12.6236 6.05235 15.8035 5.75304 19.5007C5.70847 20.0512 6.16039 20.5 6.71267 20.5H17.2874C17.8397 20.5 18.2916 20.0512 18.247 19.5007C17.9474 15.8002 16.0114 12.618 13.4774 11.7072C13.0136 11.8583 12.5164 11.9403 11.993 11.9403C11.4724 11.9403 10.9777 11.8591 10.516 11.7096Z" fill="#41546C"/>
</svg>
