<svg viewBox="0 0 24 24" fill="none" xmlns="http://www.w3.org/2000/svg">
<rect fill="none"/>
<circle cx="16.7314" cy="8.53575" r="3.03782" fill="#41546C"/>
<path fill-rule="evenodd" clip-rule="evenodd" d="M14.9838 12.7249C13.1494 13.5725 11.7723 15.7006 11.4751 18.1704C11.4092 18.7187 11.8631 19.1681 12.4153 19.1681H21.0477C21.6 19.1681 22.0539 18.7187 21.9879 18.1704C21.6907 15.7005 20.3136 13.5724 18.4791 12.7248C17.9412 12.9495 17.3508 13.0736 16.7314 13.0736C16.112 13.0736 15.5217 12.9495 14.9838 12.7249Z" fill="#41546C"/>
<circle cx="7.26737" cy="8.53575" r="3.03782" fill="#41546C"/>
<path fill-rule="evenodd" clip-rule="evenodd" d="M5.51985 12.7249C3.68543 13.5725 2.30832 15.7006 2.01115 18.1704C1.94518 18.7187 2.39907 19.1681 2.95136 19.1681H11.5837C12.136 19.1681 12.5899 18.7187 12.5239 18.1704C12.2268 15.7005 10.8496 13.5724 9.01508 12.7248C8.47717 12.9495 7.88677 13.0736 7.26738 13.0736C6.64806 13.0736 6.05771 12.9495 5.51985 12.7249Z" fill="#41546C"/>
<circle cx="12.2121" cy="7.0518" r="3.5518" fill="#41546C"/>
<circle cx="12.2121" cy="7.0518" r="4.0518" stroke="white"/>
<path fill-rule="evenodd" clip-rule="evenodd" d="M10.7103 11.7106C8.20716 12.6259 6.29561 15.8048 5.9995 19.5007C5.95539 20.0512 6.40726 20.5 6.95955 20.5H17.404C17.9563 20.5 18.4081 20.0512 18.364 19.5007C18.0677 15.8018 16.1532 12.6207 13.6471 11.7084C13.1876 11.8586 12.6948 11.9404 12.1752 11.9404C11.6583 11.9404 11.1678 11.8595 10.7103 11.7106Z" fill="#41546C"/>
<mask id="path-8-outside-1" maskUnits="userSpaceOnUse" x="3.99567" y="9.70129" width="16" height="12" fill="black">
<rect fill="white" x="3.99567" y="9.70129" width="16" height="12"/>
<path fill-rule="evenodd" clip-rule="evenodd" d="M10.704 11.7013C8.20376 12.6151 6.29404 15.7989 5.99862 19.5007C5.95469 20.0513 6.40654 20.5001 6.95883 20.5001H17.376C17.9283 20.5001 18.3801 20.0513 18.3362 19.5007C18.0408 15.799 16.1311 12.6152 13.6309 11.7013C13.174 11.8502 12.684 11.9311 12.1675 11.9311C11.6509 11.9311 11.1609 11.8502 10.704 11.7013Z"/>
</mask>
<path d="M10.704 11.7013L11.0138 10.7505L10.6852 10.6434L10.3607 10.7621L10.704 11.7013ZM5.99862 19.5007L6.99545 19.5803H6.99545L5.99862 19.5007ZM18.3362 19.5007L17.3393 19.5803V19.5803L18.3362 19.5007ZM13.6309 11.7013L13.9742 10.7621L13.6497 10.6435L13.3211 10.7505L13.6309 11.7013ZM10.3607 10.7621C7.34658 11.8637 5.31359 15.5141 5.00179 19.4212L6.99545 19.5803C7.27449 16.0838 9.06095 13.3665 11.0473 12.6405L10.3607 10.7621ZM5.00179 19.4212C4.90723 20.6061 5.87704 21.5001 6.95883 21.5001V19.5001C6.95597 19.5001 6.962 19.4994 6.97111 19.5087C6.9761 19.5138 6.98326 19.5233 6.98878 19.538C6.99474 19.5539 6.99631 19.5695 6.99545 19.5803L5.00179 19.4212ZM6.95883 21.5001H17.376V19.5001H6.95883V21.5001ZM17.376 21.5001C18.4578 21.5001 19.4276 20.6061 19.333 19.4212L17.3393 19.5803C17.3385 19.5695 17.3401 19.5539 17.346 19.538C17.3515 19.5233 17.3587 19.5138 17.3637 19.5087C17.3728 19.4994 17.3788 19.5001 17.376 19.5001V21.5001ZM19.333 19.4212C19.0212 15.5141 16.9883 11.8638 13.9742 10.7621L13.2876 12.6405C15.2739 13.3666 17.0603 16.0838 17.3393 19.5803L19.333 19.4212ZM13.3211 10.7505C12.9639 10.8669 12.5785 10.9311 12.1675 10.9311V12.9311C12.7896 12.9311 13.3841 12.8335 13.9407 12.6521L13.3211 10.7505ZM12.1675 10.9311C11.7565 10.9311 11.371 10.8669 11.0138 10.7505L10.3942 12.6521C10.9508 12.8335 11.5453 12.9311 12.1675 12.9311V10.9311Z" fill="white" mask="url(#path-8-outside-1)"/>
</svg>
