<svg viewBox="0 0 24 24" fill="none" xmlns="http://www.w3.org/2000/svg">
<path fill-rule="evenodd" clip-rule="evenodd" d="M3 6C3 4.89543 3.89543 4 5 4H19C20.1046 4 21 4.89543 21 6V18C21 19.1046 20.1046 20 19 20H5C3.89543 20 3 19.1046 3 18V6ZM7.42383 14.9801C7.15866 14.6619 7.20165 14.189 7.51986 13.9238L9.82846 12L7.51986 10.0762C7.20165 9.81099 7.15866 9.33807 7.42383 9.01986C7.68901 8.70165 8.16193 8.65866 8.48014 8.92383L11.4801 11.4238C11.6511 11.5663 11.75 11.7774 11.75 12C11.75 12.2226 11.6511 12.4337 11.4801 12.5762L8.48014 15.0762C8.16193 15.3413 7.68901 15.2983 7.42383 14.9801ZM11.9999 13.75C11.5857 13.75 11.2499 14.0858 11.2499 14.5C11.2499 14.9142 11.5857 15.25 11.9999 15.25H15.9999C16.4142 15.25 16.7499 14.9142 16.7499 14.5C16.7499 14.0858 16.4142 13.75 15.9999 13.75H11.9999Z" fill="#41556C"/>
</svg>
