<svg viewBox="0 0 24 24" fill="none" xmlns="http://www.w3.org/2000/svg">
<path fill-rule="evenodd" clip-rule="evenodd" d="M2 6C2 5.44772 2.44772 5 3 5L17.5194 5C17.8232 5 18.1105 5.13809 18.3002 5.3753L21.5002 9.3753C21.7924 9.74052 21.7924 10.2595 21.5002 10.6247L18.3002 14.6247C18.1105 14.8619 17.8232 15 17.5194 15L3 15C2.44772 15 2 14.5523 2 14L2 6ZM18 10C18 10.8284 17.3284 11.5 16.5 11.5C15.6716 11.5 15 10.8284 15 10C15 9.17157 15.6716 8.5 16.5 8.5C17.3284 8.5 18 9.17157 18 10ZM5 7.5C5 7.22386 4.77614 7 4.5 7C4.22386 7 4 7.22386 4 7.5L4 12.5C4 12.7761 4.22386 13 4.5 13C4.77614 13 5 12.7761 5 12.5L5 7.5Z" fill="#41556C"/>
<path opacity="0.6" fill-rule="evenodd" clip-rule="evenodd" d="M2.79346 15.9894L3.96259 19.2016C4.15149 19.7206 4.72533 19.9882 5.24431 19.7993L15.6828 16H5.98982L6.26864 16.766C6.36309 17.0255 6.22929 17.3124 5.9698 17.4069C5.71032 17.5013 5.42339 17.3675 5.32895 17.108L4.92565 16H3C2.93026 16 2.86136 15.9964 2.79346 15.9894Z" fill="#7187A5"/>
</svg>
