<svg viewBox="0 0 24 24" fill="none" xmlns="http://www.w3.org/2000/svg">
<path fill-rule="evenodd" clip-rule="evenodd" d="M3.10822 15.5H16.6022L7.46489 20.9031C6.98949 21.1842 6.37623 21.0267 6.09512 20.5513L3.10822 15.5Z" fill="#41556C"/>
<path fill-rule="evenodd" clip-rule="evenodd" d="M2.99994 3C2.44765 3 1.99994 3.44771 1.99994 4L1.99994 13C1.99994 13.5523 2.44765 14 2.99994 14L17.7227 14C18.0403 14 18.3389 13.8492 18.5274 13.5936L21.8468 9.09361C22.1071 8.74068 22.1071 8.25932 21.8468 7.90639L18.5274 3.40639C18.3389 3.15083 18.0403 3 17.7227 3L2.99994 3ZM16.7063 10C17.5466 10 18.2277 9.32843 18.2277 8.5C18.2277 7.67157 17.5466 7 16.7063 7C15.8661 7 15.185 7.67157 15.185 8.5C15.185 9.32843 15.8661 10 16.7063 10Z" fill="#41556C"/>
</svg>
