<svg viewBox="0 0 24 24" fill="none" xmlns="http://www.w3.org/2000/svg">
<rect x="3" y="21" width="18" height="2" rx="1" fill="#41556C"/>
<path fill-rule="evenodd" clip-rule="evenodd" d="M4.99912 11C4.39597 11 3.93009 11.5299 4.00736 12.1281L4.91159 19.1281C4.976 19.6267 5.4006 20 5.90335 20H18.0961C18.5989 20 19.0235 19.6267 19.0879 19.1281L19.9921 12.1281C20.0694 11.5299 19.6035 11 19.0004 11H4.99912ZM12.7138 12.9875C12.4488 12.9096 12.1749 13.0623 12.1019 13.3286L11.0037 17.3356C10.9307 17.602 11.0863 17.881 11.3512 17.959C11.6161 18.0369 11.8901 17.8842 11.9631 17.6179L13.0613 13.6109C13.1343 13.3445 12.9787 13.0655 12.7138 12.9875ZM8.22734 16.0598C8.23594 16.0668 8.24481 16.0735 8.25396 16.08L9.57401 17.0148C9.80058 17.1753 10.1078 17.1172 10.2602 16.8852C10.4127 16.6531 10.3526 16.335 10.126 16.1745L9.34056 15.6183L10.204 14.9719C10.4259 14.8058 10.4776 14.4866 10.3195 14.2589C10.1614 14.0313 9.85337 13.9813 9.63148 14.1475L8.2065 15.2142C7.98462 15.3803 7.93291 15.6995 8.091 15.9272C8.12891 15.9818 8.17544 16.0262 8.22734 16.0598ZM15.6571 15.0756C15.6662 15.082 15.6751 15.0888 15.6837 15.0957C15.7356 15.1294 15.7821 15.1737 15.8201 15.2283C15.9782 15.456 15.9264 15.7752 15.7046 15.9413L14.2796 17.0081C14.0577 17.1742 13.7497 17.1243 13.5916 16.8966C13.4335 16.6689 13.4852 16.3497 13.7071 16.1836L14.5705 15.5372L13.785 14.981C13.5585 14.8205 13.4984 14.5024 13.6508 14.2703C13.8032 14.0383 14.1105 13.9803 14.337 14.1407L15.6571 15.0756Z" fill="#41556C"/>
<path fill-rule="evenodd" clip-rule="evenodd" d="M14.0075 6.22938C14.6169 5.68028 15 4.88488 15 4C15 2.34315 13.6569 1 12 1C10.3431 1 9 2.34315 9 4C9 4.88488 9.38311 5.68028 9.99251 6.22938C7.66604 6.7799 6 8.26024 6 10H18C18 8.26024 16.334 6.7799 14.0075 6.22938Z" fill="#41556C"/>
</svg>
