<svg viewBox="0 0 24 24" fill="none" xmlns="http://www.w3.org/2000/svg">
<path d="M10 17.4159C10 16.3113 10.8954 15.4159 12 15.4159V15.4159C13.1046 15.4159 14 16.3113 14 17.4159V21.4159H10V17.4159Z" fill="#41546C"/>
<path fill-rule="evenodd" clip-rule="evenodd" d="M2.62611 10.0854L10.7335 3.45209C11.4702 2.8493 12.5297 2.8493 13.2665 3.45209L21.3739 10.0854C21.9194 10.5317 21.6038 11.4159 20.8989 11.4159H20.1171L13.1419 5.40946C12.4855 4.84426 11.5145 4.84425 10.8581 5.40946L3.88289 11.4159H3.10104C2.3962 11.4159 2.08059 10.5317 2.62611 10.0854ZM3.99998 13.2945V19.4159C3.99998 20.5205 4.89541 21.4159 5.99998 21.4159H8.49998V17.05C8.49998 15.3931 9.84313 14.05 11.5 14.05H12.5C14.1568 14.05 15.5 15.3931 15.5 17.05V21.4159H18C19.1046 21.4159 20 20.5205 20 19.4159V13.2945L12.1631 6.54611C12.0694 6.46537 11.9306 6.46537 11.8369 6.54611L3.99998 13.2945Z" fill="#41546C"/>
</svg>
