<svg viewBox="0 0 24 24" fill="none" xmlns="http://www.w3.org/2000/svg">
<path fill-rule="evenodd" clip-rule="evenodd" d="M4 2C2.89543 2 2 2.89543 2 4V16C2 17.1046 2.89543 18 4 18H12C13.1046 18 14 17.1046 14 16V4C14 2.89543 13.1046 2 12 2H4ZM3.5 5C3.5 4.72386 3.72386 4.5 4 4.5H12C12.2761 4.5 12.5 4.72386 12.5 5C12.5 5.27614 12.2761 5.5 12 5.5H4C3.72386 5.5 3.5 5.27614 3.5 5ZM3.5 11C3.5 10.7239 3.72386 10.5 4 10.5H12C12.2761 10.5 12.5 10.7239 12.5 11C12.5 11.2761 12.2761 11.5 12 11.5H4C3.72386 11.5 3.5 11.2761 3.5 11ZM4 7.5C3.72386 7.5 3.5 7.72386 3.5 8C3.5 8.27614 3.72386 8.5 4 8.5H10C10.2761 8.5 10.5 8.27614 10.5 8C10.5 7.72386 10.2761 7.5 10 7.5H4ZM3.5 14C3.5 13.7239 3.72386 13.5 4 13.5H8C8.27614 13.5 8.5 13.7239 8.5 14C8.5 14.2761 8.27614 14.5 8 14.5H4C3.72386 14.5 3.5 14.2761 3.5 14Z" fill="#41556C"/>
<path opacity="0.6" fill-rule="evenodd" clip-rule="evenodd" d="M10 19V20C10 21.1046 10.8954 22 12 22H20C21.1046 22 22 21.1046 22 20V8C22 6.89543 21.1046 6 20 6H14.9999V8.5H20C20.2762 8.5 20.5 8.72386 20.5 9C20.5 9.27614 20.2762 9.5 20 9.5H14.9999V11.5H18C18.2762 11.5 18.5 11.7239 18.5 12C18.5 12.2761 18.2762 12.5 18 12.5H14.9999V14.5H20C20.2762 14.5 20.5 14.7239 20.5 15C20.5 15.2761 20.2762 15.5 20 15.5H14.9999V16C14.9999 17.6569 13.6568 19 11.9999 19H10Z" fill="#7187A5"/>
</svg>
