<svg viewBox="0 0 24 24" fill="none" xmlns="http://www.w3.org/2000/svg">
<path fill-rule="evenodd" clip-rule="evenodd" d="M4 2C2.89543 2 2 2.89543 2 4V16C2 17.1046 2.89543 18 4 18H12C13.1046 18 14 17.1046 14 16V4C14 2.89543 13.1046 2 12 2H4ZM4.99999 4.25C4.58578 4.25 4.24999 4.58579 4.24999 5C4.24999 5.41421 4.58578 5.75 4.99999 5.75H11C11.4142 5.75 11.75 5.41421 11.75 5C11.75 4.58579 11.4142 4.25 11 4.25H4.99999ZM4.99999 7.25C4.58578 7.25 4.24999 7.58579 4.24999 8C4.24999 8.41421 4.58578 8.75 4.99999 8.75H8.99999C9.41421 8.75 9.74999 8.41421 9.74999 8C9.74999 7.58579 9.41421 7.25 8.99999 7.25H4.99999ZM4.24999 11C4.24999 10.5858 4.58578 10.25 4.99999 10.25H11C11.4142 10.25 11.75 10.5858 11.75 11C11.75 11.4142 11.4142 11.75 11 11.75H4.99999C4.58578 11.75 4.24999 11.4142 4.24999 11Z" fill="#41556C"/>
<path fill-rule="evenodd" clip-rule="evenodd" d="M10.0001 19.5V20C10.0001 21.1046 10.8955 22 12.0001 22H20.0001C21.1046 22 22.0001 21.1046 22.0001 20V8C22.0001 6.89543 21.1046 6 20.0001 6H15.5V8.25H19C19.4142 8.25 19.75 8.58579 19.75 9C19.75 9.41421 19.4142 9.75 19 9.75H15.5V11.25H19C19.4142 11.25 19.75 11.5858 19.75 12C19.75 12.4142 19.4142 12.75 19 12.75H15.5V14.25H17C17.4142 14.25 17.75 14.5858 17.75 15C17.75 15.4142 17.4142 15.75 17 15.75H15.5V16C15.5 17.933 13.933 19.5 12 19.5H10.0001Z" fill="#41556C"/>
</svg>
