<svg viewBox="0 0 24 24" fill="none" xmlns="http://www.w3.org/2000/svg">
<path fill-rule="evenodd" clip-rule="evenodd" d="M3.36082 21.8491L5.13918 20.9697C5.20902 20.9352 5.29098 20.9352 5.36082 20.9697L7.38918 21.9728C7.45902 22.0073 7.54098 22.0073 7.61082 21.9728L9.63918 20.9697C9.70902 20.9352 9.79098 20.9352 9.86082 20.9697L11.8892 21.9728C11.959 22.0073 12.041 22.0073 12.1108 21.9728L14.1392 20.9697C14.209 20.9352 14.291 20.9352 14.3608 20.9697L16.3892 21.9728C16.459 22.0073 16.541 22.0073 16.6108 21.9728L18.6392 20.9697C18.709 20.9352 18.791 20.9352 18.8608 20.9697L20.6392 21.8491C20.8053 21.9313 21 21.8104 21 21.625V3C21 2.44772 20.5523 2 20 2H4C3.44772 2 3 2.44771 3 3V21.625C3 21.8104 3.19466 21.9313 3.36082 21.8491ZM17.6328 15.1831C17.6328 15.0505 17.6114 14.9337 17.5686 14.8327C17.5291 14.7286 17.4633 14.6339 17.3712 14.5487C17.2823 14.4634 17.1639 14.3861 17.0158 14.3167C16.871 14.2441 16.695 14.1731 16.4877 14.1036C16.1553 13.99 15.8526 13.8701 15.5795 13.7438C15.3064 13.6176 15.0727 13.4708 14.8786 13.3035C14.6877 13.1362 14.5397 12.9421 14.4344 12.7212C14.3291 12.4971 14.2764 12.232 14.2764 11.9258C14.2764 11.6575 14.3241 11.4129 14.4195 11.192C14.515 10.9679 14.6499 10.7738 14.8243 10.6097C14.9987 10.4456 15.2093 10.313 15.4561 10.212C15.678 10.1212 15.9226 10.0597 16.1898 10.0276C16.241 10.0214 16.2804 9.97844 16.2804 9.92683V9.1C16.2804 9.04477 16.3251 9 16.3804 9H16.9701C17.0253 9 17.0701 9.04477 17.0701 9.1V9.93933C17.0701 9.98965 17.1075 10.0319 17.1572 10.0398C17.4188 10.0809 17.6562 10.1541 17.8697 10.2593C18.1066 10.3761 18.3073 10.5292 18.4719 10.7186C18.6397 10.9048 18.768 11.1257 18.8569 11.3814C18.9392 11.6069 18.9847 11.8576 18.9935 12.1336C18.9952 12.1888 18.9503 12.2336 18.8951 12.2336H17.7229C17.6677 12.2336 17.6232 12.1887 17.6207 12.1336C17.606 11.8009 17.5163 11.5454 17.3514 11.3672C17.1705 11.1683 16.9253 11.0689 16.616 11.0689C16.4482 11.0689 16.3017 11.091 16.1767 11.1352C16.055 11.1762 15.9546 11.2362 15.8756 11.3151C15.7966 11.3908 15.7374 11.4808 15.6979 11.585C15.6617 11.6891 15.6436 11.8027 15.6436 11.9258C15.6436 12.0489 15.6617 12.1594 15.6979 12.2572C15.7374 12.3519 15.8016 12.4403 15.8904 12.5224C15.9826 12.6044 16.1027 12.6833 16.2507 12.7591C16.3988 12.8317 16.5831 12.9058 16.8036 12.9816C17.1359 13.1015 17.437 13.2262 17.7068 13.3556C17.9766 13.4819 18.207 13.6302 18.3978 13.8006C18.592 13.9679 18.74 14.1636 18.8421 14.3877C18.9474 14.6086 19 14.8706 19 15.1736C19 15.4513 18.9523 15.7023 18.8569 15.9264C18.7614 16.1473 18.6249 16.3382 18.4472 16.4992C18.2695 16.6602 18.0556 16.7896 17.8055 16.8874C17.5801 16.9728 17.3307 17.0312 17.0572 17.0627C17.0059 17.0686 16.9664 17.1116 16.9664 17.1633V17.9C16.9664 17.9552 16.9217 18 16.8664 18H16.2816C16.2264 18 16.1816 17.9552 16.1816 17.9V17.1634C16.1816 17.1117 16.1421 17.0687 16.0907 17.0627C15.843 17.0337 15.6019 16.9785 15.3672 16.8969C15.104 16.8022 14.8704 16.6665 14.6663 16.4897C14.4656 16.313 14.3044 16.0905 14.1826 15.8222C14.0717 15.575 14.0113 15.2832 14.0015 14.9469C13.9998 14.8917 14.0448 14.8469 14.1 14.8469H15.2771C15.3323 14.8469 15.3768 14.8917 15.3794 14.9469C15.3883 15.1307 15.422 15.2884 15.4808 15.4198C15.5499 15.5713 15.6387 15.6928 15.7473 15.7843C15.8592 15.8727 15.9859 15.9358 16.1273 15.9737C16.2688 16.0116 16.4136 16.0305 16.5617 16.0305C16.9138 16.0305 17.1803 15.9516 17.3613 15.7938C17.5423 15.636 17.6328 15.4324 17.6328 15.1831ZM5.25 5C5.25 4.58579 5.58579 4.25 6 4.25H16C16.4142 4.25 16.75 4.58579 16.75 5C16.75 5.41421 16.4142 5.75 16 5.75H6C5.58579 5.75 5.25 5.41421 5.25 5ZM5.25 8C5.25 7.58579 5.58579 7.25 6 7.25H13C13.4142 7.25 13.75 7.58579 13.75 8C13.75 8.41421 13.4142 8.75 13 8.75H6C5.58579 8.75 5.25 8.41421 5.25 8ZM6 10.25C5.58579 10.25 5.25 10.5858 5.25 11C5.25 11.4142 5.58579 11.75 6 11.75H10C10.4142 11.75 10.75 11.4142 10.75 11C10.75 10.5858 10.4142 10.25 10 10.25H6ZM5.25 14C5.25 13.5858 5.58579 13.25 6 13.25H10C10.4142 13.25 10.75 13.5858 10.75 14C10.75 14.4142 10.4142 14.75 10 14.75H6C5.58579 14.75 5.25 14.4142 5.25 14Z" fill="#41556C"/>
</svg>
