<svg viewBox="0 0 24 24" fill="none" xmlns="http://www.w3.org/2000/svg">
<path d="M8 5V4.25C8 3.83579 8.33579 3.5 8.75 3.5C9.16421 3.5 9.5 3.16421 9.5 2.75C9.5 2.33579 9.83579 2 10.25 2H13.75C14.1642 2 14.5 2.33579 14.5 2.75C14.5 3.16421 14.8358 3.5 15.25 3.5C15.6642 3.5 16 3.83579 16 4.25V5C16 5.55228 15.5523 6 15 6H9C8.44772 6 8 5.55228 8 5Z" fill="#41556C"/>
<path fill-rule="evenodd" clip-rule="evenodd" d="M4 5V21C4 21.5523 4.44772 22 5 22H19C19.5523 22 20 21.5523 20 21V5C20 4.44772 19.5523 4 19 4H18C17.4477 4 17 4.44772 17 5V6C17 6.55228 16.5523 7 16 7H8C7.44772 7 7 6.55228 7 6V5C7 4.44772 6.55228 4 6 4H5C4.44772 4 4 4.44772 4 5ZM17.0939 15.8621C17.2519 15.6353 17.5637 15.5795 17.7905 15.7374C18.0173 15.8954 18.0732 16.2073 17.9152 16.4341L15.5831 19.7831C15.5695 19.8032 15.5542 19.8225 15.5373 19.8409C15.3511 20.0438 15.0357 20.0574 14.8328 19.8712L13.3115 18.4753C13.1086 18.2891 13.095 17.9737 13.2812 17.7708C13.4674 17.5679 13.7828 17.5543 13.9857 17.7405L15.0841 18.7483L17.0939 15.8621ZM6 9.5C6 9.22386 6.22386 9 6.5 9H16.5C16.7761 9 17 9.22386 17 9.5C17 9.77614 16.7761 10 16.5 10H6.5C6.22386 10 6 9.77614 6 9.5ZM6 12.5C6 12.2239 6.22386 12 6.5 12H16.5C16.7761 12 17 12.2239 17 12.5C17 12.7761 16.7761 13 16.5 13H6.5C6.22386 13 6 12.7761 6 12.5ZM6.5 15C6.22386 15 6 15.2239 6 15.5C6 15.7761 6.22386 16 6.5 16H13.5C13.7761 16 14 15.7761 14 15.5C14 15.2239 13.7761 15 13.5 15H6.5Z" fill="#41556C"/>
</svg>
