<svg viewBox="0 0 24 24" fill="none" xmlns="http://www.w3.org/2000/svg">
<path fill-rule="evenodd" clip-rule="evenodd" d="M2.32007 12L4.45067 16.8423L6.04791 15.2451L3.12736 12H2.32007ZM4.47272 12L6.75599 14.537L9.29296 12H4.47272ZM10.7072 12L7.42589 15.2813L10.7727 19H13.2274L16.5742 15.2813L13.293 12H10.7072ZM14.7072 12L17.2441 14.537L19.5274 12H14.7072ZM20.8727 12L17.9522 15.245L19.5495 16.8423L21.6801 12H20.8727ZM4.8828 17.8244L5.13727 18.4027C5.29697 18.7657 5.65605 19 6.05259 19H9.42736L6.7178 15.9894L4.8828 17.8244ZM17.2823 15.9894L14.5728 19H17.9476C18.3441 19 18.7032 18.7657 18.8629 18.4027L19.1173 17.8244L17.2823 15.9894Z" fill="#41556C"/>
<path opacity="0.6" fill-rule="evenodd" clip-rule="evenodd" d="M2.16795 5.44531C2.4743 4.98579 3.09517 4.86161 3.5547 5.16796L9.30278 9.00001H14.6972L20.4453 5.16796C20.9048 4.86161 21.5257 4.98579 21.8321 5.44531C22.1384 5.90484 22.0142 6.52571 21.5547 6.83206L18.3028 9.00001H22C22.5523 9.00001 23 9.44773 23 10C23 10.5523 22.5523 11 22 11H15.0155C15.0058 11.0002 14.996 11.0002 14.9863 11H9.01368C9.00395 11.0002 8.99422 11.0002 8.98448 11H2C1.44772 11 1 10.5523 1 10C1 9.44773 1.44772 9.00001 2 9.00001H5.69722L2.4453 6.83206C1.98577 6.52571 1.8616 5.90484 2.16795 5.44531Z" fill="#7187A5"/>
</svg>
