<svg viewBox="0 0 24 24" fill="none" xmlns="http://www.w3.org/2000/svg">
<path fill-rule="evenodd" clip-rule="evenodd" d="M4.60155 2.08253C4.72364 2.02944 4.85838 2 5 2H19C19.1398 2 19.2728 2.02867 19.3936 2.08045L16.7422 4.26325L17.2189 4.84228L17.2212 4.84037L18.9677 7H5.03718L6.7788 4.84641L6.78111 4.84831L7.2578 4.26929L4.60155 2.08253ZM17.8417 4.32951L19.9235 2.61571C19.9728 2.73402 20 2.86383 20 3V6.99829L17.8417 4.32951ZM20 6.99829V7H19.9979L20 6.99829ZM4.07464 2.62021C4.02653 2.73731 4 2.86556 4 3V7H4.0035L6.15826 4.33554L4.07464 2.62021ZM4 7.75H20V21C20 21.5523 19.5523 22 19 22H5C4.44772 22 4 21.5523 4 21V7.75ZM9.38828 10.9218C9.74771 10.7702 10 10.4146 10 10C10 9.44772 9.55228 9 9 9C8.44772 9 8 9.44772 8 10C8 10.4245 8.26454 10.7873 8.63778 10.9324C8.66519 11.6548 8.75137 12.4998 9.02217 13.252C9.22509 13.8157 9.53939 14.3512 10.0309 14.7456C10.5276 15.1441 11.1758 15.375 12 15.375C12.8242 15.375 13.4724 15.1441 13.9691 14.7456C14.4606 14.3512 14.7749 13.8157 14.9778 13.252C15.2486 12.4998 15.3348 11.6548 15.3622 10.9324C15.7355 10.7873 16 10.4245 16 10C16 9.44772 15.5523 9 15 9C14.4477 9 14 9.44772 14 10C14 10.4146 14.2523 10.7702 14.6117 10.9218C14.5854 11.5988 14.5067 12.3465 14.2722 12.998C14.1001 13.476 13.8519 13.878 13.4997 14.1607C13.1526 14.4392 12.6758 14.625 12 14.625C11.3242 14.625 10.8474 14.4392 10.5003 14.1607C10.1481 13.878 9.89991 13.476 9.72783 12.998C9.4933 12.3465 9.41464 11.5988 9.38828 10.9218Z" fill="#41556C"/>
</svg>
