<svg viewBox="0 0 24 24" fill="none" xmlns="http://www.w3.org/2000/svg">
<path opacity="0.6" fill-rule="evenodd" clip-rule="evenodd" d="M17.0293 3.02929C17.0106 3.01054 16.9851 3 16.9586 3H7.04144C7.01491 3 6.98948 3.01054 6.97073 3.02929L3.17073 6.82929C3.10773 6.89229 3.15234 7 3.24144 7H20.7586C20.8477 7 20.8923 6.89229 20.8293 6.82929L17.0293 3.02929Z" fill="#7187A5"/>
<path fill-rule="evenodd" clip-rule="evenodd" d="M3 8C2.44772 8 2 8.44772 2 9V20C2 20.5523 2.44772 21 3 21H21C21.5523 21 22 20.5523 22 20V9C22 8.44772 21.5523 8 21 8H14.5V13L12 12L9.5 13V8H3Z" fill="#41556C"/>
</svg>
