<svg viewBox="0 0 24 24" fill="none" xmlns="http://www.w3.org/2000/svg">
<path fill-rule="evenodd" clip-rule="evenodd" d="M5.19906 5.10447L2.41323 7.13818L2.00517 3.10055C1.99921 3.04162 1.99848 2.98347 2.00258 2.92653L5.19906 5.10447ZM6.94223 5.68909L4.04306 7.80554H19.9569L17.0578 5.68909C16.8609 5.54536 16.7461 5.31489 16.7501 5.07115C16.7541 4.82741 16.8762 4.60079 17.0777 4.46353L20.6933 2H3.30669L6.92232 4.46353C7.12378 4.60079 7.24595 4.82741 7.24991 5.07115C7.25387 5.3149 7.13912 5.54536 6.94223 5.68909ZM21.9974 2.92653L18.8009 5.10447L21.5868 7.13821L21.9948 3.10055C22.0008 3.04162 22.0015 2.98347 21.9974 2.92653ZM2.63227 9.30554H21.3678L20.1758 21.1005C20.1242 21.6113 19.6942 22 19.1809 22H4.81925C4.3059 22 3.87593 21.6113 3.82431 21.1006L2.63227 9.30554ZM9.3815 11.8889C9.3815 11.4747 9.04571 11.1389 8.6315 11.1389C8.21728 11.1389 7.8815 11.4747 7.8815 11.8889L7.88147 11.9321C7.88106 12.4723 7.88028 13.4854 8.41127 14.3611C9.00642 15.3426 10.1366 15.9722 12.0002 15.9722C13.8637 15.9722 14.9939 15.3426 15.5891 14.3611C16.1201 13.4854 16.1193 12.4723 16.1189 11.9321L16.1189 11.8889C16.1189 11.4747 15.7831 11.1389 15.3689 11.1389C14.9547 11.1389 14.6189 11.4747 14.6189 11.8889C14.6189 12.472 14.6032 13.0941 14.3065 13.5834C14.0595 13.9908 13.5053 14.4722 12.0002 14.4722C10.495 14.4722 9.94092 13.9908 9.69389 13.5834C9.3972 13.0941 9.3815 12.472 9.3815 11.8889Z" fill="#41556C"/>
</svg>
