<svg viewBox="0 0 24 24" fill="none" xmlns="http://www.w3.org/2000/svg">
    <path fill-rule="evenodd" clip-rule="evenodd" d="M20.1826 17.75C19.8009 18.2921 19.3668 18.7946 18.8875 19.25H5.11248C4.63322 18.7946 4.19908 18.2921 3.81744 17.75H20.1826ZM21.0545 16.25C21.2804 15.7697 21.4692 15.2684 21.6171 14.75H2.38288C2.53085 15.2684 2.7196 15.7697 2.94545 16.25H21.0545ZM22 12C22 12.4233 21.9737 12.8405 21.9226 13.25H16.8425C16.9453 12.8505 17 12.4316 17 12C17 9.23858 14.7614 7 12 7C9.23858 7 7 9.23858 7 12C7 12.4316 7.05469 12.8505 7.15752 13.25H2.07737C2.0263 12.8405 2 12.4233 2 12C2 6.47715 6.47715 2 12 2C17.5228 2 22 6.47715 22 12ZM12 22C10.2422 22 8.5903 21.5465 7.15499 20.75H16.845C15.4097 21.5465 13.7578 22 12 22Z" fill="#41546C"/>
</svg>
