<svg viewBox="0 0 24 24" fill="none" xmlns="http://www.w3.org/2000/svg">
<path fill-rule="evenodd" clip-rule="evenodd" d="M14 3.2686C14 3.84744 14.3963 4.34302 14.9348 4.55546C15.02 4.58907 15.1045 4.62411 15.1882 4.66054C15.7192 4.89152 16.3502 4.82141 16.7596 4.41194C17.2552 3.91642 18.0586 3.91642 18.5541 4.41194L19.5881 5.44591C20.0836 5.94144 20.0836 6.74484 19.5881 7.24037C19.1786 7.64983 19.1085 8.28077 19.3395 8.81177C19.3759 8.89552 19.4109 8.98 19.4445 9.0652C19.657 9.60365 20.1526 10 20.7314 10C21.432 10 22 10.568 22 11.2686V12.7314C22 13.432 21.432 14 20.7314 14C20.1526 14 19.657 14.3963 19.4445 14.9348C19.4109 15.02 19.3759 15.1045 19.3395 15.1882C19.1085 15.7192 19.1786 16.3502 19.5881 16.7596C20.0836 17.2551 20.0836 18.0585 19.5881 18.5541L18.5541 19.5881C18.0586 20.0836 17.2552 20.0836 16.7596 19.5881C16.3502 19.1786 15.7192 19.1085 15.1882 19.3395C15.1045 19.3759 15.02 19.4109 14.9348 19.4445C14.3963 19.657 14 20.1526 14 20.7314C14 21.432 13.432 22 12.7314 22H11.2686C10.568 22 10 21.432 10 20.7314C10 20.1526 9.60365 19.657 9.0652 19.4445C8.98 19.4109 8.89551 19.3759 8.81177 19.3395C8.28077 19.1085 7.64984 19.1786 7.24038 19.5881C6.74485 20.0836 5.94146 20.0836 5.44593 19.5881L4.41195 18.5541C3.91643 18.0585 3.91643 17.2551 4.41195 16.7596C4.82141 16.3502 4.89153 15.7192 4.66054 15.1882C4.62411 15.1045 4.58908 15.02 4.55546 14.9348C4.34302 14.3963 3.84745 14 3.2686 14C2.56797 14 2 13.432 2 12.7314V11.2686C2 10.568 2.56797 10 3.2686 10C3.84744 10 4.34302 9.60365 4.55546 9.0652C4.58908 8.98 4.62411 8.89551 4.66054 8.81176C4.89153 8.28076 4.82141 7.64983 4.41195 7.24036C3.91643 6.74484 3.91643 5.94144 4.41195 5.44592L5.44593 4.41194C5.94145 3.91641 6.74485 3.91641 7.24038 4.41194C7.64984 4.8214 8.28077 4.89152 8.81178 4.66054C8.89552 4.62411 8.98 4.58907 9.0652 4.55546C9.60365 4.34302 10 3.84745 10 3.2686C10 2.56797 10.568 2 11.2686 2H12.7314C13.432 2 14 2.56797 14 3.2686ZM12 17C14.7614 17 17 14.7614 17 12C17 9.23858 14.7614 7 12 7C9.23858 7 7 9.23858 7 12C7 14.7614 9.23858 17 12 17Z" fill="#41556C"/>
<circle cx="12" cy="12" r="3.5" fill="#41556C"/>
</svg>
