<svg viewBox="0 0 24 24" fill="none" xmlns="http://www.w3.org/2000/svg">
    <path fill-rule="evenodd" clip-rule="evenodd" d="M4.00002 12.3885V19C4.00002 20.1046 4.89546 21 6.00003 21H10V17C10 15.8954 10.8955 15 12 15C13.1046 15 14 15.8954 14 17V21H18C19.1046 21 20 20.1046 20 19V12.3885C19.7191 12.4611 19.4225 12.5 19.114 12.5H17.5539C16.9196 12.5 16.2972 12.3276 15.7532 12.0012L14.7572 11.4036C14.5989 11.3086 14.4011 11.3086 14.2427 11.4036L13.8007 11.6688C12.6923 12.3339 11.3076 12.3339 10.1992 11.6688L9.75723 11.4036C9.59889 11.3086 9.40107 11.3086 9.24273 11.4036L8.24675 12.0012C7.70279 12.3276 7.08036 12.5 6.44601 12.5H4.88598C4.57747 12.5 4.28094 12.4611 4.00002 12.3885ZM17.614 3H6.38603C5.55234 3 4.8061 3.51715 4.51337 4.29775L3.01337 8.29775C2.63628 9.30331 3.12089 10.3605 4.00002 10.7951V10.7951C4.26399 10.9256 4.56353 11 4.88598 11H6.44601C6.8085 11 7.16417 10.9015 7.475 10.715L8.47099 10.1174C9.10435 9.73738 9.89561 9.73738 10.529 10.1174L10.971 10.3826C11.6044 10.7626 12.3956 10.7626 13.029 10.3826L13.471 10.1174C14.1044 9.73738 14.8956 9.73738 15.529 10.1174L16.525 10.715C16.8358 10.9015 17.1915 11 17.5539 11H19.114C20.5104 11 21.4769 9.60526 20.9866 8.29775L19.4866 4.29775C19.1939 3.51715 18.4477 3 17.614 3Z" fill="#41556C"/>
</svg>
