<svg viewBox="0 0 24 24" fill="none" xmlns="http://www.w3.org/2000/svg">
    <path d="M11.1223 3.66057C11.5013 2.96563 12.4991 2.96563 12.8781 3.66057L15.1997 7.91747C15.3435 8.18119 15.5983 8.36629 15.8936 8.42159L20.6595 9.31409C21.4376 9.45979 21.7459 10.4088 21.2021 10.984L17.871 14.5074C17.6646 14.7257 17.5673 15.0252 17.6059 15.3231L18.2299 20.1316C18.3317 20.9166 17.5245 21.5031 16.8094 21.1637L12.429 19.0843C12.1576 18.9555 11.8427 18.9555 11.5714 19.0843L7.19102 21.1637C6.47593 21.5031 5.66865 20.9166 5.77051 20.1316L6.39445 15.3231C6.43311 15.0252 6.3358 14.7257 6.12942 14.5074L2.79828 10.984C2.25447 10.4088 2.56282 9.45979 3.34087 9.31409L8.10683 8.42159C8.40209 8.36629 8.65686 8.18119 8.80069 7.91747L11.1223 3.66057Z" fill="#41546C"/>
</svg>
