<svg viewBox="0 0 80 80" fill="none" xmlns="http://www.w3.org/2000/svg">
<path d="M10.5332 0H69.4668C75.2664 0 80 4.71091 80 10.5334V69.4682C80 75.2697 75.2891 80 69.4668 80H10.5332C4.73361 80 0 75.2923 0 69.4698V10.506C0 4.71091 4.70607 0 10.5332 0Z" fill="#5468FF"/>
<path d="M48.3357 17.8595V15.1169C48.3357 13.1986 46.7805 11.645 44.8625 11.6466H36.7658C35.8434 11.6483 34.9595 12.0146 34.3082 12.665C33.657 13.3154 33.2916 14.1967 33.2925 15.1153V17.9321C33.2925 18.2467 33.5841 18.4645 33.9 18.3919C36.1901 17.731 38.5627 17.397 40.9469 17.3997C43.2571 17.3997 45.5429 17.7127 47.7525 18.3193C47.8222 18.3366 47.895 18.3377 47.9652 18.3226C48.0354 18.3075 48.1012 18.2765 48.1576 18.2321C48.2139 18.1877 48.2592 18.131 48.2901 18.0664C48.321 18.0019 48.3366 17.9311 48.3357 17.8595ZM26.1467 21.4492L24.7632 20.0666C24.4414 19.7447 24.059 19.4893 23.6378 19.3151C23.2166 19.1408 22.765 19.0511 22.309 19.0511C21.8529 19.0511 21.4013 19.1408 20.9801 19.3151C20.5589 19.4893 20.1765 19.7447 19.8547 20.0666L18.2007 21.7154C17.8768 22.0371 17.6198 22.4194 17.4445 22.8401C17.2692 23.2609 17.179 23.712 17.179 24.1676C17.179 24.6232 17.2692 25.0743 17.4445 25.4951C17.6198 25.9159 17.8768 26.2981 18.2007 26.6199L19.5615 27.9799C19.7802 28.1961 20.096 28.1461 20.2904 27.9299C21.0921 26.8281 21.9776 25.7893 22.9391 24.8226C23.909 23.8498 24.9574 22.9578 26.0738 22.1558C26.3168 22.0106 26.3395 21.6686 26.1467 21.4492ZM40.921 30.1595V42.0255C40.921 42.3643 41.2888 42.6096 41.6014 42.4385L52.1524 36.9791C52.3922 36.8597 52.4651 36.566 52.3468 36.3257C51.2439 34.3826 49.6594 32.7534 47.7446 31.5934C45.8297 30.4335 43.6484 29.7815 41.4086 29.6997C41.1656 29.6997 40.9226 29.8933 40.9226 30.1595H40.921ZM40.9226 58.746C32.1261 58.746 24.9787 51.6087 24.9787 42.8257C24.9787 34.0428 32.1261 26.9087 40.9226 26.9087C49.7224 26.9087 56.8666 34.0428 56.8666 42.8257C56.8666 51.6087 49.7467 58.746 40.9226 58.746ZM40.9226 20.2134C28.4293 20.2134 18.2962 30.3321 18.2962 42.8257C18.2962 55.3226 28.4293 65.4188 40.9226 65.4188C53.416 65.4188 63.5491 55.2984 63.5491 42.8032C63.5491 30.3063 53.4403 20.2134 40.9226 20.2134Z" fill="white"/>
</svg>
