<svg viewBox="0 0 80 80" fill="none" xmlns="http://www.w3.org/2000/svg">
<path d="M39.6924 74.4979C54.4086 74.4979 66.3384 62.5681 66.3384 47.8519C66.3384 33.1358 54.4086 21.2059 39.6924 21.2059C24.9762 21.2059 13.0464 33.1358 13.0464 47.8519C13.0464 62.5681 24.9762 74.4979 39.6924 74.4979Z" fill="#FFC627"/>
<path d="M50.3509 55.8457L40.3587 36.1943C39.3595 34.529 37.361 33.8628 35.6956 34.529C34.0302 35.5282 33.3641 37.5266 34.0302 39.192L38.3602 47.1858L31.0326 54.5135C30.393 55.1879 30.0365 56.082 30.0365 57.0115C30.0365 57.941 30.393 58.8351 31.0326 59.5096C31.6626 60.1147 32.4914 60.4698 33.3641 60.5088C34.3633 60.5088 35.0295 60.1757 35.6956 59.5096L41.691 53.5143L44.0225 58.5104C44.6886 59.8427 46.021 60.5088 47.0202 60.5088C47.6863 60.5088 48.0194 60.5088 48.6856 60.1758C50.684 59.8427 51.3502 57.8442 50.3509 55.8457ZM63.6739 1.55455C61.6755 2.88685 65.0062 14.2114 57.0124 21.206C52.0163 17.8752 46.0209 15.8767 39.6925 15.8767C33.3641 15.8767 27.3687 17.8752 22.3726 20.8729C14.3788 14.2114 17.7096 2.55375 15.7111 1.22145C12.3804 -0.776996 6.38504 11.2137 7.05119 18.5414C7.38427 22.5383 8.38345 28.5336 11.3811 33.1967C9.0496 37.5266 8.05038 42.1897 8.05038 47.5189C8.05038 65.1718 22.3726 79.4941 40.0256 79.4941C57.6786 79.4941 72.0008 65.1718 72.0008 47.5189C72.0008 42.5227 70.6685 37.5266 68.6701 33.1967C71.6677 28.5336 72.6669 22.5383 73 18.5414C73 11.2137 67.0047 -0.443901 63.6739 1.55455ZM39.6925 72.4995C26.0364 72.4995 15.045 61.508 15.045 47.5189C15.045 33.8628 26.0364 22.8713 39.6925 22.8713C53.3486 22.8713 64.6731 33.8628 64.6731 47.5189C64.6731 61.508 53.3486 72.4995 39.6925 72.4995Z" fill="#232323"/>
</svg>
