<svg viewBox="0 0 80 80" fill="none" xmlns="http://www.w3.org/2000/svg">
<path d="M1.61942 37.4529L37.4861 13.6793C38.9004 12.7736 41.1067 12.7736 42.521 13.6793L78.3877 37.4529C80.5374 38.868 80.5374 41.1888 78.3877 42.6038L73.5791 45.7736C66.5076 34.6226 54.0618 27.2641 39.9753 27.2641C25.8322 27.2641 13.443 34.6792 6.37151 45.7735L1.56286 42.6037C-0.530285 41.1887 -0.530285 38.8113 1.61942 37.4529ZM39.9753 37.1698C29.2831 37.1698 19.9487 42.8302 14.6311 51.2076L22.8906 56.6982C26.398 50.9245 32.6776 47.0755 39.9188 47.0755C47.1035 47.0755 53.4395 50.9246 56.9471 56.6982L65.2066 51.2076C60.0584 42.8302 50.6674 37.1698 39.9753 37.1698ZM39.9753 57.0378C36.2415 57.0378 32.9604 59.1321 31.2066 62.1887L36.7506 65.8114C37.6558 66.5473 38.7307 67 39.9753 67C41.2199 67 42.3513 66.5472 43.1999 65.8114L48.744 62.1887C47.1033 59.1888 43.7656 57.0378 39.9753 57.0378Z" fill="url(#paint0_linear)"/>
<defs>
<linearGradient id="paint0_linear" x1="40" y1="67.0002" x2="40" y2="12.9999" gradientUnits="userSpaceOnUse">
<stop stop-color="#F0C21A"/>
<stop offset="0.3314" stop-color="#93C94B"/>
<stop offset="0.4859" stop-color="#70C05A"/>
<stop offset="0.7506" stop-color="#12B259"/>
<stop offset="0.903" stop-color="#22AD69"/>
<stop offset="1" stop-color="#22AD69"/>
</linearGradient>
</defs>
</svg>
