<svg viewBox="0 0 80 80" fill="none" xmlns="http://www.w3.org/2000/svg">
<path d="M57.1781 28.27L57.1501 28.258C57.1341 28.252 57.1181 28.246 57.1041 28.232C57.0812 28.2073 57.0642 28.1777 57.0545 28.1455C57.0448 28.1132 57.0426 28.0792 57.0481 28.046L58.5941 18.594L65.8441 25.846L58.3041 29.054C58.2832 29.0624 58.2607 29.0665 58.2381 29.066H58.2081C58.1981 29.06 58.1881 29.052 58.1681 29.032C57.8875 28.7195 57.552 28.4613 57.1781 28.27ZM67.6941 27.694L75.4461 35.446C77.0561 37.058 77.8621 37.862 78.1561 38.794C78.2001 38.932 78.2361 39.07 78.2641 39.212L59.7381 31.366C59.7282 31.3619 59.7182 31.3579 59.7081 31.354C59.6341 31.324 59.5481 31.29 59.5481 31.214C59.5481 31.138 59.6361 31.102 59.7101 31.072L59.7341 31.062L67.6941 27.694ZM77.9481 41.7C77.5481 42.452 76.7681 43.232 75.4481 44.554L66.7081 53.292L55.4041 50.938L55.3441 50.926C55.2441 50.91 55.1381 50.892 55.1381 50.802C55.0952 50.3357 54.9567 49.8832 54.7313 49.4727C54.506 49.0622 54.1985 48.7025 53.8281 48.416C53.7821 48.37 53.7941 48.298 53.8081 48.232C53.8081 48.222 53.8081 48.212 53.8121 48.204L55.9381 35.152L55.9461 35.108C55.9581 35.008 55.9761 34.892 56.0661 34.892C56.5217 34.8353 56.9615 34.6885 57.3598 34.4602C57.7581 34.2318 58.107 33.9265 58.3861 33.562C58.4041 33.542 58.4161 33.52 58.4401 33.508C58.5041 33.478 58.5801 33.508 58.6461 33.536L77.9461 41.7H77.9481ZM64.6981 55.302L50.3261 69.674L52.7861 54.554L52.7901 54.534C52.7921 54.514 52.7961 54.494 52.8021 54.476C52.8221 54.428 52.8741 54.408 52.9241 54.388L52.9481 54.378C53.4867 54.1482 53.9631 53.7938 54.3381 53.344C54.3861 53.288 54.4441 53.234 54.5181 53.224C54.5373 53.2208 54.5569 53.2208 54.5761 53.224L64.6961 55.304L64.6981 55.302ZM47.2841 72.716L45.6641 74.336L27.7541 48.452C27.7476 48.4425 27.741 48.4332 27.7341 48.424C27.7061 48.386 27.6761 48.348 27.6821 48.304C27.6841 48.272 27.7041 48.244 27.7261 48.22L27.7461 48.194C27.8001 48.114 27.8461 48.034 27.8961 47.948L27.9361 47.878L27.9421 47.872C27.9701 47.824 27.9961 47.778 28.0441 47.752C28.0861 47.732 28.1441 47.74 28.1901 47.75L48.0321 51.842C48.0876 51.8506 48.1399 51.8733 48.1841 51.908C48.2101 51.934 48.2161 51.962 48.2221 51.994C48.3605 52.5176 48.6181 53.0022 48.9748 53.4099C49.3314 53.8175 49.7775 54.1372 50.2781 54.344C50.3341 54.372 50.3101 54.434 50.2841 54.5C50.2711 54.5289 50.2611 54.559 50.2541 54.59C50.0041 56.11 47.8601 69.186 47.2841 72.716ZM43.9001 76.098C42.7061 77.28 42.0021 77.906 41.2061 78.158C40.4213 78.4061 39.579 78.4061 38.7941 78.158C37.8621 77.862 37.0561 77.058 35.4461 75.446L17.4601 57.46L22.1581 50.174C22.1801 50.138 22.2021 50.106 22.2381 50.08C22.2881 50.044 22.3601 50.06 22.4201 50.08C23.4984 50.4053 24.6562 50.3466 25.6961 49.914C25.7501 49.894 25.8041 49.88 25.8461 49.918C25.8671 49.9371 25.8859 49.9586 25.9021 49.982L43.9001 76.1V76.098ZM15.7261 55.726L11.6001 51.6L19.7481 48.124C19.7689 48.1149 19.7914 48.1101 19.8141 48.11C19.8821 48.11 19.9221 48.178 19.9581 48.24C20.04 48.366 20.1267 48.4887 20.2181 48.608L20.2441 48.64C20.2681 48.674 20.2521 48.708 20.2281 48.74L15.7281 55.726H15.7261ZM9.77411 49.774L4.55411 44.554C3.66611 43.666 3.02211 43.022 2.57411 42.468L18.4461 45.76C18.466 45.7637 18.486 45.767 18.5061 45.77C18.6041 45.786 18.7121 45.804 18.7121 45.896C18.7121 45.996 18.5941 46.042 18.4941 46.08L18.4481 46.1L9.77411 49.774ZM1.66211 39.784C1.6802 39.4477 1.74068 39.1151 1.84211 38.794C2.13811 37.862 2.94211 37.058 4.55411 35.446L11.2341 28.766C14.3098 33.2297 17.3938 37.6877 20.4861 42.14C20.5401 42.212 20.6001 42.292 20.5381 42.352C20.2461 42.674 19.9541 43.026 19.7481 43.408C19.7258 43.4571 19.6914 43.4997 19.6481 43.532C19.6221 43.548 19.5941 43.542 19.5641 43.536H19.5601L1.66211 39.782V39.784ZM13.0221 26.978L22.0041 17.996C22.8481 18.366 25.9201 19.664 28.6681 20.824C30.7481 21.704 32.6441 22.504 33.2401 22.764C33.3001 22.788 33.3541 22.812 33.3801 22.872C33.3961 22.908 33.3881 22.954 33.3801 22.992C33.2379 23.6403 33.2591 24.3138 33.4417 24.952C33.6242 25.5901 33.9625 26.1729 34.4261 26.648C34.4861 26.708 34.4261 26.794 34.3741 26.868L34.3461 26.91L25.2261 41.036C25.2021 41.076 25.1801 41.11 25.1401 41.136C25.0921 41.166 25.0241 41.152 24.9681 41.138C24.6134 41.045 24.2488 40.9953 23.8821 40.99C23.5541 40.99 23.1981 41.05 22.8381 41.116H22.8361C22.7961 41.122 22.7601 41.13 22.7281 41.106C22.6928 41.0771 22.6624 41.0426 22.6381 41.004L13.0221 26.978ZM23.8181 16.182L35.4461 4.55397C37.0561 2.94397 37.8621 2.13797 38.7941 1.84397C39.579 1.59579 40.4213 1.59579 41.2061 1.84397C42.1381 2.13797 42.9441 2.94397 44.5541 4.55397L47.0741 7.07397L38.8041 19.882C38.7837 19.9193 38.7557 19.9519 38.7221 19.978C38.6721 20.012 38.6021 19.998 38.5421 19.978C37.8901 19.7801 37.1997 19.7441 36.5306 19.873C35.8615 20.0019 35.2339 20.292 34.7021 20.718C34.6481 20.774 34.5681 20.742 34.5001 20.712C33.4201 20.242 25.0201 16.692 23.8181 16.182ZM48.8301 8.82997L56.4661 16.466L54.6261 27.862V27.892C54.6245 27.9179 54.6191 27.9435 54.6101 27.968C54.5901 28.008 54.5501 28.016 54.5101 28.028C54.1167 28.1471 53.7462 28.3317 53.4141 28.574C53.3998 28.5841 53.3865 28.5955 53.3741 28.608C53.3521 28.632 53.3301 28.654 53.2941 28.658C53.2648 28.6589 53.2356 28.6541 53.2081 28.644L41.5721 23.7L41.5501 23.69C41.4761 23.66 41.3881 23.624 41.3881 23.548C41.3197 22.8995 41.1079 22.2744 40.7681 21.718C40.7121 21.626 40.6501 21.53 40.6981 21.436L48.8301 8.82997ZM40.9661 26.042L51.8741 30.662C51.9341 30.69 52.0001 30.716 52.0261 30.778C52.0365 30.8153 52.0365 30.8547 52.0261 30.892C51.9941 31.052 51.9661 31.234 51.9661 31.418V31.724C51.9661 31.8 51.8881 31.832 51.8161 31.862L51.7941 31.87C50.0661 32.608 27.5341 42.216 27.5001 42.216C27.4661 42.216 27.4301 42.216 27.3961 42.182C27.3361 42.122 27.3961 42.038 27.4501 41.962C27.4597 41.9488 27.469 41.9355 27.4781 41.922L36.4421 28.042L36.4581 28.018C36.5101 27.934 36.5701 27.84 36.6661 27.84L36.7561 27.854C36.9601 27.882 37.1401 27.908 37.3221 27.908C38.6821 27.908 39.9421 27.246 40.7021 26.114C40.7202 26.0837 40.7432 26.0567 40.7701 26.034C40.8241 25.994 40.9041 26.014 40.9661 26.042ZM28.4741 44.412L53.0341 33.938C53.0341 33.938 53.0701 33.938 53.1041 33.972C53.2381 34.106 53.3521 34.196 53.4621 34.28L53.5161 34.314C53.5661 34.342 53.6161 34.374 53.6201 34.426C53.6201 34.446 53.6201 34.458 53.6161 34.476L51.5121 47.4L51.5041 47.452C51.4901 47.552 51.4761 47.666 51.3821 47.666C50.8212 47.7038 50.2779 47.8779 49.7994 48.1731C49.3209 48.4683 48.9216 48.8757 48.6361 49.36L48.6261 49.376C48.5981 49.422 48.5721 49.466 48.5261 49.49C48.4841 49.51 48.4301 49.502 48.3861 49.492L28.8001 45.452C28.7801 45.448 28.4961 44.414 28.4741 44.412Z" fill="url(#paint0_radial)"/>
<defs>
<radialGradient id="paint0_radial" cx="0" cy="0" r="1" gradientUnits="userSpaceOnUse" gradientTransform="translate(-0.909748 38.919) rotate(90) scale(76.6019 88.4398)">
<stop stop-color="#20C6B7"/>
<stop offset="1" stop-color="#4D9ABF"/>
</radialGradient>
</defs>
</svg>
