<svg viewBox="0 0 80 80" fill="none" xmlns="http://www.w3.org/2000/svg">
<path d="M68.2575 11.7212C52.6575 -3.87876 27.3 -3.87876 11.7 11.7212C-3.9 27.3212 -3.9 52.6787 11.7 68.2787C27.3 83.8787 52.6575 83.8787 68.2575 68.2787C83.8575 52.6787 83.8575 27.3212 68.2575 11.7212V11.7212ZM62.0175 40.8787L40.8575 62.0375C40.3475 62.5475 39.5525 62.5475 39.0425 62.0375L17.8838 40.8787C17.3738 40.3687 17.3738 39.5737 17.8838 39.0637L39.0425 17.905C39.5525 17.395 40.3475 17.395 40.8575 17.905L62.0175 39.0625C62.5275 39.5725 62.5275 40.3675 62.0175 40.8775V40.8787Z" fill="#2176FF"/>
<path d="M80 39.915C80 29.3075 75.8025 19.0962 68.3125 11.6075C61.9587 5.25375 51.6912 5.1975 45.3375 11.5512L39.0975 17.735C39.3279 17.518 39.6321 17.3964 39.9487 17.395C40.2887 17.395 40.63 17.565 40.8562 17.7925L68.1987 45.1925C74.5525 51.5462 74.5525 61.8137 68.1987 68.1675C75.7437 60.6675 79.9987 50.525 79.9987 39.9175L80 39.915ZM11.6437 68.1087C17.9975 74.4625 28.265 74.4625 34.675 68.165L40.8587 61.8687C40.405 62.3787 39.5537 62.3787 39.0437 61.925L17.94 40.8225C17.6562 40.595 17.5425 40.1975 17.5425 39.86C17.5425 39.5225 17.6675 39.1787 17.8825 38.9525L11.7575 45.0775C8.70401 48.1251 6.97879 52.2559 6.95771 56.5699C6.93664 60.884 8.62143 65.0315 11.645 68.1087H11.6437Z" fill="#1A53F0"/>
</svg>
