<svg viewBox="0 0 80 80" fill="none" xmlns="http://www.w3.org/2000/svg">
<g clip-path="url(#clip0)">
<path fill-rule="evenodd" clip-rule="evenodd" d="M69.7689 2.52493C72.991 4.23545 75.6245 6.87516 77.3275 10.1013C79.0712 13.3684 79.9999 16.6088 79.9999 25.5415V41.231C79.9999 41.4336 79.8777 41.6161 79.6905 41.6935C79.5034 41.771 79.288 41.7282 79.1447 41.5851V41.5829L73.2319 35.6589C72.7624 35.1885 72.4989 34.5509 72.4992 33.8862V26.6349C72.4992 19.9338 71.8022 17.5041 70.4949 15.0543C69.2172 12.6349 67.2417 10.6555 64.8248 9.3731C62.4075 8.07518 60.0076 7.37905 53.4806 7.36454L43.7057 7.36431C43.5036 7.36323 43.3219 7.24082 43.245 7.0539C43.1681 6.86697 43.211 6.65214 43.3539 6.50912L49.2667 0.582948C49.7343 0.113041 50.3713 -0.151978 51.0349 -0.151978H54.3599C63.2748 -0.151978 66.5085 0.778928 69.7689 2.52493ZM57.5001 12.3752C63.0231 12.3752 67.4995 16.8627 67.4995 22.3969V28.7417C67.4985 28.9416 67.3788 29.1218 67.1949 29.2002C67.011 29.2786 66.7981 29.2404 66.6532 29.1025L58.5913 21.3791C58.0568 20.8446 57.4332 20.4571 56.7674 20.2144C56.2024 20.0004 55.6032 19.8909 54.9991 19.8914H31.2009C30.9983 19.8913 30.8158 19.7692 30.7383 19.5821C30.6608 19.3949 30.7036 19.1796 30.8468 19.0363L36.7685 13.1079C37.2362 12.6402 37.8709 12.3752 38.5345 12.3752H57.5001Z" fill="#E55638"/>
<path fill-rule="evenodd" clip-rule="evenodd" d="M73.3523 43.2976L79.2673 49.2238C79.735 49.6937 80 50.3329 80 50.9965V54.3304C80 63.2631 79.0713 66.5035 77.3275 69.7705C75.6246 72.9967 72.9911 75.6364 69.7689 77.347C66.5085 79.0907 63.2749 80.0216 54.36 80.0216H38.7061C38.504 80.0206 38.3223 79.8982 38.2453 79.7112C38.1684 79.5243 38.2114 79.3095 38.3542 79.1665V79.1687L44.267 73.2425C44.7347 72.7726 45.3716 72.5076 46.0353 72.5076H53.271C59.9566 72.5076 62.3796 71.8105 64.8249 70.4988C67.2417 69.2163 69.2173 67.237 70.495 64.8176C71.8022 62.3678 72.4993 59.9381 72.4993 53.2369V43.6517C72.5004 43.4502 72.6221 43.2689 72.8083 43.1916C72.9944 43.1143 73.2088 43.1561 73.3523 43.2976ZM60.8541 30.7683L66.7691 36.7011C67.2368 37.171 67.4996 37.808 67.4996 38.4738V57.4795C67.4996 63.0137 63.0232 67.5012 57.5001 67.5012H51.1686C50.9687 67.5002 50.7885 67.3805 50.7101 67.1966C50.6317 67.0127 50.67 66.7998 50.8079 66.6549V66.6527L58.5134 58.5707C59.0479 58.0362 59.4354 57.4127 59.6782 56.7445C59.891 56.1786 59.9997 55.5787 59.9989 54.974V31.1224C59.9991 30.9198 60.1211 30.7373 60.3083 30.6598C60.4954 30.5824 60.7108 30.6251 60.8541 30.7683Z" fill="#F4C942"/>
<path fill-rule="evenodd" clip-rule="evenodd" d="M0.852959 38.2846L6.77022 44.2108C7.2379 44.6807 7.50292 45.3199 7.50292 45.9835V53.2348C7.50292 59.936 8.19776 62.3657 9.50727 64.8154C10.7844 67.2345 12.7591 69.2138 15.1751 70.4966C17.6204 71.8084 20.0457 72.5054 26.7313 72.5054H36.2942C36.4971 72.5047 36.6805 72.6264 36.7585 72.8138C36.8366 73.0011 36.7939 73.217 36.6505 73.3606L30.7333 79.2868C30.2656 79.7567 29.6286 80.0217 28.9672 80.0217H25.64C16.7251 80.0217 13.4937 79.0908 10.2333 77.3448C7.01029 75.6346 4.37598 72.9949 2.67246 69.7684C0.946117 66.534 0.0186551 63.3258 0.00027849 54.5945L0 38.6387C0.00106374 38.4372 0.122795 38.2559 0.308954 38.1786C0.495113 38.1013 0.709457 38.1431 0.852959 38.2846ZM13.3467 50.7672H13.3445L21.4108 58.4906C21.9431 59.0251 22.5689 59.4126 23.2326 59.6554C23.7804 59.8647 24.3773 59.9783 25.0008 59.9783H48.7991C49.0012 59.9794 49.1829 60.1018 49.2598 60.2887C49.3367 60.4756 49.2938 60.6905 49.1509 60.8335L43.2314 66.7619C42.7638 67.2295 42.1268 67.4946 41.4654 67.4946H22.4999C19.8449 67.4916 17.2998 66.4341 15.4246 64.5547C13.5493 62.6752 12.4975 60.1278 12.5004 57.4729V51.128C12.5014 50.9281 12.6211 50.7479 12.805 50.6695C12.9889 50.5911 13.2018 50.6293 13.3467 50.7672Z" fill="#7B8FEA"/>
<path fill-rule="evenodd" clip-rule="evenodd" d="M28.8314 12.3752C29.0313 12.3761 29.2115 12.4958 29.2899 12.6797C29.3683 12.8636 29.33 13.0765 29.1921 13.2214L21.4843 21.3056C20.9498 21.8401 20.5646 22.4637 20.3218 23.1318C20.1082 23.6976 19.9988 24.2975 19.9989 24.9023V48.754C19.9969 48.9551 19.8749 49.1356 19.6889 49.2123C19.503 49.2891 19.2891 49.2471 19.1459 49.1059L13.2309 43.173C12.7627 42.7027 12.5001 42.0661 12.5004 41.4025V22.3969C12.5004 16.8627 16.9768 12.3752 22.4999 12.3752H28.8314ZM41.2939 -0.151978C41.496 -0.150904 41.6777 -0.0284922 41.7546 0.158434C41.8316 0.345361 41.7886 0.560194 41.6458 0.703209L35.733 6.62938C35.2631 7.09929 34.6284 7.36431 33.9647 7.36431H26.729C20.0434 7.36431 17.6182 8.06137 15.1729 9.3731C12.756 10.6555 10.7805 12.6349 9.50281 15.0543C8.2093 17.4783 7.51321 19.8826 7.4987 26.4247L7.49847 36.2202C7.49741 36.4217 7.37567 36.603 7.18952 36.6803C7.00336 36.7576 6.78901 36.7158 6.64551 36.5743L0.734926 30.6481C0.264594 30.178 0 29.5403 0 28.8754V25.5415C0 16.6088 0.928679 13.3684 2.67246 10.1013C4.37539 6.87516 7.00889 4.23545 10.2311 2.52493C13.4589 0.796388 16.6604 -0.133278 25.3721 -0.151698L41.2939 -0.151978Z" fill="#D97EE8"/>
</g>
<defs>
<clipPath id="clip0">
<rect width="80" height="80" fill="white"/>
</clipPath>
</defs>
</svg>
