<svg viewBox="0 0 80 80" fill="none" xmlns="http://www.w3.org/2000/svg">
<path d="M66.5868 20.6688C66.7226 19.568 66.7936 18.4472 66.7936 17.3098C66.7936 7.75 59.0223 0 49.4357 0H20.427C18.6023 0 17.0444 1.31406 16.7417 3.10844L6.05274 66.4639C5.66918 68.7373 7.42654 70.8091 9.73809 70.8091H20.3473C22.172 70.8091 23.7592 69.4959 24.0618 67.7014C24.0618 67.7014 24.0795 67.5963 24.1115 67.4069H24.1116L22.6331 76.1703C22.2953 78.1739 23.8442 80 25.8815 80H35.163C36.7713 80 38.1445 78.8417 38.4112 77.2602L41.048 61.632C41.5025 58.938 43.8414 56.9653 46.5807 56.9653H49.019C62.2634 56.9653 73 46.2583 73 33.0506C73 27.9398 70.4667 23.4222 66.5868 20.6688Z" fill="#002987"/>
<path d="M66.6393 21C64.993 34.3903 53.579 44.7588 39.7419 44.7588H31.7132C29.9011 44.7588 28.336 45.9656 27.8451 47.672L23.0461 76.1914C22.7109 78.1839 24.247 80 26.2677 80H35.4731C37.0682 80 38.4302 78.8482 38.6946 77.2755L41.3099 61.7346C41.7607 59.0556 44.0803 57.0939 46.7972 57.0939H49.2155C62.3514 57.0939 73 46.4467 73 33.3127C73 28.2305 70.4875 23.7381 66.6393 21Z" fill="#0085CC"/>
<path d="M30.8887 44.133H38.96C52.8705 44.133 64.3451 33.9281 66 20.7493C63.5179 19.0203 60.4847 18 57.2062 18H36.1395C33.741 18 31.6931 19.6955 31.295 22.0108L27 47C27.4935 45.3206 29.067 44.133 30.8887 44.133Z" fill="#00186A"/>
</svg>
