<svg viewBox="0 0 80 80" fill="none" xmlns="http://www.w3.org/2000/svg">
<path fill-rule="evenodd" clip-rule="evenodd" d="M46.6 21.7345C46.6 20.3349 45.4961 19.2018 44.1371 19.2018L31.5889 19.2001C29.7674 19.2001 28.121 20.1924 27.3283 21.7339L2.0096 76.451C1.87564 76.7616 1.80005 77.1053 1.80005 77.4662C1.80005 78.8653 2.90229 79.9978 4.26189 79.9978L16.8095 80C18.9651 80 20.7627 78.104 21.4658 76.586C22.169 75.068 46.3938 22.7491 46.3938 22.7491C46.5261 22.4368 46.6 22.0959 46.6 21.7345Z" fill="#F05000"/>
<path fill-rule="evenodd" clip-rule="evenodd" d="M78.5998 30.4C78.5998 30.0448 78.5288 29.7068 78.3975 29.4013V29.3985L66.5398 3.41521L66.5331 3.40892C65.7035 1.51399 64.0037 0 61.8187 0L49.0954 0.00114393C47.7169 0.00114393 46.5999 1.13478 46.5999 2.53324C46.5999 2.89529 46.6771 3.23847 46.8129 3.54962L46.8101 3.55191L58.7732 29.1811C58.7732 29.1811 59.0803 29.9647 59.0803 30.4C59.0803 30.8358 58.9608 31.2396 58.7715 31.5965L58.7732 31.6177L46.8129 57.2498C46.6771 57.5626 46.5999 57.9035 46.5999 58.2667C46.5999 59.6652 47.7169 60.7977 49.0954 60.7977L61.8187 60.8C64.0037 60.8 65.6094 59.2866 66.5331 57.3893L66.5398 57.3842L78.3975 31.4015V31.3986C78.5288 31.0932 78.5998 30.7552 78.5998 30.4Z" fill="#F05000"/>
</svg>
