<svg viewBox="0 0 80 80" fill="none" xmlns="http://www.w3.org/2000/svg">
<path d="M80 32.1443C80 23.5379 72.9584 16.4963 64.3521 16.4963C56.9193 16.4963 54.5721 19.4303 46.7482 20.4083C42.0538 20.9951 42.2494 18.4523 36.9682 18.4523C33.0562 18.4523 29.1443 20.4083 29.1443 20.4083C29.1443 20.4083 25.4279 15.9095 23.2763 16.4963C20.3423 17.4743 23.2763 26.2763 23.2763 26.2763C23.2763 26.2763 21.3203 30.1883 17.4083 34.1002C14.4743 37.0342 7.62836 38.599 4.10758 39.577C4.30318 21.5819 18.9731 6.91198 36.9682 6.91198C44.7922 6.91198 52.0293 9.65037 57.7017 14.3447C59.0709 13.9535 60.8313 13.7579 62.5917 13.5623C55.9413 7.10758 46.9438 3 36.7726 3C16.6259 3 0 19.6259 0 39.9682C0 60.3105 16.6259 76.7408 36.9682 76.7408C54.7677 76.7408 69.6333 64.2225 72.9584 47.401C71.3936 48.1834 69.8288 48.9658 68.2641 49.7482C64.1565 62.6577 52.4205 72.2421 38.1418 72.8288C40.0978 69.5037 44.5966 63.2445 50.4645 57.5721C63.5697 45.0538 80 47.0098 80 32.1443ZM39.9022 30.1883C38.3374 30.1883 36.9682 28.8191 36.9682 27.2543C36.9682 25.6895 38.3374 24.3203 39.9022 24.3203C41.467 24.3203 42.8362 25.6895 42.8362 27.2543C42.8362 28.8191 41.467 30.1883 39.9022 30.1883Z" fill="#3B474F"/>
</svg>
