<svg viewBox="0 0 80 80" fill="none" xmlns="http://www.w3.org/2000/svg">
<g clip-path="url(#clip0)">
<path fill-rule="evenodd" clip-rule="evenodd" d="M13.3676 5.62472e-07H66.6324C70.1782 -0.00102736 73.5796 1.40689 76.0873 3.91393C78.5949 6.42095 80.004 9.82164 80.004 13.3676V66.6284C80.004 74.0135 74.0171 80 66.6324 80H13.3676C5.98425 79.9978 0 74.012 0 66.6284V13.3676C0 5.98487 5.98487 5.62472e-07 13.3676 5.62472e-07ZM61.2487 65.4564C63.5789 65.4564 65.468 63.5673 65.468 61.2371L65.4564 18.7667C65.4564 16.4365 63.5673 14.5476 61.2371 14.5476H18.7705C17.6509 14.5476 16.5772 14.9926 15.7858 15.7847C14.9945 16.5768 14.5504 17.6509 14.5515 18.7705V61.2371C14.5515 63.5673 16.4404 65.4564 18.7705 65.4564H61.2487Z" fill="black"/>
<path d="M31.5134 50.8464C30.1833 50.8359 29.1107 49.7548 29.1107 48.4246V31.4705C29.1077 30.8261 29.3615 30.2071 29.816 29.7504C30.2706 29.2936 30.8884 29.0369 31.5328 29.0369H48.5103C49.1543 29.0379 49.7714 29.295 50.2259 29.7515C50.6801 30.208 50.9343 30.8265 50.9321 31.4705V48.4206C50.9343 49.0646 50.6801 49.6832 50.2259 50.1395C49.7714 50.5962 49.1543 50.8533 48.5103 50.8544L31.5134 50.8464Z" fill="black"/>
</g>
<defs>
<clipPath id="clip0">
<rect width="80" height="80" fill="white"/>
</clipPath>
</defs>
</svg>
