<svg viewBox="0 0 80 80" fill="none" xmlns="http://www.w3.org/2000/svg">
<path d="M40 0C17.8667 0 0 17.8667 0 40C0 62.1333 17.8667 80 40 80C62.1333 80 80 62.1333 80 40C80 17.8667 62.1333 0 40 0ZM40 69.3333C23.7333 69.3333 10.6667 56.2667 10.6667 40C10.6667 23.7333 23.7333 10.6667 40 10.6667C56.2667 10.6667 69.3333 23.7333 69.3333 40C69.3333 56.2667 56.2667 69.3333 40 69.3333ZM58.1333 30.1333C58.1333 34.6667 54.4 38.4 49.8667 38.4C45.3333 38.4 41.6 34.6667 41.6 30.1333C41.6 25.6 45.3333 21.8667 49.8667 21.8667C54.4 21.8667 58.1333 25.6 58.1333 30.1333ZM58.1333 49.8667C58.1333 54.4 54.4 58.1333 49.8667 58.1333C45.3333 58.1333 41.6 54.4 41.6 49.8667C41.6 45.3333 45.3333 41.6 49.8667 41.6C54.4 41.6 58.1333 45.3333 58.1333 49.8667ZM38.4 49.8667C38.4 54.4 34.6667 58.1333 30.1333 58.1333C25.6 58.1333 21.8667 54.4 21.8667 49.8667C21.8667 45.3333 25.6 41.6 30.1333 41.6C34.6667 41.6 38.4 45.3333 38.4 49.8667ZM38.4 30.1333C38.4 34.6667 34.6667 38.4 30.1333 38.4C25.6 38.4 21.8667 34.6667 21.8667 30.1333C21.8667 25.6 25.6 21.8667 30.1333 21.8667C34.6667 21.8667 38.4 25.6 38.4 30.1333Z" fill="#F22F46"/>
</svg>
