<svg viewBox="0 0 80 80" fill="none" xmlns="http://www.w3.org/2000/svg">
<g clip-path="url(#clip0)">
<path fill-rule="evenodd" clip-rule="evenodd" d="M21.6028 37.9327C21.6028 42.3296 25.6699 45.847 30.6163 45.847C35.5627 45.847 39.6298 42.3296 39.6298 37.9327C39.6298 33.5359 35.5627 30.0184 30.6163 30.0184C25.6699 30.0184 21.6028 33.6458 21.6028 37.9327ZM26.6591 37.9327C26.6591 35.9542 28.5278 34.4153 30.7262 34.4153C32.9246 34.4153 34.7933 35.9542 34.7933 37.9327C34.7933 39.9113 32.9246 41.4502 30.7262 41.4502C28.4179 41.5601 26.6591 39.9113 26.6591 37.9327ZM39.6298 57.8284C39.6298 62.2253 43.6969 65.7427 48.6433 65.7427C53.5898 65.7427 57.6568 62.2253 57.6568 57.8284C57.6568 53.4316 53.5898 49.9141 48.6433 49.9141C43.587 49.9141 39.6298 53.4316 39.6298 57.8284ZM44.5763 57.8284C44.5763 55.8498 46.4449 54.311 48.6433 54.311C50.8417 54.311 52.7104 55.9598 52.7104 57.8284C52.7104 59.807 50.8417 61.3459 48.6433 61.3459C46.335 61.4558 44.5763 59.807 44.5763 57.8284Z" fill="#22C855" stroke="#22C855"/>
<path fill-rule="evenodd" clip-rule="evenodd" d="M69.0887 27.1607C69.0887 25.1822 66.4506 24.4127 64.8018 25.6218C48.3136 38.2627 31.7156 50.9036 15.2274 63.5445V32.2171C15.2274 29.6889 15.4473 27.6004 17.6457 25.7318C18.4151 25.0722 19.5143 24.7425 20.3937 24.4127C20.6135 24.3028 22.702 23.973 21.7128 24.0829H21.9326C26.7691 25.6218 33.3644 26.3913 39.6299 26.3913C51.7212 26.3913 64.6918 23.6433 64.6918 17.5976V9.24362C64.6918 3.19797 51.7212 0.449951 39.6299 0.449951C27.5386 0.449951 14.5679 3.19797 14.5679 9.24362V17.4877C14.5679 18.9167 15.2274 20.1258 16.5465 21.225C14.7877 22.1044 13.2488 23.3135 12.0397 24.8524C8.96193 28.6996 10.281 35.4048 10.281 39.9116V68.3811C10.281 70.3596 12.9191 71.1291 14.5679 69.92C31.056 57.2791 47.6541 44.6382 64.1422 31.9972V59.8072C64.1422 62.0057 64.5819 64.5338 63.7025 66.6223C62.6033 69.7001 58.2065 71.6787 55.1287 72.7779C44.3565 76.5152 31.2759 76.0755 20.9433 71.4588C18.0854 70.1398 15.6671 74.2069 18.4151 75.1962C29.8469 79.4831 40.1795 80.0327 52.7105 77.9442C59.0859 76.845 68.649 72.3382 68.9787 65.4132C69.6383 52.6624 69.0887 39.9116 69.0887 27.1607ZM39.6299 4.84679C52.8204 4.84679 59.7454 8.14441 59.7454 9.24362C59.7454 10.3428 52.8204 13.6405 39.6299 13.6405C26.4394 13.6405 19.5143 10.3428 19.5143 9.24362C19.5143 8.14441 26.4394 4.84679 39.6299 4.84679ZM19.5143 14.8496C24.3509 17.048 32.1552 18.1472 39.6299 18.1472C47.1045 18.1472 54.9089 17.048 59.7454 14.8496V17.5976C59.7454 18.6968 52.8204 21.9944 39.6299 21.9944C26.4394 21.9944 19.5143 18.6968 19.5143 17.5976V14.8496Z" fill="#22C855" stroke="#22C855"/>
</g>
<defs>
<clipPath id="clip0">
<rect width="80" height="80" fill="white"/>
</clipPath>
</defs>
</svg>
